Kalam_0.ufo
<glyph name="exclam" format="1">
  <advance width="314"/>
  <unicode hex="0021"/>
  <outline>
    <contour>
      <point x="200" y="803" type="curve" smooth="yes"/>
      <point x="194" y="803"/>
      <point x="192" y="795"/>
      <point x="192" y="779" type="curve" smooth="yes"/>
      <point x="192" y="516"/>
      <point x="128" y="283"/>
      <point x="128" y="267" type="curve" smooth="yes"/>
      <point x="128" y="250"/>
      <point x="140" y="234"/>
      <point x="153" y="234" type="curve" smooth="yes"/>
      <point x="184" y="234"/>
      <point x="258" y="646"/>
      <point x="258" y="766" type="curve" smooth="yes"/>
      <point x="258" y="781"/>
      <point x="216" y="803"/>
    </contour>
    <contour>
      <point x="88" y="122" type="curve" smooth="yes"/>
      <point x="70" y="122"/>
      <point x="48" y="92"/>
      <point x="48" y="72" type="curve" smooth="yes"/>
      <point x="48" y="44"/>
      <point x="96" y="-5"/>
      <point x="125" y="-5" type="curve" smooth="yes"/>
      <point x="134" y="-5"/>
      <point x="144" y="4"/>
      <point x="144" y="9" type="curve" smooth="yes"/>
      <point x="144" y="36"/>
      <point x="110" y="122"/>
    </contour>
  </outline>
</glyph>
<glyph name="numbersign" format="1">
  <advance width="589"/>
  <unicode hex="0023"/>
  <outline>
    <contour>
      <point x="102" y="32" type="curve" smooth="yes"/>
      <point x="102" y="6"/>
      <point x="121" y="-10"/>
      <point x="130" y="-10" type="curve" smooth="yes"/>
      <point x="143" y="-10"/>
      <point x="155" y="26"/>
      <point x="173" y="91" type="curve" smooth="yes"/>
      <point x="238" y="325"/>
      <point x="298" y="569"/>
      <point x="298" y="658" type="curve" smooth="yes"/>
      <point x="298" y="689"/>
      <point x="263" y="717"/>
      <point x="252" y="717" type="curve" smooth="yes"/>
      <point x="239" y="717"/>
      <point x="239" y="710"/>
      <point x="239" y="683" type="curve" smooth="yes"/>
      <point x="239" y="548"/>
      <point x="102" y="62"/>
    </contour>
    <contour>
      <point x="317" y="29" type="curve" smooth="yes"/>
      <point x="317" y="12"/>
      <point x="331" y="-10"/>
      <point x="344" y="-10" type="curve" smooth="yes"/>
      <point x="355" y="-10"/>
      <point x="370" y="17"/>
      <point x="389" y="89" type="curve" smooth="yes"/>
      <point x="451" y="324"/>
      <point x="514" y="569"/>
      <point x="514" y="658" type="curve" smooth="yes"/>
      <point x="514" y="689"/>
      <point x="479" y="717"/>
      <point x="467" y="717" type="curve" smooth="yes"/>
      <point x="455" y="717"/>
      <point x="455" y="710"/>
      <point x="455" y="683" type="curve" smooth="yes"/>
      <point x="455" y="540"/>
      <point x="317" y="62"/>
    </contour>
    <contour>
      <point x="564" y="559" type="curve" smooth="yes"/>
      <point x="492" y="559"/>
      <point x="111" y="532"/>
      <point x="111" y="490" type="curve" smooth="yes"/>
      <point x="111" y="478"/>
      <point x="127" y="457"/>
      <point x="140" y="457" type="curve" smooth="yes"/>
      <point x="159" y="457"/>
      <point x="201" y="466"/>
      <point x="280" y="476" type="curve" smooth="yes"/>
      <point x="561" y="512"/>
      <point x="609" y="519"/>
      <point x="609" y="536" type="curve" smooth="yes"/>
      <point x="609" y="549"/>
      <point x="595" y="559"/>
    </contour>
    <contour>
      <point x="503" y="243" type="curve" smooth="yes"/>
      <point x="431" y="243"/>
      <point x="50" y="216"/>
      <point x="50" y="174" type="curve" smooth="yes"/>
      <point x="50" y="162"/>
      <point x="68" y="141"/>
      <point x="79" y="141" type="curve" smooth="yes"/>
      <point x="102" y="141"/>
      <point x="140" y="150"/>
      <point x="219" y="160" type="curve" smooth="yes"/>
      <point x="501" y="196"/>
      <point x="548" y="203"/>
      <point x="548" y="221" type="curve" smooth="yes"/>
      <point x="548" y="234"/>
      <point x="535" y="243"/>
    </contour>
  </outline>
</glyph>
<glyph name="dollar" format="1">
  <advance width="503"/>
  <unicode hex="0024"/>
  <outline>
    <contour>
      <point x="504" y="581" type="curve" smooth="yes"/>
      <point x="504" y="600"/>
      <point x="486" y="639"/>
      <point x="449" y="639" type="curve" smooth="yes"/>
      <point x="369" y="639"/>
      <point x="224" y="598"/>
      <point x="156" y="536" type="curve" smooth="yes"/>
      <point x="141" y="524"/>
      <point x="129" y="484"/>
      <point x="129" y="457" type="curve" smooth="yes"/>
      <point x="129" y="353"/>
      <point x="391" y="268"/>
      <point x="391" y="181" type="curve" smooth="yes"/>
      <point x="391" y="120"/>
      <point x="303" y="74"/>
      <point x="195" y="74" type="curve" smooth="yes"/>
      <point x="111" y="74"/>
      <point x="58" y="173"/>
      <point x="36" y="173" type="curve" smooth="yes"/>
      <point x="25" y="173"/>
      <point x="19" y="166"/>
      <point x="19" y="152" type="curve" smooth="yes"/>
      <point x="19" y="113"/>
      <point x="94" y="17"/>
      <point x="206" y="17" type="curve" smooth="yes"/>
      <point x="331" y="17"/>
      <point x="455" y="85"/>
      <point x="455" y="182" type="curve" smooth="yes"/>
      <point x="455" y="295"/>
      <point x="187" y="393"/>
      <point x="187" y="466" type="curve" smooth="yes"/>
      <point x="187" y="519"/>
      <point x="340" y="579"/>
      <point x="448" y="579" type="curve" smooth="yes"/>
      <point x="465" y="579"/>
      <point x="480" y="571"/>
      <point x="493" y="571" type="curve" smooth="yes"/>
      <point x="499" y="571"/>
      <point x="504" y="573"/>
    </contour>
    <contour>
      <point x="432" y="720" type="curve" smooth="yes"/>
      <point x="432" y="736"/>
      <point x="427" y="745"/>
      <point x="415" y="745" type="curve" smooth="yes"/>
      <point x="383" y="745"/>
      <point x="375" y="716"/>
      <point x="261" y="346" type="curve" smooth="yes"/>
      <point x="231" y="249"/>
      <point x="154" y="34"/>
      <point x="154" y="-37" type="curve" smooth="yes"/>
      <point x="154" y="-52"/>
      <point x="159" y="-62"/>
      <point x="169" y="-62" type="curve" smooth="yes"/>
      <point x="211" y="-62"/>
      <point x="264" y="201"/>
      <point x="424" y="676" type="curve" smooth="yes"/>
      <point x="430" y="694"/>
      <point x="432" y="709"/>
    </contour>
  </outline>
</glyph>
<glyph name="percent" format="1">
  <advance width="835"/>
  <unicode hex="0025"/>
  <outline>
    <contour>
      <point x="631" y="687" type="line"/>
      <point x="333" y="255"/>
      <point x="179" y="43"/>
      <point x="179" y="20" type="curve" smooth="yes"/>
      <point x="179" y="6"/>
      <point x="193" y="-16"/>
      <point x="201" y="-16" type="curve" smooth="yes"/>
      <point x="221" y="-16"/>
      <point x="292" y="98"/>
      <point x="435" y="308" type="curve" smooth="yes"/>
      <point x="530" y="448"/>
      <point x="686" y="639"/>
      <point x="686" y="688" type="curve" smooth="yes"/>
      <point x="686" y="708"/>
      <point x="664" y="742"/>
      <point x="653" y="742" type="curve" smooth="yes"/>
      <point x="629" y="742"/>
      <point x="516" y="655"/>
      <point x="413" y="655" type="curve" smooth="yes"/>
      <point x="349" y="655"/>
      <point x="324" y="690"/>
      <point x="308" y="690" type="curve" smooth="yes"/>
      <point x="301" y="690"/>
      <point x="292" y="687"/>
      <point x="292" y="677" type="curve" smooth="yes"/>
      <point x="292" y="642"/>
      <point x="366" y="599"/>
      <point x="436" y="599" type="curve" smooth="yes"/>
      <point x="500" y="599"/>
      <point x="566" y="623"/>
      <point x="626" y="665" type="curve"/>
    </contour>
    <contour>
      <point x="284" y="312"/>
      <point x="387" y="422"/>
      <point x="387" y="542" type="curve" smooth="yes"/>
      <point x="387" y="635"/>
      <point x="336" y="696"/>
      <point x="282" y="696" type="curve" smooth="yes"/>
      <point x="202" y="696"/>
      <point x="103" y="584"/>
      <point x="103" y="432" type="curve" smooth="yes"/>
      <point x="103" y="371"/>
      <point x="150" y="312"/>
      <point x="203" y="312" type="curve" smooth="yes"/>
    </contour>
    <contour>
      <point x="178" y="369"/>
      <point x="162" y="406"/>
      <point x="162" y="441" type="curve" smooth="yes"/>
      <point x="162" y="542"/>
      <point x="235" y="641"/>
      <point x="278" y="641" type="curve" smooth="yes"/>
      <point x="305" y="641"/>
      <point x="329" y="599"/>
      <point x="329" y="534" type="curve" smooth="yes"/>
      <point x="329" y="452"/>
      <point x="255" y="369"/>
      <point x="211" y="369" type="curve" smooth="yes"/>
    </contour>
    <contour>
      <point x="658" y="16"/>
      <point x="760" y="126"/>
      <point x="760" y="246" type="curve" smooth="yes"/>
      <point x="760" y="339"/>
      <point x="711" y="400"/>
      <point x="655" y="400" type="curve" smooth="yes"/>
      <point x="576" y="400"/>
      <point x="477" y="288"/>
      <point x="477" y="136" type="curve" smooth="yes"/>
      <point x="477" y="75"/>
      <point x="524" y="16"/>
      <point x="576" y="16" type="curve" smooth="yes"/>
    </contour>
    <contour>
      <point x="551" y="73"/>
      <point x="535" y="110"/>
      <point x="535" y="145" type="curve" smooth="yes"/>
      <point x="535" y="246"/>
      <point x="608" y="345"/>
      <point x="651" y="345" type="curve" smooth="yes"/>
      <point x="679" y="345"/>
      <point x="702" y="303"/>
      <point x="702" y="238" type="curve" smooth="yes"/>
      <point x="702" y="156"/>
      <point x="629" y="73"/>
      <point x="585" y="73" type="curve" smooth="yes"/>
    </contour>
  </outline>
</glyph>
<glyph name="ampersand" format="1">
  <advance width="660"/>
  <unicode hex="0026"/>
  <outline>
    <contour>
      <point x="620" y="344"/>
      <point x="614" y="351"/>
      <point x="598" y="351" type="curve" smooth="yes"/>
      <point x="568" y="351"/>
      <point x="247" y="71"/>
      <point x="123" y="71" type="curve" smooth="yes"/>
      <point x="100" y="71"/>
      <point x="83" y="86"/>
      <point x="83" y="107" type="curve" smooth="yes"/>
      <point x="83" y="180"/>
      <point x="481" y="396"/>
      <point x="481" y="547" type="curve" smooth="yes"/>
      <point x="481" y="592"/>
      <point x="461" y="657"/>
      <point x="368" y="657" type="curve" smooth="yes"/>
      <point x="260" y="657"/>
      <point x="187" y="564"/>
      <point x="187" y="469" type="curve" smooth="yes"/>
      <point x="187" y="277"/>
      <point x="359" y="26"/>
      <point x="539" y="26" type="curve" smooth="yes"/>
      <point x="599" y="26"/>
      <point x="621" y="42"/>
      <point x="621" y="61" type="curve" smooth="yes"/>
      <point x="621" y="76"/>
      <point x="604" y="80"/>
      <point x="541" y="80" type="curve" smooth="yes"/>
      <point x="387" y="80"/>
      <point x="248" y="292"/>
      <point x="248" y="463" type="curve" smooth="yes"/>
      <point x="248" y="537"/>
      <point x="296" y="605"/>
      <point x="358" y="605" type="curve" smooth="yes"/>
      <point x="402" y="605"/>
      <point x="419" y="579"/>
      <point x="419" y="547" type="curve" smooth="yes"/>
      <point x="419" y="416"/>
      <point x="22" y="209"/>
      <point x="22" y="115" type="curve" smooth="yes"/>
      <point x="22" y="60"/>
      <point x="77" y="15"/>
      <point x="120" y="15" type="curve" smooth="yes"/>
      <point x="262" y="15"/>
      <point x="620" y="295"/>
      <point x="620" y="330" type="curve" smooth="yes"/>
    </contour>
  </outline>
</glyph>
<glyph name="quotesingle" format="1">
  <advance width="104"/>
  <unicode hex="0027"/>
  <outline>
    <contour>
      <point x="98" y="805"/>
      <point x="71" y="826"/>
      <point x="60" y="826" type="curve" smooth="yes"/>
      <point x="52" y="826"/>
      <point x="49" y="819"/>
      <point x="49" y="806" type="curve" smooth="yes"/>
      <point x="49" y="711"/>
      <point x="29" y="622"/>
      <point x="29" y="600" type="curve" smooth="yes"/>
      <point x="29" y="585"/>
      <point x="43" y="566"/>
      <point x="56" y="566" type="curve" smooth="yes"/>
      <point x="77" y="566"/>
      <point x="98" y="743"/>
      <point x="98" y="792" type="curve" smooth="yes"/>
    </contour>
  </outline>
</glyph>
<glyph name="asterisk" format="1">
  <advance width="348"/>
  <unicode hex="002A"/>
  <outline>
    <contour>
      <point x="299" y="680"/>
      <point x="370" y="717"/>
      <point x="370" y="726" type="curve" smooth="yes"/>
      <point x="370" y="737"/>
      <point x="355" y="746"/>
      <point x="344" y="746" type="curve" smooth="yes"/>
      <point x="332" y="746"/>
      <point x="294" y="709"/>
      <point x="250" y="680" type="curve"/>
      <point x="260" y="710"/>
      <point x="269" y="744"/>
      <point x="269" y="753" type="curve" smooth="yes"/>
      <point x="269" y="768"/>
      <point x="248" y="786"/>
      <point x="239" y="786" type="curve" smooth="yes"/>
      <point x="231" y="786"/>
      <point x="227" y="783"/>
      <point x="227" y="772" type="curve" smooth="yes"/>
      <point x="227" y="760"/>
      <point x="227" y="715"/>
      <point x="225" y="683" type="curve"/>
      <point x="207" y="691"/>
      <point x="175" y="732"/>
      <point x="169" y="739" type="curve" smooth="yes"/>
      <point x="160" y="750"/>
      <point x="140" y="753"/>
      <point x="125" y="753" type="curve" smooth="yes"/>
      <point x="116" y="753"/>
      <point x="115" y="748"/>
      <point x="115" y="742" type="curve" smooth="yes"/>
      <point x="115" y="725"/>
      <point x="182" y="675"/>
      <point x="213" y="664" type="curve"/>
      <point x="162" y="633"/>
      <point x="106" y="617"/>
      <point x="106" y="607" type="curve" smooth="yes"/>
      <point x="106" y="597"/>
      <point x="116" y="586"/>
      <point x="127" y="586" type="curve" smooth="yes"/>
      <point x="137" y="586"/>
      <point x="198" y="622"/>
      <point x="220" y="643" type="curve"/>
      <point x="213" y="607"/>
      <point x="193" y="564"/>
      <point x="193" y="554" type="curve" smooth="yes"/>
      <point x="193" y="548"/>
      <point x="202" y="536"/>
      <point x="211" y="536" type="curve" smooth="yes"/>
      <point x="224" y="536"/>
      <point x="240" y="614"/>
      <point x="244" y="643" type="curve"/>
      <point x="276" y="615"/>
      <point x="313" y="587"/>
      <point x="326" y="587" type="curve" smooth="yes"/>
      <point x="334" y="587"/>
      <point x="346" y="596"/>
      <point x="346" y="604" type="curve" smooth="yes"/>
      <point x="346" y="616"/>
      <point x="292" y="636"/>
      <point x="258" y="663" type="curve"/>
    </contour>
  </outline>
</glyph>
<glyph name="plus" format="1">
  <advance width="600"/>
  <unicode hex="002B"/>
  <outline>
    <contour>
      <point x="311" y="287"/>
      <point x="591" y="322"/>
      <point x="591" y="356" type="curve" smooth="yes"/>
      <point x="591" y="369"/>
      <point x="574" y="375"/>
      <point x="549" y="375" type="curve" smooth="yes"/>
      <point x="491" y="375"/>
      <point x="359" y="349"/>
      <point x="186" y="349" type="curve" smooth="yes"/>
      <point x="131" y="349"/>
      <point x="92" y="351"/>
      <point x="81" y="351" type="curve" smooth="yes"/>
      <point x="66" y="351"/>
      <point x="55" y="346"/>
      <point x="55" y="333" type="curve" smooth="yes"/>
      <point x="55" y="312"/>
      <point x="82" y="287"/>
      <point x="109" y="287" type="curve" smooth="yes"/>
    </contour>
    <contour>
      <point x="360" y="418"/>
      <point x="376" y="476"/>
      <point x="376" y="505" type="curve" smooth="yes"/>
      <point x="376" y="526"/>
      <point x="340" y="562"/>
      <point x="327" y="562" type="curve" smooth="yes"/>
      <point x="319" y="562"/>
      <point x="312" y="555"/>
      <point x="310" y="534" type="curve" smooth="yes"/>
      <point x="273" y="216"/>
      <point x="253" y="151"/>
      <point x="253" y="116" type="curve" smooth="yes"/>
      <point x="253" y="92"/>
      <point x="267" y="69"/>
      <point x="280" y="69" type="curve" smooth="yes"/>
      <point x="300" y="69"/>
      <point x="307" y="156"/>
      <point x="338" y="314" type="curve" smooth="yes"/>
    </contour>
  </outline>
</glyph>
<glyph name="comma" format="1">
  <advance width="210"/>
  <unicode hex="002C"/>
  <outline>
    <contour>
      <point x="15" y="-150" type="curve" smooth="yes"/>
      <point x="56" y="-150"/>
      <point x="148" y="-47"/>
      <point x="148" y="30" type="curve" smooth="yes"/>
      <point x="148" y="75"/>
      <point x="115" y="111"/>
      <point x="79" y="111" type="curve" smooth="yes"/>
      <point x="59" y="111"/>
      <point x="43" y="81"/>
      <point x="43" y="66" type="curve" smooth="yes"/>
      <point x="43" y="43"/>
      <point x="84" y="45"/>
      <point x="84" y="15" type="curve" smooth="yes"/>
      <point x="84" y="-65"/>
      <point x="0" y="-109"/>
      <point x="0" y="-139" type="curve" smooth="yes"/>
      <point x="0" y="-147"/>
      <point x="5" y="-150"/>
    </contour>
  </outline>
</glyph>
<glyph name="period" format="1">
  <advance width="237"/>
  <unicode hex="002E"/>
  <outline>
    <contour>
      <point x="68" y="72" type="curve" smooth="yes"/>
      <point x="68" y="44"/>
      <point x="116" y="-6"/>
      <point x="146" y="-6" type="curve" smooth="yes"/>
      <point x="155" y="-6"/>
      <point x="166" y="4"/>
      <point x="166" y="9" type="curve" smooth="yes"/>
      <point x="166" y="36"/>
      <point x="131" y="122"/>
      <point x="109" y="122" type="curve" smooth="yes"/>
      <point x="90" y="122"/>
      <point x="68" y="92"/>
    </contour>
  </outline>
</glyph>
<glyph name="slash" format="1">
  <advance width="392"/>
  <unicode hex="002F"/>
  <outline>
    <contour>
      <point x="69" y="-75"/>
      <point x="83" y="-41"/>
      <point x="220" y="288" type="curve" smooth="yes"/>
      <point x="285" y="444"/>
      <point x="407" y="654"/>
      <point x="407" y="707" type="curve" smooth="yes"/>
      <point x="407" y="728"/>
      <point x="381" y="763"/>
      <point x="371" y="763" type="curve" smooth="yes"/>
      <point x="361" y="763"/>
      <point x="360" y="756"/>
      <point x="350" y="734" type="curve" smooth="yes"/>
      <point x="108" y="196"/>
      <point x="26" y="-2"/>
      <point x="26" y="-39" type="curve" smooth="yes"/>
      <point x="26" y="-50"/>
      <point x="47" y="-75"/>
      <point x="56" y="-75" type="curve" smooth="yes"/>
    </contour>
  </outline>
</glyph>
<glyph name="zero" format="1">
  <advance width="493"/>
  <unicode hex="0030"/>
  <outline>
    <contour>
      <point x="62" y="185" type="curve" smooth="yes"/>
      <point x="62" y="92"/>
      <point x="130" y="20"/>
      <point x="195" y="20" type="curve" smooth="yes"/>
      <point x="308" y="20"/>
      <point x="445" y="270"/>
      <point x="445" y="474" type="curve" smooth="yes"/>
      <point x="445" y="634"/>
      <point x="407" y="716"/>
      <point x="336" y="716" type="curve" smooth="yes"/>
      <point x="213" y="716"/>
      <point x="62" y="431"/>
    </contour>
    <contour>
      <point x="328" y="661" type="curve" smooth="yes"/>
      <point x="365" y="661"/>
      <point x="383" y="595"/>
      <point x="383" y="470" type="curve" smooth="yes"/>
      <point x="383" y="303"/>
      <point x="264" y="77"/>
      <point x="202" y="77" type="curve" smooth="yes"/>
      <point x="140" y="77"/>
      <point x="126" y="141"/>
      <point x="126" y="203" type="curve" smooth="yes"/>
      <point x="126" y="396"/>
      <point x="264" y="661"/>
    </contour>
  </outline>
</glyph>
<glyph name="one" format="1">
  <advance width="321"/>
  <unicode hex="0031"/>
  <outline>
    <contour>
      <point x="238" y="457"/>
      <point x="257" y="605"/>
      <point x="257" y="652" type="curve" smooth="yes"/>
      <point x="257" y="677"/>
      <point x="239" y="712"/>
      <point x="216" y="712" type="curve" smooth="yes"/>
      <point x="207" y="712"/>
      <point x="199" y="704"/>
      <point x="197" y="681" type="curve" smooth="yes"/>
      <point x="161" y="314"/>
      <point x="80" y="117"/>
      <point x="80" y="50" type="curve" smooth="yes"/>
      <point x="80" y="29"/>
      <point x="93" y="4"/>
      <point x="105" y="4" type="curve" smooth="yes"/>
      <point x="132" y="4"/>
      <point x="163" y="165"/>
      <point x="209" y="343" type="curve" smooth="yes"/>
    </contour>
  </outline>
</glyph>
<glyph name="three" format="1">
  <advance width="584"/>
  <unicode hex="0033"/>
  <outline>
    <contour>
      <point x="278" y="344"/>
      <point x="543" y="450"/>
      <point x="543" y="572" type="curve" smooth="yes"/>
      <point x="543" y="640"/>
      <point x="484" y="706"/>
      <point x="398" y="706" type="curve" smooth="yes"/>
      <point x="328" y="706"/>
      <point x="193" y="653"/>
      <point x="193" y="621" type="curve" smooth="yes"/>
      <point x="193" y="610"/>
      <point x="221" y="586"/>
      <point x="232" y="586" type="curve" smooth="yes"/>
      <point x="246" y="586"/>
      <point x="330" y="650"/>
      <point x="405" y="650" type="curve" smooth="yes"/>
      <point x="471" y="650"/>
      <point x="479" y="608"/>
      <point x="479" y="585" type="curve" smooth="yes"/>
      <point x="479" y="451"/>
      <point x="199" y="393"/>
      <point x="199" y="350" type="curve" smooth="yes"/>
      <point x="199" y="344"/>
      <point x="208" y="344"/>
      <point x="228" y="344" type="curve" smooth="yes"/>
    </contour>
    <contour>
      <point x="67" y="26"/>
      <point x="94" y="18"/>
      <point x="163" y="18" type="curve" smooth="yes"/>
      <point x="325" y="18"/>
      <point x="535" y="112"/>
      <point x="535" y="231" type="curve" smooth="yes"/>
      <point x="535" y="316"/>
      <point x="396" y="361"/>
      <point x="240" y="361" type="curve" smooth="yes"/>
      <point x="209" y="361"/>
      <point x="197" y="361"/>
      <point x="197" y="342" type="curve" smooth="yes"/>
      <point x="197" y="315"/>
      <point x="458" y="315"/>
      <point x="458" y="234" type="curve" smooth="yes"/>
      <point x="458" y="72"/>
      <point x="67" y="66"/>
      <point x="67" y="45" type="curve" smooth="yes"/>
    </contour>
  </outline>
</glyph>
<glyph name="four" format="1">
  <advance width="554"/>
  <unicode hex="0034"/>
  <outline>
    <contour>
      <point x="466" y="302" type="curve" smooth="yes"/>
      <point x="466" y="308"/>
      <point x="461" y="319"/>
      <point x="453" y="319" type="curve" smooth="yes"/>
      <point x="437" y="319"/>
      <point x="306" y="260"/>
      <point x="223" y="260" type="curve" smooth="yes"/>
      <point x="177" y="260"/>
      <point x="148" y="280"/>
      <point x="148" y="336" type="curve" smooth="yes"/>
      <point x="148" y="471"/>
      <point x="373" y="652"/>
      <point x="373" y="685" type="curve" smooth="yes"/>
      <point x="373" y="702"/>
      <point x="360" y="707"/>
      <point x="342" y="707" type="curve" smooth="yes"/>
      <point x="305" y="707"/>
      <point x="86" y="469"/>
      <point x="86" y="331" type="curve" smooth="yes"/>
      <point x="86" y="248"/>
      <point x="151" y="206"/>
      <point x="221" y="206" type="curve" smooth="yes"/>
      <point x="317" y="206"/>
      <point x="466" y="272"/>
    </contour>
    <contour>
      <point x="454" y="507" type="curve" smooth="yes"/>
      <point x="443" y="507"/>
      <point x="437" y="497"/>
      <point x="437" y="474" type="curve" smooth="yes"/>
      <point x="437" y="217"/>
      <point x="351" y="67"/>
      <point x="351" y="18" type="curve" smooth="yes"/>
      <point x="351" y="0"/>
      <point x="356" y="-8"/>
      <point x="365" y="-8" type="curve" smooth="yes"/>
      <point x="408" y="-8"/>
      <point x="498" y="314"/>
      <point x="498" y="457" type="curve" smooth="yes"/>
      <point x="498" y="483"/>
      <point x="466" y="507"/>
    </contour>
  </outline>
</glyph>
<glyph name="five" format="1">
  <advance width="553"/>
  <unicode hex="0035"/>
  <outline>
    <contour>
      <point x="598" y="701"/>
      <point x="545" y="703"/>
      <point x="471" y="703" type="curve" smooth="yes"/>
      <point x="401" y="703"/>
      <point x="320" y="691"/>
      <point x="291" y="680" type="curve"/>
      <point x="260" y="671"/>
      <point x="176" y="553"/>
      <point x="176" y="496" type="curve" smooth="yes"/>
      <point x="176" y="376"/>
      <point x="394" y="336"/>
      <point x="394" y="234" type="curve" smooth="yes"/>
      <point x="394" y="163"/>
      <point x="284" y="79"/>
      <point x="213" y="79" type="curve" smooth="yes"/>
      <point x="145" y="79"/>
      <point x="72" y="178"/>
      <point x="63" y="178" type="curve" smooth="yes"/>
      <point x="55" y="178"/>
      <point x="51" y="169"/>
      <point x="51" y="159" type="curve" smooth="yes"/>
      <point x="51" y="113"/>
      <point x="127" y="26"/>
      <point x="220" y="26" type="curve" smooth="yes"/>
      <point x="333" y="26"/>
      <point x="455" y="140"/>
      <point x="455" y="246" type="curve" smooth="yes"/>
      <point x="455" y="346"/>
      <point x="240" y="417"/>
      <point x="240" y="492" type="curve" smooth="yes"/>
      <point x="240" y="521"/>
      <point x="293" y="623"/>
      <point x="323" y="629" type="curve" smooth="yes"/>
      <point x="373" y="640"/>
      <point x="598" y="659"/>
      <point x="598" y="680" type="curve" smooth="yes"/>
    </contour>
  </outline>
</glyph>
<glyph name="six" format="1">
  <advance width="564"/>
  <unicode hex="0036"/>
  <outline>
    <contour>
      <point x="66" y="168" type="curve" smooth="yes"/>
      <point x="66" y="79"/>
      <point x="124" y="21"/>
      <point x="202" y="21" type="curve" smooth="yes"/>
      <point x="331" y="21"/>
      <point x="479" y="129"/>
      <point x="479" y="238" type="curve" smooth="yes"/>
      <point x="479" y="305"/>
      <point x="375" y="393"/>
      <point x="192" y="405" type="curve"/>
      <point x="168" y="366" type="line"/>
      <point x="321" y="353"/>
      <point x="415" y="292"/>
      <point x="415" y="233" type="curve" smooth="yes"/>
      <point x="415" y="153"/>
      <point x="293" y="76"/>
      <point x="207" y="76" type="curve" smooth="yes"/>
      <point x="162" y="76"/>
      <point x="126" y="101"/>
      <point x="126" y="158" type="curve" smooth="yes"/>
      <point x="126" y="431"/>
      <point x="450" y="660"/>
      <point x="450" y="686" type="curve" smooth="yes"/>
      <point x="450" y="696"/>
      <point x="427" y="708"/>
      <point x="409" y="708" type="curve" smooth="yes"/>
      <point x="367" y="708"/>
      <point x="66" y="415"/>
    </contour>
  </outline>
</glyph>
<glyph name="seven" format="1">
  <advance width="455"/>
  <unicode hex="0037"/>
  <outline>
    <contour>
      <point x="431" y="704"/>
      <point x="370" y="707"/>
      <point x="337" y="707" type="curve" smooth="yes"/>
      <point x="278" y="707"/>
      <point x="106" y="682"/>
      <point x="106" y="675" type="curve" smooth="yes"/>
      <point x="106" y="655"/>
      <point x="138" y="621"/>
      <point x="157" y="621" type="curve" smooth="yes"/>
      <point x="208" y="621"/>
      <point x="310" y="648"/>
      <point x="372" y="648" type="curve" smooth="yes"/>
      <point x="401" y="648"/>
      <point x="415" y="636"/>
      <point x="415" y="625" type="curve" smooth="yes"/>
      <point x="415" y="572"/>
      <point x="107" y="123"/>
      <point x="107" y="59" type="curve" smooth="yes"/>
      <point x="107" y="45"/>
      <point x="118" y="20"/>
      <point x="128" y="20" type="curve" smooth="yes"/>
      <point x="149" y="20"/>
      <point x="221" y="173"/>
      <point x="313" y="327" type="curve" smooth="yes"/>
      <point x="370" y="423"/>
      <point x="478" y="580"/>
      <point x="478" y="623" type="curve" smooth="yes"/>
      <point x="478" y="647"/>
      <point x="467" y="681"/>
      <point x="448" y="693" type="curve" smooth="yes"/>
    </contour>
  </outline>
</glyph>
<glyph name="eight" format="1">
  <advance width="608"/>
  <unicode hex="0038"/>
  <outline>
    <contour>
      <point x="165" y="257"/>
      <point x="607" y="468"/>
      <point x="607" y="614" type="curve" smooth="yes"/>
      <point x="607" y="676"/>
      <point x="556" y="720"/>
      <point x="470" y="720" type="curve" smooth="yes"/>
      <point x="368" y="720"/>
      <point x="230" y="683"/>
      <point x="230" y="656" type="curve" smooth="yes"/>
      <point x="230" y="641"/>
      <point x="263" y="619"/>
      <point x="281" y="619" type="curve" smooth="yes"/>
      <point x="314" y="619"/>
      <point x="396" y="662"/>
      <point x="480" y="662" type="curve" smooth="yes"/>
      <point x="532" y="662"/>
      <point x="545" y="639"/>
      <point x="545" y="619" type="curve" smooth="yes"/>
      <point x="545" y="514"/>
      <point x="103" y="276"/>
      <point x="103" y="139" type="curve" smooth="yes"/>
      <point x="103" y="75"/>
      <point x="178" y="25"/>
      <point x="236" y="25" type="curve" smooth="yes"/>
      <point x="342" y="25"/>
      <point x="494" y="122"/>
      <point x="494" y="227" type="curve" smooth="yes"/>
      <point x="494" y="324"/>
      <point x="274" y="461"/>
      <point x="141" y="579" type="curve" smooth="yes"/>
      <point x="126" y="592"/>
      <point x="117" y="601"/>
      <point x="112" y="601" type="curve" smooth="yes"/>
      <point x="104" y="601"/>
      <point x="100" y="586"/>
      <point x="100" y="569" type="curve" smooth="yes"/>
      <point x="100" y="496"/>
      <point x="430" y="312"/>
      <point x="430" y="235" type="curve" smooth="yes"/>
      <point x="430" y="150"/>
      <point x="314" y="78"/>
      <point x="235" y="78" type="curve" smooth="yes"/>
      <point x="193" y="78"/>
      <point x="165" y="108"/>
      <point x="165" y="138" type="curve" smooth="yes"/>
    </contour>
  </outline>
</glyph>
<glyph name="nine" format="1">
  <advance width="478"/>
  <unicode hex="0039"/>
  <outline>
    <contour>
      <point x="71" y="411" type="curve" smooth="yes"/>
      <point x="71" y="340"/>
      <point x="122" y="287"/>
      <point x="192" y="287" type="curve" smooth="yes"/>
      <point x="305" y="287"/>
      <point x="442" y="462"/>
      <point x="442" y="534" type="curve" smooth="yes"/>
      <point x="442" y="547"/>
      <point x="438" y="551"/>
      <point x="424" y="551" type="curve" smooth="yes"/>
      <point x="393" y="551"/>
      <point x="323" y="342"/>
      <point x="195" y="342" type="curve" smooth="yes"/>
      <point x="159" y="342"/>
      <point x="127" y="363"/>
      <point x="127" y="404" type="curve" smooth="yes"/>
      <point x="127" y="482"/>
      <point x="237" y="650"/>
      <point x="336" y="650" type="curve" smooth="yes"/>
      <point x="370" y="650"/>
      <point x="386" y="629"/>
      <point x="386" y="598" type="curve" smooth="yes"/>
      <point x="386" y="575"/>
      <point x="374" y="551"/>
      <point x="374" y="532" type="curve" smooth="yes"/>
      <point x="374" y="522"/>
      <point x="382" y="516"/>
      <point x="395" y="516" type="curve" smooth="yes"/>
      <point x="421" y="516"/>
      <point x="440" y="562"/>
      <point x="440" y="604" type="curve" smooth="yes"/>
      <point x="440" y="659"/>
      <point x="401" y="710"/>
      <point x="337" y="710" type="curve" smooth="yes"/>
      <point x="209" y="710"/>
      <point x="71" y="524"/>
    </contour>
    <contour>
      <point x="430" y="553" type="curve" smooth="yes"/>
      <point x="413" y="553"/>
      <point x="285" y="174"/>
      <point x="285" y="63" type="curve" smooth="yes"/>
      <point x="285" y="31"/>
      <point x="294" y="9"/>
      <point x="313" y="9" type="curve" smooth="yes"/>
      <point x="337" y="9"/>
      <point x="338" y="153"/>
      <point x="393" y="321" type="curve" smooth="yes"/>
      <point x="427" y="425"/>
      <point x="456" y="479"/>
      <point x="456" y="514" type="curve" smooth="yes"/>
      <point x="456" y="533"/>
      <point x="451" y="553"/>
    </contour>
  </outline>
</glyph>
<glyph name="colon" format="1">
  <advance width="246"/>
  <unicode hex="003A"/>
  <outline>
    <contour>
      <point x="35" y="76" type="curve" smooth="yes"/>
      <point x="35" y="48"/>
      <point x="83" y="-6"/>
      <point x="112" y="-6" type="curve" smooth="yes"/>
      <point x="121" y="-6"/>
      <point x="130" y="3"/>
      <point x="130" y="9" type="curve" smooth="yes"/>
      <point x="130" y="38"/>
      <point x="97" y="129"/>
      <point x="73" y="129" type="curve" smooth="yes"/>
      <point x="55" y="129"/>
      <point x="35" y="98"/>
    </contour>
    <contour>
      <point x="128" y="446" type="curve" smooth="yes"/>
      <point x="128" y="418"/>
      <point x="176" y="363"/>
      <point x="205" y="363" type="curve" smooth="yes"/>
      <point x="214" y="363"/>
      <point x="224" y="372"/>
      <point x="224" y="379" type="curve" smooth="yes"/>
      <point x="224" y="407"/>
      <point x="191" y="499"/>
      <point x="166" y="499" type="curve" smooth="yes"/>
      <point x="148" y="499"/>
      <point x="128" y="467"/>
    </contour>
  </outline>
</glyph>
<glyph name="semicolon" format="1">
  <advance width="306"/>
  <unicode hex="003B"/>
  <outline>
    <contour>
      <point x="131" y="418"/>
      <point x="179" y="363"/>
      <point x="208" y="363" type="curve" smooth="yes"/>
      <point x="218" y="363"/>
      <point x="227" y="372"/>
      <point x="227" y="379" type="curve" smooth="yes"/>
      <point x="227" y="407"/>
      <point x="194" y="499"/>
      <point x="169" y="499" type="curve" smooth="yes"/>
      <point x="152" y="499"/>
      <point x="131" y="467"/>
      <point x="131" y="446" type="curve" smooth="yes"/>
    </contour>
    <contour>
      <point x="51" y="-182"/>
      <point x="143" y="-79"/>
      <point x="143" y="-2" type="curve" smooth="yes"/>
      <point x="143" y="43"/>
      <point x="110" y="79"/>
      <point x="74" y="79" type="curve" smooth="yes"/>
      <point x="54" y="79"/>
      <point x="38" y="49"/>
      <point x="38" y="34" type="curve" smooth="yes"/>
      <point x="38" y="11"/>
      <point x="79" y="13"/>
      <point x="79" y="-17" type="curve" smooth="yes"/>
      <point x="79" y="-97"/>
      <point x="-5" y="-141"/>
      <point x="-5" y="-171" type="curve" smooth="yes"/>
      <point x="-5" y="-179"/>
      <point x="0" y="-182"/>
      <point x="10" y="-182" type="curve" smooth="yes"/>
    </contour>
  </outline>
</glyph>
<glyph name="less" format="1">
  <advance width="574"/>
  <unicode hex="003C"/>
  <outline>
    <contour>
      <point x="458" y="508"/>
      <point x="216" y="409"/>
      <point x="155" y="361" type="curve" smooth="yes"/>
      <point x="140" y="349"/>
      <point x="119" y="318"/>
      <point x="119" y="299" type="curve" smooth="yes"/>
      <point x="119" y="251"/>
      <point x="410" y="125"/>
      <point x="473" y="125" type="curve" smooth="yes"/>
      <point x="494" y="125"/>
      <point x="504" y="129"/>
      <point x="504" y="140" type="curve" smooth="yes"/>
      <point x="504" y="169"/>
      <point x="197" y="274"/>
      <point x="197" y="307" type="curve" smooth="yes"/>
      <point x="197" y="342"/>
      <point x="425" y="424"/>
      <point x="522" y="456" type="curve" smooth="yes"/>
      <point x="541" y="462"/>
      <point x="560" y="465"/>
      <point x="560" y="480" type="curve" smooth="yes"/>
      <point x="560" y="489"/>
      <point x="550" y="508"/>
      <point x="521" y="508" type="curve" smooth="yes"/>
    </contour>
  </outline>
</glyph>
<glyph name="equal" format="1">
  <advance width="609"/>
  <unicode hex="003D"/>
  <outline>
    <contour>
      <point x="584" y="481"/>
      <point x="560" y="489"/>
      <point x="524" y="489" type="curve" smooth="yes"/>
      <point x="480" y="489"/>
      <point x="82" y="459"/>
      <point x="81" y="430" type="curve" smooth="yes"/>
      <point x="81" y="418"/>
      <point x="94" y="394"/>
      <point x="109" y="394" type="curve" smooth="yes"/>
      <point x="134" y="394"/>
      <point x="287" y="410"/>
      <point x="415" y="426" type="curve" smooth="yes"/>
      <point x="559" y="444"/>
      <point x="584" y="450"/>
      <point x="584" y="466" type="curve" smooth="yes"/>
    </contour>
    <contour>
      <point x="559" y="285"/>
      <point x="537" y="294"/>
      <point x="503" y="294" type="curve" smooth="yes"/>
      <point x="460" y="294"/>
      <point x="55" y="259"/>
      <point x="55" y="232" type="curve" smooth="yes"/>
      <point x="55" y="221"/>
      <point x="68" y="197"/>
      <point x="82" y="196" type="curve" smooth="yes"/>
      <point x="110" y="196"/>
      <point x="246" y="209"/>
      <point x="335" y="221" type="curve" smooth="yes"/>
      <point x="463" y="238"/>
      <point x="559" y="252"/>
      <point x="559" y="272" type="curve" smooth="yes"/>
    </contour>
  </outline>
</glyph>
<glyph name="greater" format="1">
  <advance width="531"/>
  <unicode hex="003E"/>
  <outline>
    <contour>
      <point x="134" y="498" type="curve" smooth="yes"/>
      <point x="134" y="488"/>
      <point x="156" y="456"/>
      <point x="182" y="449" type="curve" smooth="yes"/>
      <point x="241" y="432"/>
      <point x="400" y="356"/>
      <point x="400" y="321" type="curve" smooth="yes"/>
      <point x="400" y="301"/>
      <point x="82" y="168"/>
      <point x="82" y="134" type="curve" smooth="yes"/>
      <point x="82" y="127"/>
      <point x="87" y="122"/>
      <point x="103" y="122" type="curve" smooth="yes"/>
      <point x="129" y="122"/>
      <point x="181" y="136"/>
      <point x="294" y="194" type="curve" smooth="yes"/>
      <point x="380" y="237"/>
      <point x="473" y="276"/>
      <point x="473" y="310" type="curve" smooth="yes"/>
      <point x="473" y="324"/>
      <point x="460" y="350"/>
      <point x="446" y="364" type="curve" smooth="yes"/>
      <point x="382" y="425"/>
      <point x="237" y="507"/>
      <point x="156" y="508" type="curve" smooth="yes"/>
      <point x="144" y="508"/>
      <point x="134" y="506"/>
    </contour>
  </outline>
</glyph>
<glyph name="question" format="1">
  <advance width="469"/>
  <unicode hex="003F"/>
  <outline>
    <contour>
      <point x="456" y="631" type="curve" smooth="yes"/>
      <point x="456" y="725"/>
      <point x="384" y="781"/>
      <point x="302" y="781" type="curve" smooth="yes"/>
      <point x="221" y="781"/>
      <point x="150" y="716"/>
      <point x="150" y="646" type="curve" smooth="yes"/>
      <point x="150" y="626"/>
      <point x="174" y="592"/>
      <point x="186" y="592" type="curve" smooth="yes"/>
      <point x="198" y="592"/>
      <point x="217" y="598"/>
      <point x="217" y="608" type="curve" smooth="yes"/>
      <point x="217" y="621"/>
      <point x="209" y="622"/>
      <point x="209" y="642" type="curve" smooth="yes"/>
      <point x="209" y="689"/>
      <point x="255" y="722"/>
      <point x="302" y="722" type="curve" smooth="yes"/>
      <point x="349" y="722"/>
      <point x="393" y="687"/>
      <point x="393" y="634" type="curve" smooth="yes"/>
      <point x="393" y="516"/>
      <point x="178" y="402"/>
      <point x="178" y="282" type="curve" smooth="yes"/>
      <point x="178" y="258"/>
      <point x="185" y="235"/>
      <point x="198" y="235" type="curve" smooth="yes"/>
      <point x="210" y="235"/>
      <point x="217" y="249"/>
      <point x="239" y="304" type="curve" smooth="yes"/>
      <point x="281" y="409"/>
      <point x="456" y="518"/>
    </contour>
    <contour>
      <point x="113" y="72" type="curve" smooth="yes"/>
      <point x="113" y="44"/>
      <point x="161" y="-5"/>
      <point x="190" y="-5" type="curve" smooth="yes"/>
      <point x="199" y="-5"/>
      <point x="209" y="4"/>
      <point x="209" y="9" type="curve" smooth="yes"/>
      <point x="209" y="36"/>
      <point x="175" y="122"/>
      <point x="153" y="122" type="curve" smooth="yes"/>
      <point x="134" y="122"/>
      <point x="113" y="92"/>
    </contour>
  </outline>
</glyph>
<glyph name="at" format="1">
  <advance width="904"/>
  <unicode hex="0040"/>
  <outline>
    <contour>
      <point x="577" y="710" type="curve" smooth="yes"/>
      <point x="252" y="710"/>
      <point x="41" y="362"/>
      <point x="41" y="112" type="curve" smooth="yes"/>
      <point x="41" y="-35"/>
      <point x="144" y="-165"/>
      <point x="319" y="-165" type="curve" smooth="yes"/>
      <point x="429" y="-165"/>
      <point x="590" y="-116"/>
      <point x="590" y="-70" type="curve" smooth="yes"/>
      <point x="590" y="-65"/>
      <point x="587" y="-62"/>
      <point x="582" y="-62" type="curve" smooth="yes"/>
      <point x="557" y="-62"/>
      <point x="483" y="-114"/>
      <point x="320" y="-114" type="curve" smooth="yes"/>
      <point x="190" y="-114"/>
      <point x="100" y="-19"/>
      <point x="100" y="114" type="curve" smooth="yes"/>
      <point x="100" y="346"/>
      <point x="300" y="658"/>
      <point x="579" y="658" type="curve" smooth="yes"/>
      <point x="749" y="658"/>
      <point x="804" y="531"/>
      <point x="804" y="395" type="curve" smooth="yes"/>
      <point x="804" y="248"/>
      <point x="688" y="117"/>
      <point x="621" y="117" type="curve" smooth="yes"/>
      <point x="591" y="117"/>
      <point x="575" y="147"/>
      <point x="575" y="172" type="curve" smooth="yes"/>
      <point x="575" y="228"/>
      <point x="618" y="290"/>
      <point x="618" y="311" type="curve" smooth="yes"/>
      <point x="618" y="330"/>
      <point x="604" y="345"/>
      <point x="589" y="345" type="curve" smooth="yes"/>
      <point x="576" y="345"/>
      <point x="569" y="337"/>
      <point x="567" y="327" type="curve" smooth="yes"/>
      <point x="534" y="193"/>
      <point x="446" y="91"/>
      <point x="376" y="91" type="curve" smooth="yes"/>
      <point x="347" y="91"/>
      <point x="309" y="114"/>
      <point x="309" y="148" type="curve" smooth="yes"/>
      <point x="309" y="250"/>
      <point x="455" y="468"/>
      <point x="535" y="468" type="curve" smooth="yes"/>
      <point x="570" y="468"/>
      <point x="584" y="416"/>
      <point x="584" y="374" type="curve" smooth="yes"/>
      <point x="584" y="339"/>
      <point x="586" y="330"/>
      <point x="597" y="330" type="curve" smooth="yes"/>
      <point x="607" y="330"/>
      <point x="631" y="366"/>
      <point x="631" y="398" type="curve" smooth="yes"/>
      <point x="631" y="436"/>
      <point x="598" y="517"/>
      <point x="530" y="517" type="curve" smooth="yes"/>
      <point x="412" y="517"/>
      <point x="253" y="277"/>
      <point x="253" y="149" type="curve" smooth="yes"/>
      <point x="253" y="95"/>
      <point x="320" y="42"/>
      <point x="381" y="42" type="curve" smooth="yes"/>
      <point x="430" y="42"/>
      <point x="489" y="81"/>
      <point x="543" y="155" type="curve"/>
      <point x="539" y="180" type="line"/>
      <point x="534" y="174"/>
      <point x="529" y="166"/>
      <point x="529" y="153" type="curve" smooth="yes"/>
      <point x="529" y="99"/>
      <point x="569" y="68"/>
      <point x="608" y="68" type="curve" smooth="yes"/>
      <point x="730" y="68"/>
      <point x="864" y="235"/>
      <point x="864" y="401" type="curve" smooth="yes"/>
      <point x="864" y="569"/>
      <point x="767" y="710"/>
    </contour>
  </outline>
</glyph>
<glyph name="C" format="1">
  <advance width="589"/>
  <unicode hex="0043"/>
  <outline>
    <contour>
      <point x="560" y="660"/>
      <point x="521" y="702"/>
      <point x="487" y="702" type="curve" smooth="yes"/>
      <point x="301" y="702"/>
      <point x="81" y="395"/>
      <point x="81" y="207" type="curve" smooth="yes"/>
      <point x="81" y="103"/>
      <point x="176" y="25"/>
      <point x="271" y="25" type="curve" smooth="yes"/>
      <point x="380" y="25"/>
      <point x="533" y="132"/>
      <point x="533" y="164" type="curve" smooth="yes"/>
      <point x="533" y="171"/>
      <point x="526" y="178"/>
      <point x="521" y="178" type="curve" smooth="yes"/>
      <point x="489" y="178"/>
      <point x="412" y="89"/>
      <point x="273" y="89" type="curve" smooth="yes"/>
      <point x="210" y="89"/>
      <point x="145" y="129"/>
      <point x="145" y="206" type="curve" smooth="yes"/>
      <point x="145" y="406"/>
      <point x="379" y="641"/>
      <point x="485" y="641" type="curve" smooth="yes"/>
      <point x="520" y="641"/>
      <point x="538" y="623"/>
      <point x="555" y="623" type="curve" smooth="yes"/>
      <point x="559" y="623"/>
      <point x="560" y="624"/>
      <point x="560" y="633" type="curve" smooth="yes"/>
    </contour>
    <contour>
      <point x="276" y="0" type="move" name="cedilla"/>
    </contour>
    <contour>
      <point x="504" y="683" type="move" name="top"/>
    </contour>
  </outline>
</glyph>
<glyph name="D" format="1">
  <advance width="633"/>
  <unicode hex="0044"/>
  <outline>
    <contour>
      <point x="239" y="435"/>
      <point x="268" y="529"/>
      <point x="268" y="576" type="curve" smooth="yes"/>
      <point x="268" y="629"/>
      <point x="243" y="656"/>
      <point x="226" y="656" type="curve" smooth="yes"/>
      <point x="211" y="656"/>
      <point x="211" y="643"/>
      <point x="211" y="619" type="curve" smooth="yes"/>
      <point x="211" y="508"/>
      <point x="95" y="180"/>
      <point x="95" y="97" type="curve" smooth="yes"/>
      <point x="95" y="56"/>
      <point x="124" y="15"/>
      <point x="150" y="15" type="curve" smooth="yes"/>
      <point x="297" y="15"/>
      <point x="598" y="224"/>
      <point x="598" y="356" type="curve" smooth="yes"/>
      <point x="598" y="544"/>
      <point x="346" y="707"/>
      <point x="173" y="707" type="curve" smooth="yes"/>
      <point x="161" y="707"/>
      <point x="153" y="702"/>
      <point x="153" y="689" type="curve" smooth="yes"/>
      <point x="153" y="670"/>
      <point x="177" y="648"/>
      <point x="228" y="639" type="curve" smooth="yes"/>
      <point x="386" y="611"/>
      <point x="534" y="471"/>
      <point x="534" y="358" type="curve" smooth="yes"/>
      <point x="534" y="283"/>
      <point x="311" y="84"/>
      <point x="155" y="77" type="curve"/>
      <point x="161" y="130"/>
      <point x="175" y="205"/>
      <point x="190" y="256" type="curve" smooth="yes"/>
    </contour>
    <contour>
      <point x="445" y="633" type="move" name="top"/>
    </contour>
  </outline>
</glyph>
<glyph name="F" format="1">
  <advance width="512"/>
  <unicode hex="0046"/>
  <outline>
    <contour>
      <point x="64" y="49"/>
      <point x="87" y="17"/>
      <point x="99" y="17" type="curve" smooth="yes"/>
      <point x="109" y="17"/>
      <point x="123" y="70"/>
      <point x="138" y="129" type="curve" smooth="yes"/>
      <point x="162" y="225"/>
      <point x="246" y="522"/>
      <point x="246" y="619" type="curve" smooth="yes"/>
      <point x="246" y="646"/>
      <point x="231" y="680"/>
      <point x="217" y="680" type="curve" smooth="yes"/>
      <point x="208" y="680"/>
      <point x="190" y="671"/>
      <point x="189" y="641" type="curve" smooth="yes"/>
      <point x="184" y="482"/>
      <point x="64" y="109"/>
      <point x="64" y="69" type="curve" smooth="yes"/>
    </contour>
    <contour>
      <point x="144" y="355"/>
      <point x="158" y="334"/>
      <point x="197" y="334" type="curve" smooth="yes"/>
      <point x="360" y="334"/>
      <point x="464" y="366"/>
      <point x="464" y="388" type="curve" smooth="yes"/>
      <point x="464" y="394"/>
      <point x="451" y="397"/>
      <point x="427" y="397" type="curve" smooth="yes"/>
      <point x="392" y="397"/>
      <point x="350" y="390"/>
      <point x="266" y="388" type="curve" smooth="yes"/>
      <point x="247" y="387"/>
      <point x="226" y="387"/>
      <point x="203" y="387" type="curve" smooth="yes"/>
      <point x="170" y="387"/>
      <point x="144" y="383"/>
      <point x="144" y="369" type="curve" smooth="yes"/>
    </contour>
    <contour>
      <point x="195" y="647"/>
      <point x="205" y="632"/>
      <point x="227" y="632" type="curve" smooth="yes"/>
      <point x="255" y="632"/>
      <point x="304" y="638"/>
      <point x="373" y="645" type="curve" smooth="yes"/>
      <point x="497" y="658"/>
      <point x="588" y="659"/>
      <point x="588" y="680" type="curve" smooth="yes"/>
      <point x="588" y="694"/>
      <point x="505" y="701"/>
      <point x="400" y="701" type="curve" smooth="yes"/>
      <point x="242" y="701"/>
      <point x="195" y="682"/>
      <point x="195" y="661" type="curve" smooth="yes"/>
    </contour>
  </outline>
</glyph>
<glyph name="H" format="1">
  <advance width="680"/>
  <unicode hex="0048"/>
  <outline>
    <contour>
      <point x="75" y="42"/>
      <point x="97" y="19"/>
      <point x="105" y="19" type="curve"/>
      <point x="122" y="19"/>
      <point x="154" y="163"/>
      <point x="189" y="287" type="curve" smooth="yes"/>
      <point x="238" y="459"/>
      <point x="268" y="600"/>
      <point x="268" y="637" type="curve" smooth="yes"/>
      <point x="268" y="673"/>
      <point x="243" y="707"/>
      <point x="228" y="707" type="curve" smooth="yes"/>
      <point x="217" y="707"/>
      <point x="213" y="702"/>
      <point x="213" y="678" type="curve" smooth="yes"/>
      <point x="213" y="561"/>
      <point x="75" y="137"/>
      <point x="75" y="65" type="curve" smooth="yes"/>
    </contour>
    <contour>
      <point x="434" y="44"/>
      <point x="453" y="19"/>
      <point x="463" y="19" type="curve" smooth="yes"/>
      <point x="482" y="19"/>
      <point x="512" y="163"/>
      <point x="547" y="287" type="curve" smooth="yes"/>
      <point x="596" y="459"/>
      <point x="628" y="600"/>
      <point x="628" y="637" type="curve" smooth="yes"/>
      <point x="628" y="673"/>
      <point x="602" y="707"/>
      <point x="586" y="707" type="curve" smooth="yes"/>
      <point x="574" y="707"/>
      <point x="571" y="701"/>
      <point x="571" y="678" type="curve" smooth="yes"/>
      <point x="571" y="560"/>
      <point x="434" y="135"/>
      <point x="434" y="65" type="curve"/>
    </contour>
    <contour>
      <point x="624" y="406"/>
      <point x="608" y="412"/>
      <point x="548" y="412" type="curve" smooth="yes"/>
      <point x="457" y="412"/>
      <point x="90" y="357"/>
      <point x="90" y="329" type="curve" smooth="yes"/>
      <point x="90" y="311"/>
      <point x="109" y="298"/>
      <point x="122" y="298" type="curve" smooth="yes"/>
      <point x="164" y="298"/>
      <point x="232" y="318"/>
      <point x="324" y="333" type="curve" smooth="yes"/>
      <point x="517" y="365"/>
      <point x="624" y="364"/>
      <point x="624" y="391" type="curve" smooth="yes"/>
    </contour>
  </outline>
</glyph>
<glyph name="J" format="1">
  <advance width="458"/>
  <unicode hex="004A"/>
  <outline>
    <contour>
      <point x="11" y="161"/>
      <point x="5" y="155"/>
      <point x="5" y="143" type="curve" smooth="yes"/>
      <point x="5" y="106"/>
      <point x="104" y="13"/>
      <point x="188" y="13" type="curve" smooth="yes"/>
      <point x="278" y="13"/>
      <point x="298" y="70"/>
      <point x="385" y="366" type="curve" smooth="yes"/>
      <point x="440" y="553"/>
      <point x="488" y="650"/>
      <point x="488" y="684" type="curve" smooth="yes"/>
      <point x="488" y="707"/>
      <point x="462" y="715"/>
      <point x="441" y="715" type="curve" smooth="yes"/>
      <point x="390" y="715"/>
      <point x="157" y="656"/>
      <point x="157" y="619" type="curve"/>
      <point x="157" y="609"/>
      <point x="167" y="603"/>
      <point x="187" y="603" type="curve" smooth="yes"/>
      <point x="224" y="603"/>
      <point x="318" y="644"/>
      <point x="432" y="660" type="curve"/>
      <point x="399" y="611"/>
      <point x="364" y="517"/>
      <point x="337" y="421" type="curve" smooth="yes"/>
      <point x="267" y="168"/>
      <point x="236" y="69"/>
      <point x="181" y="69" type="curve" smooth="yes"/>
      <point x="103" y="69"/>
      <point x="39" y="161"/>
      <point x="20" y="161" type="curve" smooth="yes"/>
    </contour>
  </outline>
</glyph>
<glyph name="K" format="1">
  <advance width="585"/>
  <unicode hex="004B"/>
  <outline>
    <contour>
      <point x="68" y="68" type="curve" smooth="yes"/>
      <point x="68" y="47"/>
      <point x="86" y="23"/>
      <point x="99" y="23" type="curve"/>
      <point x="109" y="23"/>
      <point x="144" y="165"/>
      <point x="179" y="288" type="curve" smooth="yes"/>
      <point x="228" y="458"/>
      <point x="257" y="598"/>
      <point x="257" y="635" type="curve" smooth="yes"/>
      <point x="257" y="667"/>
      <point x="238" y="704"/>
      <point x="218" y="704" type="curve" smooth="yes"/>
      <point x="207" y="704"/>
      <point x="205" y="699"/>
      <point x="205" y="675" type="curve" smooth="yes"/>
      <point x="205" y="558"/>
      <point x="68" y="139"/>
    </contour>
    <contour>
      <point x="590" y="679" type="curve" smooth="yes"/>
      <point x="590" y="688"/>
      <point x="574" y="702"/>
      <point x="547" y="702" type="curve" smooth="yes"/>
      <point x="500" y="702"/>
      <point x="78" y="267"/>
      <point x="78" y="79" type="curve" smooth="yes"/>
      <point x="78" y="45"/>
      <point x="94" y="23"/>
      <point x="99" y="23" type="curve" smooth="yes"/>
      <point x="115" y="23"/>
      <point x="159" y="236"/>
      <point x="233" y="310" type="curve"/>
      <point x="216" y="313" type="line"/>
      <point x="227" y="119"/>
      <point x="420" y="23"/>
      <point x="510" y="23" type="curve" smooth="yes"/>
      <point x="527" y="23"/>
      <point x="538" y="26"/>
      <point x="538" y="36" type="curve" smooth="yes"/>
      <point x="538" y="74"/>
      <point x="434" y="92"/>
      <point x="357" y="152" type="curve" smooth="yes"/>
      <point x="286" y="208"/>
      <point x="267" y="291"/>
      <point x="267" y="338" type="curve"/>
      <point x="423" y="539"/>
      <point x="590" y="647"/>
    </contour>
  </outline>
</glyph>
<glyph name="O" format="1">
  <advance width="610"/>
  <unicode hex="004F"/>
  <outline>
    <contour>
      <point x="66" y="127"/>
      <point x="130" y="19"/>
      <point x="218" y="19" type="curve" smooth="yes"/>
      <point x="396" y="19"/>
      <point x="584" y="283"/>
      <point x="584" y="469" type="curve" smooth="yes"/>
      <point x="584" y="589"/>
      <point x="507" y="708"/>
      <point x="402" y="708" type="curve" smooth="yes"/>
      <point x="261" y="708"/>
      <point x="66" y="454"/>
      <point x="66" y="206" type="curve" smooth="yes"/>
    </contour>
    <contour>
      <point x="456" y="648"/>
      <point x="519" y="581"/>
      <point x="519" y="457" type="curve" smooth="yes"/>
      <point x="519" y="306"/>
      <point x="338" y="75"/>
      <point x="227" y="75" type="curve" smooth="yes"/>
      <point x="178" y="75"/>
      <point x="126" y="127"/>
      <point x="126" y="215" type="curve" smooth="yes"/>
      <point x="126" y="419"/>
      <point x="316" y="648"/>
      <point x="404" y="648" type="curve" smooth="yes"/>
    </contour>
    <contour>
      <point x="455" y="683" type="move" name="top"/>
    </contour>
  </outline>
</glyph>
<glyph name="P" format="1">
  <advance width="539"/>
  <unicode hex="0050"/>
  <outline>
    <contour>
      <point x="190" y="636" type="curve" smooth="yes"/>
      <point x="190" y="503"/>
      <point x="54" y="128"/>
      <point x="54" y="57" type="curve" smooth="yes"/>
      <point x="54" y="36"/>
      <point x="75" y="14"/>
      <point x="88" y="14" type="curve" smooth="yes"/>
      <point x="98" y="14"/>
      <point x="143" y="165"/>
      <point x="179" y="288" type="curve" smooth="yes"/>
      <point x="228" y="460"/>
      <point x="248" y="558"/>
      <point x="248" y="597" type="curve" smooth="yes"/>
      <point x="248" y="633"/>
      <point x="223" y="665"/>
      <point x="206" y="665" type="curve" smooth="yes"/>
      <point x="192" y="665"/>
      <point x="190" y="658"/>
    </contour>
    <contour>
      <point x="152" y="317" type="curve"/>
      <point x="158" y="266" type="line"/>
      <point x="385" y="308"/>
      <point x="549" y="392"/>
      <point x="549" y="543" type="curve" smooth="yes"/>
      <point x="549" y="645"/>
      <point x="459" y="708"/>
      <point x="352" y="708" type="curve" smooth="yes"/>
      <point x="278" y="708"/>
      <point x="170" y="677"/>
      <point x="170" y="649" type="curve" smooth="yes"/>
      <point x="170" y="631"/>
      <point x="188" y="615"/>
      <point x="204" y="615" type="curve" smooth="yes"/>
      <point x="227" y="615"/>
      <point x="286" y="652"/>
      <point x="354" y="652" type="curve" smooth="yes"/>
      <point x="431" y="652"/>
      <point x="490" y="604"/>
      <point x="490" y="536" type="curve" smooth="yes"/>
      <point x="490" y="442"/>
      <point x="357" y="352"/>
    </contour>
  </outline>
</glyph>
<glyph name="Q" format="1">
  <advance width="631"/>
  <unicode hex="0051"/>
  <outline>
    <contour>
      <point x="70" y="101"/>
      <point x="136" y="23"/>
      <point x="224" y="23" type="curve" smooth="yes"/>
      <point x="413" y="23"/>
      <point x="587" y="280"/>
      <point x="587" y="469" type="curve" smooth="yes"/>
      <point x="587" y="588"/>
      <point x="505" y="704"/>
      <point x="402" y="704" type="curve" smooth="yes"/>
      <point x="258" y="704"/>
      <point x="70" y="463"/>
      <point x="70" y="206" type="curve" smooth="yes"/>
    </contour>
    <contour>
      <point x="127" y="416"/>
      <point x="292" y="646"/>
      <point x="406" y="646" type="curve" smooth="yes"/>
      <point x="460" y="646"/>
      <point x="523" y="580"/>
      <point x="523" y="461" type="curve" smooth="yes"/>
      <point x="523" y="302"/>
      <point x="349" y="76"/>
      <point x="230" y="76" type="curve" smooth="yes"/>
      <point x="176" y="76"/>
      <point x="127" y="127"/>
      <point x="127" y="216" type="curve" smooth="yes"/>
    </contour>
    <contour>
      <point x="486" y="-56"/>
      <point x="327" y="185"/>
      <point x="327" y="501" type="curve" smooth="yes"/>
      <point x="327" y="591"/>
      <point x="344" y="650"/>
      <point x="389" y="665" type="curve"/>
      <point x="372" y="678" type="line"/>
      <point x="317" y="655"/>
      <point x="268" y="586"/>
      <point x="268" y="485" type="curve" smooth="yes"/>
      <point x="268" y="270"/>
      <point x="413" y="-121"/>
      <point x="467" y="-121" type="curve" smooth="yes"/>
      <point x="475" y="-121"/>
      <point x="486" y="-118"/>
      <point x="486" y="-108" type="curve" smooth="yes"/>
    </contour>
  </outline>
</glyph>
<glyph name="S" format="1">
  <advance width="519"/>
  <unicode hex="0053"/>
  <outline>
    <contour>
      <point x="209" y="0" type="move" name="cedilla"/>
    </contour>
    <contour>
      <point x="350" y="683" type="move" name="top"/>
    </contour>
    <contour>
      <point x="452" y="211" type="curve"/>
      <point x="452" y="323"/>
      <point x="210" y="477"/>
      <point x="210" y="523" type="curve" smooth="yes"/>
      <point x="210" y="552"/>
      <point x="247" y="585"/>
      <point x="321" y="615" type="curve" smooth="yes"/>
      <point x="411" y="652"/>
      <point x="485" y="648"/>
      <point x="485" y="666" type="curve" smooth="yes"/>
      <point x="485" y="683"/>
      <point x="461" y="704"/>
      <point x="426" y="704" type="curve"/>
      <point x="360" y="704"/>
      <point x="225" y="649"/>
      <point x="182" y="597" type="curve" smooth="yes"/>
      <point x="169" y="581"/>
      <point x="154" y="544"/>
      <point x="154" y="521" type="curve" smooth="yes"/>
      <point x="154" y="430"/>
      <point x="387" y="302"/>
      <point x="387" y="208" type="curve" smooth="yes"/>
      <point x="387" y="140"/>
      <point x="308" y="82"/>
      <point x="191" y="82" type="curve" smooth="yes"/>
      <point x="89" y="82"/>
      <point x="40" y="177"/>
      <point x="18" y="177" type="curve"/>
      <point x="9" y="177"/>
      <point x="6" y="171"/>
      <point x="6" y="160" type="curve"/>
      <point x="6" y="116"/>
      <point x="92" y="25"/>
      <point x="207" y="25" type="curve" smooth="yes"/>
      <point x="344" y="25"/>
      <point x="452" y="103"/>
    </contour>
  </outline>
</glyph>
<glyph name="T" format="1">
  <advance width="530"/>
  <unicode hex="0054"/>
  <outline>
    <contour>
      <point x="224" y="0" type="move" name="cedilla"/>
    </contour>
    <contour>
      <point x="361" y="883" type="move" name="top"/>
    </contour>
    <contour>
      <point x="306" y="669" type="curve" smooth="yes"/>
      <point x="306" y="540"/>
      <point x="174" y="135"/>
      <point x="174" y="63" type="curve" smooth="yes"/>
      <point x="174" y="41"/>
      <point x="196" y="20"/>
      <point x="209" y="20" type="curve" smooth="yes"/>
      <point x="226" y="20"/>
      <point x="254" y="165"/>
      <point x="288" y="288" type="curve" smooth="yes"/>
      <point x="335" y="459"/>
      <point x="364" y="591"/>
      <point x="364" y="628" type="curve" smooth="yes"/>
      <point x="364" y="664"/>
      <point x="336" y="698"/>
      <point x="320" y="698" type="curve" smooth="yes"/>
      <point x="308" y="698"/>
      <point x="306" y="693"/>
    </contour>
    <contour>
      <point x="390" y="701" type="curve" smooth="yes"/>
      <point x="73" y="701"/>
      <point x="67" y="701"/>
      <point x="67" y="685" type="curve" smooth="yes"/>
      <point x="67" y="669"/>
      <point x="90" y="639"/>
      <point x="106" y="639" type="curve" smooth="yes"/>
      <point x="152" y="639"/>
      <point x="271" y="648"/>
      <point x="335" y="648" type="curve" smooth="yes"/>
      <point x="466" y="648"/>
      <point x="490" y="638"/>
      <point x="566" y="638" type="curve" smooth="yes"/>
      <point x="586" y="638"/>
      <point x="594" y="640"/>
      <point x="594" y="648" type="curve" smooth="yes"/>
      <point x="594" y="671"/>
      <point x="496" y="701"/>
    </contour>
  </outline>
</glyph>
<glyph name="U" format="1">
  <advance width="599"/>
  <unicode hex="0055"/>
  <outline>
    <contour>
      <point x="286" y="40" type="move" name="ogonek"/>
    </contour>
    <contour>
      <point x="354" y="683" type="move" name="top"/>
    </contour>
    <contour>
      <point x="199" y="704" type="curve" smooth="yes"/>
      <point x="187" y="704"/>
      <point x="185" y="699"/>
      <point x="185" y="675" type="curve" smooth="yes"/>
      <point x="185" y="531"/>
      <point x="99" y="336"/>
      <point x="99" y="193" type="curve" smooth="yes"/>
      <point x="99" y="96"/>
      <point x="157" y="10"/>
      <point x="242" y="10" type="curve" smooth="yes"/>
      <point x="398" y="10"/>
      <point x="558" y="243"/>
      <point x="558" y="608" type="curve" smooth="yes"/>
      <point x="558" y="679"/>
      <point x="519" y="704"/>
      <point x="502" y="704" type="curve" smooth="yes"/>
      <point x="491" y="704"/>
      <point x="488" y="701"/>
      <point x="488" y="688" type="curve" smooth="yes"/>
      <point x="488" y="658"/>
      <point x="495" y="618"/>
      <point x="495" y="558" type="curve" smooth="yes"/>
      <point x="495" y="286"/>
      <point x="344" y="66"/>
      <point x="249" y="66" type="curve" smooth="yes"/>
      <point x="195" y="66"/>
      <point x="158" y="119"/>
      <point x="158" y="207" type="curve" smooth="yes"/>
      <point x="158" y="308"/>
      <point x="245" y="542"/>
      <point x="245" y="636" type="curve" smooth="yes"/>
      <point x="245" y="671"/>
      <point x="214" y="704"/>
    </contour>
  </outline>
</glyph>
<glyph name="W" format="1">
  <advance width="780"/>
  <unicode hex="0057"/>
  <outline>
    <contour>
      <point x="730" y="383" type="curve" smooth="yes"/>
      <point x="730" y="557"/>
      <point x="659" y="704"/>
      <point x="515" y="704" type="curve" smooth="yes"/>
      <point x="485" y="704"/>
      <point x="471" y="699"/>
      <point x="471" y="683" type="curve" smooth="yes"/>
      <point x="471" y="668"/>
      <point x="503" y="634"/>
      <point x="539" y="634" type="curve" smooth="yes"/>
      <point x="627" y="634"/>
      <point x="670" y="495"/>
      <point x="670" y="392" type="curve" smooth="yes"/>
      <point x="670" y="239"/>
      <point x="599" y="86"/>
      <point x="510" y="86" type="curve" smooth="yes"/>
      <point x="432" y="86"/>
      <point x="456" y="404"/>
      <point x="394" y="404" type="curve" smooth="yes"/>
      <point x="354" y="404"/>
      <point x="208" y="217"/>
      <point x="126" y="86" type="curve"/>
      <point x="133" y="84" type="line"/>
      <point x="149" y="288"/>
      <point x="211" y="598"/>
      <point x="211" y="649" type="curve" smooth="yes"/>
      <point x="211" y="675"/>
      <point x="177" y="704"/>
      <point x="160" y="704" type="curve" smooth="yes"/>
      <point x="148" y="704"/>
      <point x="140" y="696"/>
      <point x="140" y="669" type="curve" smooth="yes"/>
      <point x="140" y="509"/>
      <point x="80" y="186"/>
      <point x="80" y="99" type="curve" smooth="yes"/>
      <point x="80" y="56"/>
      <point x="100" y="22"/>
      <point x="118" y="22" type="curve" smooth="yes"/>
      <point x="138" y="22"/>
      <point x="168" y="48"/>
      <point x="261" y="172" type="curve" smooth="yes"/>
      <point x="300" y="224"/>
      <point x="341" y="283"/>
      <point x="389" y="344" type="curve"/>
      <point x="380" y="343" type="line"/>
      <point x="393" y="167"/>
      <point x="417" y="24"/>
      <point x="510" y="24" type="curve" smooth="yes"/>
      <point x="627" y="24"/>
      <point x="730" y="200"/>
    </contour>
  </outline>
</glyph>
<glyph name="X" format="1">
  <advance width="645"/>
  <unicode hex="0058"/>
  <outline>
    <contour>
      <point x="215" y="685"/>
      <point x="184" y="704"/>
      <point x="156" y="704" type="curve" smooth="yes"/>
      <point x="148" y="704"/>
      <point x="144" y="700"/>
      <point x="144" y="686" type="curve" smooth="yes"/>
      <point x="144" y="498"/>
      <point x="465" y="23"/>
      <point x="526" y="23" type="curve" smooth="yes"/>
      <point x="531" y="23"/>
      <point x="539" y="29"/>
      <point x="539" y="44" type="curve" smooth="yes"/>
      <point x="539" y="112"/>
      <point x="215" y="457"/>
      <point x="215" y="661" type="curve" smooth="yes"/>
    </contour>
    <contour>
      <point x="613" y="648"/>
      <point x="631" y="659"/>
      <point x="631" y="669" type="curve" smooth="yes"/>
      <point x="631" y="680"/>
      <point x="606" y="704"/>
      <point x="595" y="704" type="curve" smooth="yes"/>
      <point x="566" y="704"/>
      <point x="522" y="656"/>
      <point x="362" y="445" type="curve" smooth="yes"/>
      <point x="235" y="277"/>
      <point x="109" y="127"/>
      <point x="63" y="80" type="curve" smooth="yes"/>
      <point x="47" y="63"/>
      <point x="39" y="59"/>
      <point x="39" y="47" type="curve" smooth="yes"/>
      <point x="39" y="37"/>
      <point x="56" y="23"/>
      <point x="66" y="23" type="curve" smooth="yes"/>
      <point x="108" y="23"/>
      <point x="157" y="96"/>
      <point x="354" y="343" type="curve" smooth="yes"/>
      <point x="477" y="499"/>
      <point x="555" y="603"/>
      <point x="588" y="629" type="curve" smooth="yes"/>
    </contour>
  </outline>
</glyph>
<glyph name="Y" format="1">
  <advance width="582"/>
  <unicode hex="0059"/>
  <outline>
    <contour>
      <point x="343" y="683" type="move" name="top"/>
    </contour>
    <contour>
      <point x="341" y="356" type="curve" smooth="yes"/>
      <point x="310" y="356"/>
      <point x="256" y="390"/>
      <point x="212" y="477" type="curve" smooth="yes"/>
      <point x="157" y="583"/>
      <point x="155" y="700"/>
      <point x="126" y="700" type="curve" smooth="yes"/>
      <point x="112" y="700"/>
      <point x="101" y="679"/>
      <point x="101" y="650" type="curve" smooth="yes"/>
      <point x="101" y="514"/>
      <point x="205" y="322"/>
      <point x="328" y="300" type="curve"/>
      <point x="262" y="174"/>
      <point x="205" y="66"/>
      <point x="205" y="28" type="curve" smooth="yes"/>
      <point x="205" y="13"/>
      <point x="209" y="7"/>
      <point x="217" y="7" type="curve" smooth="yes"/>
      <point x="246" y="7"/>
      <point x="293" y="113"/>
      <point x="396" y="303" type="curve" smooth="yes"/>
      <point x="494" y="485"/>
      <point x="607" y="642"/>
      <point x="607" y="674" type="curve" smooth="yes"/>
      <point x="607" y="691"/>
      <point x="597" y="700"/>
      <point x="577" y="700" type="curve" smooth="yes"/>
      <point x="530" y="700"/>
      <point x="383" y="356"/>
    </contour>
  </outline>
</glyph>
<glyph name="Z" format="1">
  <advance width="606"/>
  <unicode hex="005A"/>
  <outline>
    <contour>
      <point x="562" y="613"/>
      <point x="521" y="655"/>
      <point x="460" y="675" type="curve" smooth="yes"/>
      <point x="406" y="692"/>
      <point x="355" y="699"/>
      <point x="278" y="699" type="curve" smooth="yes"/>
      <point x="180" y="699"/>
      <point x="125" y="678"/>
      <point x="126" y="667" type="curve" smooth="yes"/>
      <point x="127" y="648"/>
      <point x="153" y="621"/>
      <point x="180" y="621" type="curve" smooth="yes"/>
      <point x="214" y="621"/>
      <point x="259" y="637"/>
      <point x="338" y="637" type="curve" smooth="yes"/>
      <point x="416" y="637"/>
      <point x="502" y="617"/>
      <point x="502" y="594" type="curve" smooth="yes"/>
      <point x="502" y="479"/>
      <point x="65" y="223"/>
      <point x="65" y="105" type="curve" smooth="yes"/>
      <point x="65" y="66"/>
      <point x="108" y="26"/>
      <point x="153" y="26" type="curve" smooth="yes"/>
      <point x="342" y="26"/>
      <point x="524" y="74"/>
      <point x="524" y="103" type="curve" smooth="yes"/>
      <point x="524" y="117"/>
      <point x="521" y="121"/>
      <point x="507" y="121" type="curve" smooth="yes"/>
      <point x="441" y="121"/>
      <point x="263" y="84"/>
      <point x="161" y="84" type="curve" smooth="yes"/>
      <point x="137" y="84"/>
      <point x="128" y="101"/>
      <point x="128" y="111" type="curve" smooth="yes"/>
      <point x="128" y="175"/>
      <point x="562" y="457"/>
      <point x="562" y="581" type="curve" smooth="yes"/>
    </contour>
    <contour>
      <point x="374" y="683" type="move" name="top"/>
    </contour>
  </outline>
</glyph>
<glyph name="bracketleft" format="1">
  <advance width="448"/>
  <unicode hex="005B"/>
  <outline>
    <contour>
      <point x="428" y="793" type="curve" smooth="yes"/>
      <point x="368" y="793"/>
      <point x="280" y="786"/>
      <point x="278" y="761" type="curve" smooth="yes"/>
      <point x="278" y="749"/>
      <point x="296" y="727"/>
      <point x="310" y="727" type="curve" smooth="yes"/>
      <point x="328" y="727"/>
      <point x="345" y="731"/>
      <point x="384" y="735" type="curve" smooth="yes"/>
      <point x="500" y="747"/>
      <point x="524" y="749"/>
      <point x="524" y="766" type="curve" smooth="yes"/>
      <point x="524" y="790"/>
      <point x="468" y="793"/>
    </contour>
    <contour>
      <point x="294" y="772" type="curve" smooth="yes"/>
      <point x="285" y="772"/>
      <point x="275" y="763"/>
      <point x="275" y="742" type="curve" smooth="yes"/>
      <point x="275" y="622"/>
      <point x="81" y="98"/>
      <point x="81" y="15" type="curve" smooth="yes"/>
      <point x="81" y="-29"/>
      <point x="130" y="-56"/>
      <point x="186" y="-56" type="curve" smooth="yes"/>
      <point x="228" y="-56"/>
      <point x="329" y="-33"/>
      <point x="329" y="1" type="curve" smooth="yes"/>
      <point x="329" y="9"/>
      <point x="325" y="13"/>
      <point x="314" y="13" type="curve" smooth="yes"/>
      <point x="289" y="13"/>
      <point x="221" y="2"/>
      <point x="171" y="2" type="curve" smooth="yes"/>
      <point x="155" y="2"/>
      <point x="145" y="11"/>
      <point x="145" y="27" type="curve" smooth="yes"/>
      <point x="145" y="44"/>
      <point x="154" y="78"/>
      <point x="213" y="267" type="curve" smooth="yes"/>
      <point x="261" y="419"/>
      <point x="335" y="667"/>
      <point x="335" y="709" type="curve" smooth="yes"/>
      <point x="335" y="741"/>
      <point x="310" y="772"/>
    </contour>
  </outline>
</glyph>
<glyph name="backslash" format="1">
  <advance width="600"/>
  <unicode hex="005C"/>
  <outline>
    <contour>
      <point x="489" y="-75"/>
      <point x="510" y="-50"/>
      <point x="510" y="-39" type="curve" smooth="yes"/>
      <point x="510" y="-2"/>
      <point x="428" y="196"/>
      <point x="186" y="734" type="curve" smooth="yes"/>
      <point x="176" y="756"/>
      <point x="175" y="763"/>
      <point x="165" y="763" type="curve" smooth="yes"/>
      <point x="155" y="763"/>
      <point x="129" y="728"/>
      <point x="129" y="707" type="curve" smooth="yes"/>
      <point x="129" y="654"/>
      <point x="251" y="444"/>
      <point x="316" y="288" type="curve" smooth="yes"/>
      <point x="453" y="-41"/>
      <point x="467" y="-75"/>
      <point x="480" y="-75" type="curve" smooth="yes"/>
    </contour>
  </outline>
</glyph>
<glyph name="bracketright" format="1">
  <advance width="411"/>
  <unicode hex="005D"/>
  <outline>
    <contour>
      <point x="155" y="691" type="curve" smooth="yes"/>
      <point x="175" y="688"/>
      <point x="203" y="687"/>
      <point x="231" y="687" type="curve" smooth="yes"/>
      <point x="299" y="687"/>
      <point x="313" y="682"/>
      <point x="341" y="682" type="curve" smooth="yes"/>
      <point x="356" y="682"/>
      <point x="362" y="700"/>
      <point x="362" y="713" type="curve" smooth="yes"/>
      <point x="362" y="732"/>
      <point x="340" y="747"/>
      <point x="277" y="747" type="curve" smooth="yes"/>
      <point x="220" y="747"/>
      <point x="126" y="737"/>
      <point x="126" y="709" type="curve" smooth="yes"/>
      <point x="126" y="699"/>
      <point x="137" y="694"/>
    </contour>
    <contour>
      <point x="132" y="-73" type="curve" smooth="yes"/>
      <point x="192" y="-73"/>
      <point x="216" y="-50"/>
      <point x="228" y="-4" type="curve" smooth="yes"/>
      <point x="257" y="112"/>
      <point x="362" y="581"/>
      <point x="362" y="702" type="curve" smooth="yes"/>
      <point x="362" y="723"/>
      <point x="353" y="732"/>
      <point x="344" y="732" type="curve" smooth="yes"/>
      <point x="327" y="732"/>
      <point x="299" y="700"/>
      <point x="299" y="668" type="curve" smooth="yes"/>
      <point x="299" y="590"/>
      <point x="179" y="66"/>
      <point x="164" y="11" type="curve" smooth="yes"/>
      <point x="160" y="-6"/>
      <point x="152" y="-15"/>
      <point x="135" y="-15" type="curve" smooth="yes"/>
      <point x="86" y="-15"/>
      <point x="25" y="-1"/>
      <point x="-3" y="-1" type="curve" smooth="yes"/>
      <point x="-14" y="-1"/>
      <point x="-19" y="-4"/>
      <point x="-19" y="-13" type="curve" smooth="yes"/>
      <point x="-19" y="-43"/>
      <point x="73" y="-73"/>
    </contour>
  </outline>
</glyph>
<glyph name="asciicircum" format="1">
  <advance width="422"/>
  <unicode hex="005E"/>
  <outline>
    <contour>
      <point x="77" y="595" type="curve" smooth="yes"/>
      <point x="77" y="584"/>
      <point x="83" y="575"/>
      <point x="94" y="575" type="curve" smooth="yes"/>
      <point x="115" y="575"/>
      <point x="131" y="617"/>
      <point x="159" y="668" type="curve" smooth="yes"/>
      <point x="179" y="705"/>
      <point x="206" y="745"/>
      <point x="246" y="778" type="curve"/>
      <point x="218" y="772" type="line"/>
      <point x="241" y="714"/>
      <point x="306" y="566"/>
      <point x="339" y="566" type="curve" smooth="yes"/>
      <point x="347" y="566"/>
      <point x="351" y="570"/>
      <point x="351" y="581" type="curve" smooth="yes"/>
      <point x="351" y="593"/>
      <point x="331" y="635"/>
      <point x="308" y="690" type="curve" smooth="yes"/>
      <point x="278" y="765"/>
      <point x="276" y="787"/>
      <point x="261" y="808" type="curve" smooth="yes"/>
      <point x="252" y="821"/>
      <point x="223" y="825"/>
      <point x="212" y="825" type="curve" smooth="yes"/>
      <point x="175" y="825"/>
      <point x="77" y="657"/>
    </contour>
  </outline>
</glyph>
<glyph name="underscore" format="1">
  <advance width="602"/>
  <unicode hex="005F"/>
  <outline>
    <contour>
      <point x="533" y="37"/>
      <point x="517" y="47"/>
      <point x="486" y="51" type="curve" smooth="yes"/>
      <point x="432" y="58"/>
      <point x="367" y="60"/>
      <point x="307" y="60" type="curve" smooth="yes"/>
      <point x="191" y="60"/>
      <point x="55" y="48"/>
      <point x="55" y="28" type="curve" smooth="yes"/>
      <point x="55" y="12"/>
      <point x="69" y="-7"/>
      <point x="84" y="-8" type="curve" smooth="yes"/>
      <point x="128" y="-7"/>
      <point x="224" y="3"/>
      <point x="334" y="4" type="curve" smooth="yes"/>
      <point x="434" y="5"/>
      <point x="533" y="6"/>
      <point x="533" y="25" type="curve" smooth="yes"/>
    </contour>
  </outline>
</glyph>
<glyph name="grave" format="1">
  <advance width="189"/>
  <unicode hex="0060"/>
  <outline>
    <contour>
      <point x="85" y="714" type="curve" smooth="yes"/>
      <point x="117" y="690"/>
      <point x="144" y="663"/>
      <point x="159" y="663" type="curve" smooth="yes"/>
      <point x="169" y="663"/>
      <point x="179" y="673"/>
      <point x="179" y="682" type="curve" smooth="yes"/>
      <point x="179" y="699"/>
      <point x="166" y="709"/>
      <point x="114" y="765" type="curve" smooth="yes"/>
      <point x="77" y="804"/>
      <point x="62" y="828"/>
      <point x="47" y="828" type="curve" smooth="yes"/>
      <point x="26" y="828"/>
      <point x="10" y="803"/>
      <point x="10" y="786" type="curve" smooth="yes"/>
      <point x="10" y="767"/>
      <point x="38" y="750"/>
    </contour>
  </outline>
</glyph>
<glyph name="b" format="1">
  <advance width="502"/>
  <unicode hex="0062"/>
  <outline>
    <contour>
      <point x="147" y="418"/>
      <point x="24" y="125"/>
      <point x="24" y="60" type="curve" smooth="yes"/>
      <point x="24" y="39"/>
      <point x="45" y="17"/>
      <point x="58" y="17" type="curve" smooth="yes"/>
      <point x="73" y="17"/>
      <point x="111" y="163"/>
      <point x="140" y="278" type="curve" smooth="yes"/>
      <point x="199" y="512"/>
      <point x="206" y="676"/>
      <point x="206" y="715" type="curve" smooth="yes"/>
      <point x="206" y="748"/>
      <point x="181" y="782"/>
      <point x="165" y="782" type="curve" smooth="yes"/>
      <point x="150" y="782"/>
      <point x="147" y="773"/>
      <point x="147" y="752" type="curve" smooth="yes"/>
    </contour>
    <contour>
      <point x="271" y="507"/>
      <point x="160" y="358"/>
      <point x="70" y="165" type="curve"/>
      <point x="88" y="88" type="line"/>
      <point x="144" y="254"/>
      <point x="282" y="445"/>
      <point x="377" y="445" type="curve" smooth="yes"/>
      <point x="411" y="445"/>
      <point x="424" y="410"/>
      <point x="424" y="358" type="curve" smooth="yes"/>
      <point x="424" y="214"/>
      <point x="314" y="72"/>
      <point x="223" y="72" type="curve" smooth="yes"/>
      <point x="177" y="72"/>
      <point x="119" y="112"/>
      <point x="87" y="214" type="curve"/>
      <point x="66" y="141" type="line"/>
      <point x="110" y="61"/>
      <point x="159" y="14"/>
      <point x="232" y="14" type="curve" smooth="yes"/>
      <point x="355" y="14"/>
      <point x="487" y="207"/>
      <point x="487" y="358" type="curve" smooth="yes"/>
      <point x="487" y="438"/>
      <point x="448" y="507"/>
      <point x="383" y="507" type="curve" smooth="yes"/>
    </contour>
  </outline>
</glyph>
<glyph name="d" format="1">
  <advance width="478"/>
  <unicode hex="0064"/>
  <outline>
    <contour>
      <point x="428" y="478"/>
      <point x="303" y="123"/>
      <point x="303" y="58" type="curve" smooth="yes"/>
      <point x="303" y="36"/>
      <point x="323" y="17"/>
      <point x="336" y="17" type="curve" smooth="yes"/>
      <point x="351" y="17"/>
      <point x="389" y="163"/>
      <point x="419" y="280" type="curve" smooth="yes"/>
      <point x="479" y="513"/>
      <point x="504" y="683"/>
      <point x="504" y="715" type="curve" smooth="yes"/>
      <point x="504" y="748"/>
      <point x="479" y="782"/>
      <point x="462" y="782" type="curve" smooth="yes"/>
      <point x="447" y="782"/>
      <point x="445" y="773"/>
      <point x="445" y="752" type="curve" smooth="yes"/>
    </contour>
    <contour>
      <point x="257" y="17"/>
      <point x="406" y="228"/>
      <point x="406" y="303" type="curve" smooth="yes"/>
      <point x="406" y="317"/>
      <point x="396" y="327"/>
      <point x="385" y="327" type="curve" smooth="yes"/>
      <point x="375" y="327"/>
      <point x="368" y="323"/>
      <point x="365" y="311" type="curve" smooth="yes"/>
      <point x="335" y="182"/>
      <point x="198" y="71"/>
      <point x="137" y="71" type="curve" smooth="yes"/>
      <point x="109" y="71"/>
      <point x="77" y="94"/>
      <point x="77" y="126" type="curve" smooth="yes"/>
      <point x="77" y="254"/>
      <point x="196" y="443"/>
      <point x="290" y="443" type="curve" smooth="yes"/>
      <point x="336" y="443"/>
      <point x="359" y="372"/>
      <point x="359" y="291" type="curve" smooth="yes"/>
      <point x="359" y="276"/>
      <point x="366" y="267"/>
      <point x="377" y="267" type="curve" smooth="yes"/>
      <point x="390" y="267"/>
      <point x="394" y="293"/>
      <point x="394" y="316" type="curve" smooth="yes"/>
      <point x="394" y="421"/>
      <point x="364" y="502"/>
      <point x="286" y="502" type="curve" smooth="yes"/>
      <point x="142" y="502"/>
      <point x="17" y="256"/>
      <point x="17" y="132" type="curve" smooth="yes"/>
      <point x="17" y="79"/>
      <point x="64" y="17"/>
      <point x="128" y="17" type="curve" smooth="yes"/>
    </contour>
  </outline>
</glyph>
<glyph name="f" format="1">
  <advance width="344"/>
  <unicode hex="0066"/>
  <outline>
    <contour>
      <point x="434" y="666" type="curve" smooth="yes"/>
      <point x="434" y="713"/>
      <point x="402" y="780"/>
      <point x="326" y="780" type="curve" smooth="yes"/>
      <point x="255" y="780"/>
      <point x="211" y="726"/>
      <point x="183" y="592" type="curve" smooth="yes"/>
      <point x="119" y="287"/>
      <point x="49" y="74"/>
      <point x="49" y="50" type="curve" smooth="yes"/>
      <point x="49" y="33"/>
      <point x="66" y="13"/>
      <point x="78" y="13" type="curve" smooth="yes"/>
      <point x="111" y="13"/>
      <point x="193" y="375"/>
      <point x="238" y="558" type="curve" smooth="yes"/>
      <point x="262" y="656"/>
      <point x="279" y="726"/>
      <point x="332" y="726" type="curve" smooth="yes"/>
      <point x="392" y="726"/>
      <point x="386" y="625"/>
      <point x="418" y="625" type="curve" smooth="yes"/>
      <point x="425" y="625"/>
      <point x="434" y="632"/>
    </contour>
    <contour>
      <point x="79" y="446" type="curve" smooth="yes"/>
      <point x="56" y="440"/>
      <point x="42" y="433"/>
      <point x="42" y="423" type="curve" smooth="yes"/>
      <point x="42" y="410"/>
      <point x="63" y="393"/>
      <point x="79" y="393" type="curve" smooth="yes"/>
      <point x="101" y="393"/>
      <point x="135" y="402"/>
      <point x="214" y="417" type="curve" smooth="yes"/>
      <point x="313" y="436"/>
      <point x="336" y="440"/>
      <point x="336" y="457" type="curve" smooth="yes"/>
      <point x="336" y="470"/>
      <point x="315" y="479"/>
      <point x="283" y="479" type="curve" smooth="yes"/>
      <point x="252" y="479"/>
      <point x="189" y="473"/>
    </contour>
  </outline>
</glyph>
<glyph name="i" format="1">
  <advance width="226"/>
  <unicode hex="0069"/>
  <outline>
    <contour>
      <point x="139" y="502"/>
      <point x="124" y="403"/>
      <point x="89" y="264" type="curve" smooth="yes"/>
      <point x="67" y="175"/>
      <point x="31" y="74"/>
      <point x="31" y="47" type="curve" smooth="yes"/>
      <point x="31" y="29"/>
      <point x="42" y="17"/>
      <point x="55" y="17" type="curve" smooth="yes"/>
      <point x="65" y="17"/>
      <point x="80" y="31"/>
      <point x="94" y="73" type="curve" smooth="yes"/>
      <point x="166" y="300"/>
      <point x="196" y="432"/>
      <point x="196" y="462" type="curve" smooth="yes"/>
      <point x="196" y="480"/>
      <point x="177" y="502"/>
      <point x="163" y="502" type="curve" smooth="yes"/>
    </contour>
    <contour>
      <point x="266" y="635"/>
      <point x="235" y="696"/>
      <point x="215" y="696" type="curve" smooth="yes"/>
      <point x="198" y="696"/>
      <point x="179" y="675"/>
      <point x="179" y="655" type="curve" smooth="yes"/>
      <point x="179" y="630"/>
      <point x="221" y="588"/>
      <point x="249" y="588" type="curve" smooth="yes"/>
      <point x="257" y="588"/>
      <point x="266" y="596"/>
      <point x="266" y="605" type="curve" smooth="yes"/>
    </contour>
    <contour>
      <point x="48" y="-30" type="move" name="ogonek"/>
    </contour>
  </outline>
</glyph>
<glyph name="k" format="1">
  <advance width="456"/>
  <unicode hex="006B"/>
  <outline>
    <contour>
      <point x="162" y="782"/>
      <point x="158" y="776"/>
      <point x="158" y="755" type="curve" smooth="yes"/>
      <point x="158" y="464"/>
      <point x="30" y="122"/>
      <point x="30" y="65" type="curve" smooth="yes"/>
      <point x="30" y="45"/>
      <point x="46" y="17"/>
      <point x="59" y="17" type="curve" smooth="yes"/>
      <point x="79" y="17"/>
      <point x="106" y="50"/>
      <point x="237" y="219" type="curve"/>
      <point x="225" y="226" type="line"/>
      <point x="218" y="211"/>
      <point x="216" y="196"/>
      <point x="216" y="181" type="curve" smooth="yes"/>
      <point x="216" y="90"/>
      <point x="327" y="17"/>
      <point x="379" y="17" type="curve" smooth="yes"/>
      <point x="391" y="17"/>
      <point x="407" y="20"/>
      <point x="407" y="34" type="curve" smooth="yes"/>
      <point x="407" y="62"/>
      <point x="266" y="90"/>
      <point x="266" y="195" type="curve" smooth="yes"/>
      <point x="266" y="317"/>
      <point x="446" y="445"/>
      <point x="446" y="469" type="curve" smooth="yes"/>
      <point x="446" y="482"/>
      <point x="429" y="502"/>
      <point x="411" y="502" type="curve" smooth="yes"/>
      <point x="387" y="502"/>
      <point x="263" y="360"/>
      <point x="91" y="107" type="curve"/>
      <point x="160" y="323"/>
      <point x="215" y="564"/>
      <point x="215" y="715" type="curve" smooth="yes"/>
      <point x="215" y="748"/>
      <point x="194" y="782"/>
      <point x="178" y="782" type="curve" smooth="yes"/>
    </contour>
  </outline>
</glyph>
<glyph name="l" format="1">
  <advance width="233"/>
  <unicode hex="006C"/>
  <outline>
    <contour>
      <point x="169" y="362"/>
      <point x="208" y="569"/>
      <point x="208" y="720" type="curve" smooth="yes"/>
      <point x="208" y="751"/>
      <point x="174" y="782"/>
      <point x="163" y="782" type="curve" smooth="yes"/>
      <point x="151" y="782"/>
      <point x="150" y="776"/>
      <point x="150" y="757" type="curve" smooth="yes"/>
      <point x="150" y="477"/>
      <point x="30" y="99"/>
      <point x="30" y="58" type="curve" smooth="yes"/>
      <point x="30" y="42"/>
      <point x="49" y="17"/>
      <point x="62" y="17" type="curve" smooth="yes"/>
      <point x="73" y="17"/>
      <point x="88" y="62"/>
      <point x="108" y="136" type="curve" smooth="yes"/>
    </contour>
    <contour>
      <point x="198" y="717" type="move" name="top"/>
    </contour>
  </outline>
</glyph>
<glyph name="m" format="1">
  <advance width="783"/>
  <unicode hex="006D"/>
  <outline>
    <contour>
      <point x="165" y="445" type="curve" smooth="yes"/>
      <point x="165" y="475"/>
      <point x="140" y="503"/>
      <point x="123" y="503" type="curve" smooth="yes"/>
      <point x="94" y="503"/>
      <point x="123" y="406"/>
      <point x="75" y="241" type="curve" smooth="yes"/>
      <point x="49" y="150"/>
      <point x="26" y="82"/>
      <point x="26" y="58" type="curve" smooth="yes"/>
      <point x="26" y="42"/>
      <point x="48" y="17"/>
      <point x="62" y="17" type="curve" smooth="yes"/>
      <point x="73" y="17"/>
      <point x="120" y="104"/>
      <point x="176" y="187" type="curve" smooth="yes"/>
      <point x="278" y="341"/>
      <point x="331" y="435"/>
      <point x="375" y="435" type="curve" smooth="yes"/>
      <point x="390" y="435"/>
      <point x="415" y="413"/>
      <point x="415" y="379" type="curve" smooth="yes"/>
      <point x="415" y="228"/>
      <point x="324" y="89"/>
      <point x="324" y="47" type="curve" smooth="yes"/>
      <point x="324" y="34"/>
      <point x="340" y="17"/>
      <point x="350" y="17" type="curve" smooth="yes"/>
      <point x="372" y="17"/>
      <point x="429" y="146"/>
      <point x="455" y="185" type="curve" smooth="yes"/>
      <point x="555" y="339"/>
      <point x="610" y="435"/>
      <point x="654" y="435" type="curve" smooth="yes"/>
      <point x="668" y="435"/>
      <point x="680" y="415"/>
      <point x="680" y="366" type="curve" smooth="yes"/>
      <point x="680" y="208"/>
      <point x="601" y="93"/>
      <point x="601" y="37" type="curve" smooth="yes"/>
      <point x="601" y="24"/>
      <point x="606" y="17"/>
      <point x="617" y="17" type="curve" smooth="yes"/>
      <point x="666" y="17"/>
      <point x="737" y="258"/>
      <point x="737" y="370" type="curve" smooth="yes"/>
      <point x="737" y="457"/>
      <point x="697" y="502"/>
      <point x="667" y="502" type="curve" smooth="yes"/>
      <point x="609" y="502"/>
      <point x="548" y="442"/>
      <point x="432" y="229" type="curve"/>
      <point x="443" y="240" type="line"/>
      <point x="461" y="295"/>
      <point x="470" y="346"/>
      <point x="470" y="384" type="curve" smooth="yes"/>
      <point x="470" y="443"/>
      <point x="413" y="502"/>
      <point x="385" y="502" type="curve" smooth="yes"/>
      <point x="317" y="502"/>
      <point x="246" y="403"/>
      <point x="73" y="97" type="curve"/>
      <point x="85" y="110" type="line"/>
      <point x="131" y="236"/>
      <point x="165" y="376"/>
    </contour>
  </outline>
</glyph>
<glyph name="p" format="1">
  <advance width="446"/>
  <unicode hex="0070"/>
  <outline>
    <contour>
      <point x="108" y="504" type="curve" smooth="yes"/>
      <point x="93" y="504"/>
      <point x="91" y="495"/>
      <point x="91" y="474" type="curve" smooth="yes"/>
      <point x="91" y="319"/>
      <point x="-44" y="-159"/>
      <point x="-44" y="-195" type="curve" smooth="yes"/>
      <point x="-44" y="-214"/>
      <point x="-26" y="-238"/>
      <point x="-12" y="-238" type="curve" smooth="yes"/>
      <point x="9" y="-238"/>
      <point x="40" y="-67"/>
      <point x="57" y="5" type="curve" smooth="yes"/>
      <point x="130" y="314"/>
      <point x="156" y="402"/>
      <point x="156" y="437" type="curve" smooth="yes"/>
      <point x="156" y="467"/>
      <point x="125" y="504"/>
    </contour>
    <contour>
      <point x="342" y="507" type="curve" smooth="yes"/>
      <point x="252" y="507"/>
      <point x="150" y="401"/>
      <point x="78" y="221" type="curve"/>
      <point x="101" y="187" type="line"/>
      <point x="157" y="326"/>
      <point x="277" y="446"/>
      <point x="332" y="446" type="curve" smooth="yes"/>
      <point x="363" y="446"/>
      <point x="376" y="401"/>
      <point x="376" y="345" type="curve" smooth="yes"/>
      <point x="376" y="195"/>
      <point x="207" y="76"/>
      <point x="105" y="76" type="curve" smooth="yes"/>
      <point x="77" y="76"/>
      <point x="57" y="83"/>
      <point x="47" y="83" type="curve" smooth="yes"/>
      <point x="41" y="83"/>
      <point x="37" y="77"/>
      <point x="37" y="71" type="curve" smooth="yes"/>
      <point x="37" y="48"/>
      <point x="55" y="18"/>
      <point x="114" y="18" type="curve" smooth="yes"/>
      <point x="236" y="18"/>
      <point x="439" y="184"/>
      <point x="439" y="343" type="curve" smooth="yes"/>
      <point x="439" y="424"/>
      <point x="407" y="507"/>
    </contour>
  </outline>
</glyph>
<glyph name="r" format="1">
  <advance width="314"/>
  <unicode hex="0072"/>
  <outline>
    <contour>
      <point x="152" y="470"/>
      <point x="127" y="502"/>
      <point x="110" y="502" type="curve" smooth="yes"/>
      <point x="95" y="502"/>
      <point x="95" y="483"/>
      <point x="95" y="459" type="curve" smooth="yes"/>
      <point x="95" y="442"/>
      <point x="97" y="421"/>
      <point x="97" y="405" type="curve" smooth="yes"/>
      <point x="97" y="334"/>
      <point x="89" y="274"/>
      <point x="79" y="225" type="curve" smooth="yes"/>
      <point x="61" y="136"/>
      <point x="36" y="82"/>
      <point x="36" y="58" type="curve" smooth="yes"/>
      <point x="36" y="36"/>
      <point x="48" y="13"/>
      <point x="63" y="13" type="curve" smooth="yes"/>
      <point x="95" y="13"/>
      <point x="94" y="99"/>
      <point x="157" y="236" type="curve" smooth="yes"/>
      <point x="209" y="349"/>
      <point x="247" y="421"/>
      <point x="333" y="454" type="curve" smooth="yes"/>
      <point x="355" y="463"/>
      <point x="364" y="472"/>
      <point x="364" y="480" type="curve" smooth="yes"/>
      <point x="364" y="490"/>
      <point x="349" y="498"/>
      <point x="328" y="498" type="curve" smooth="yes"/>
      <point x="223" y="498"/>
      <point x="154" y="332"/>
      <point x="121" y="267" type="curve"/>
      <point x="128" y="243" type="line"/>
      <point x="152" y="350"/>
      <point x="152" y="400"/>
      <point x="152" y="436" type="curve" smooth="yes"/>
    </contour>
    <contour>
      <point x="193" y="470" type="move" name="top"/>
    </contour>
  </outline>
</glyph>
<glyph name="t" format="1">
  <advance width="352"/>
  <unicode hex="0074"/>
  <outline>
    <contour>
      <point x="229" y="621"/>
      <point x="197" y="645"/>
      <point x="184" y="645" type="curve" smooth="yes"/>
      <point x="172" y="645"/>
      <point x="169" y="635"/>
      <point x="169" y="615" type="curve" smooth="yes"/>
      <point x="169" y="436"/>
      <point x="51" y="174"/>
      <point x="51" y="92" type="curve" smooth="yes"/>
      <point x="51" y="51"/>
      <point x="87" y="17"/>
      <point x="145" y="17" type="curve" smooth="yes"/>
      <point x="213" y="17"/>
      <point x="305" y="76"/>
      <point x="305" y="107" type="curve" smooth="yes"/>
      <point x="305" y="115"/>
      <point x="302" y="119"/>
      <point x="291" y="119" type="curve" smooth="yes"/>
      <point x="269" y="119"/>
      <point x="220" y="78"/>
      <point x="139" y="78" type="curve" smooth="yes"/>
      <point x="123" y="78"/>
      <point x="112" y="86"/>
      <point x="112" y="103" type="curve" smooth="yes"/>
      <point x="112" y="117"/>
      <point x="117" y="148"/>
      <point x="154" y="269" type="curve" smooth="yes"/>
      <point x="199" y="416"/>
      <point x="229" y="557"/>
      <point x="229" y="594" type="curve" smooth="yes"/>
    </contour>
    <contour>
      <point x="254" y="494"/>
      <point x="35" y="462"/>
      <point x="35" y="434" type="curve" smooth="yes"/>
      <point x="35" y="422"/>
      <point x="55" y="403"/>
      <point x="70" y="403" type="curve" smooth="yes"/>
      <point x="92" y="403"/>
      <point x="129" y="412"/>
      <point x="206" y="427" type="curve" smooth="yes"/>
      <point x="342" y="453"/>
      <point x="362" y="457"/>
      <point x="362" y="473" type="curve" smooth="yes"/>
      <point x="362" y="486"/>
      <point x="342" y="494"/>
      <point x="310" y="494" type="curve" smooth="yes"/>
    </contour>
    <contour>
      <point x="111" y="-30" type="move" name="cedilla"/>
    </contour>
  </outline>
</glyph>
<glyph name="w" format="1">
  <advance width="653"/>
  <unicode hex="0077"/>
  <outline>
    <contour>
      <point x="578" y="514"/>
      <point x="595" y="270"/>
      <point x="410" y="69" type="curve"/>
      <point x="402" y="107"/>
      <point x="400" y="161"/>
      <point x="400" y="215" type="curve" smooth="yes"/>
      <point x="400" y="296"/>
      <point x="405" y="379"/>
      <point x="405" y="408" type="curve" smooth="yes"/>
      <point x="405" y="478"/>
      <point x="394" y="508"/>
      <point x="358" y="508" type="curve" smooth="yes"/>
      <point x="305" y="508"/>
      <point x="248" y="261"/>
      <point x="142" y="69" type="curve"/>
      <point x="101" y="258"/>
      <point x="123" y="366"/>
      <point x="106" y="457" type="curve" smooth="yes"/>
      <point x="100" y="489"/>
      <point x="93" y="511"/>
      <point x="74" y="511" type="curve" smooth="yes"/>
      <point x="57" y="511"/>
      <point x="50" y="499"/>
      <point x="50" y="470" type="curve" smooth="yes"/>
      <point x="50" y="417"/>
      <point x="65" y="134"/>
      <point x="99" y="53" type="curve" smooth="yes"/>
      <point x="111" y="24"/>
      <point x="121" y="13"/>
      <point x="139" y="13" type="curve" smooth="yes"/>
      <point x="178" y="13"/>
      <point x="243" y="142"/>
      <point x="355" y="434" type="curve"/>
      <point x="351" y="374"/>
      <point x="349" y="312"/>
      <point x="349" y="255" type="curve" smooth="yes"/>
      <point x="349" y="154"/>
      <point x="355" y="70"/>
      <point x="366" y="44" type="curve" smooth="yes"/>
      <point x="378" y="16"/>
      <point x="385" y="13"/>
      <point x="403" y="13" type="curve" smooth="yes"/>
      <point x="456" y="13"/>
      <point x="544" y="157"/>
      <point x="600" y="289" type="curve" smooth="yes"/>
      <point x="630" y="360"/>
      <point x="650" y="427"/>
      <point x="650" y="467" type="curve" smooth="yes"/>
      <point x="650" y="494"/>
      <point x="646" y="514"/>
      <point x="626" y="514" type="curve" smooth="yes"/>
    </contour>
  </outline>
</glyph>
<glyph name="x" format="1">
  <advance width="401"/>
  <unicode hex="0078"/>
  <outline>
    <contour>
      <point x="114" y="468" type="curve" smooth="yes"/>
      <point x="114" y="489"/>
      <point x="77" y="502"/>
      <point x="56" y="502" type="curve" smooth="yes"/>
      <point x="43" y="502"/>
      <point x="41" y="497"/>
      <point x="41" y="483" type="curve" smooth="yes"/>
      <point x="41" y="428"/>
      <point x="267" y="17"/>
      <point x="328" y="17" type="curve" smooth="yes"/>
      <point x="337" y="17"/>
      <point x="347" y="23"/>
      <point x="347" y="32" type="curve" smooth="yes"/>
      <point x="347" y="48"/>
      <point x="306" y="93"/>
      <point x="259" y="168" type="curve" smooth="yes"/>
      <point x="192" y="272"/>
      <point x="114" y="416"/>
    </contour>
    <contour>
      <point x="416" y="473" type="curve" smooth="yes"/>
      <point x="416" y="486"/>
      <point x="396" y="502"/>
      <point x="380" y="502" type="curve" smooth="yes"/>
      <point x="349" y="502"/>
      <point x="290" y="417"/>
      <point x="177" y="268" type="curve" smooth="yes"/>
      <point x="79" y="139"/>
      <point x="-15" y="63"/>
      <point x="-15" y="49" type="curve" smooth="yes"/>
      <point x="-15" y="36"/>
      <point x="6" y="17"/>
      <point x="21" y="17" type="curve" smooth="yes"/>
      <point x="46" y="17"/>
      <point x="149" y="151"/>
      <point x="226" y="244" type="curve" smooth="yes"/>
      <point x="281" y="311"/>
      <point x="328" y="376"/>
      <point x="367" y="417" type="curve" smooth="yes"/>
      <point x="395" y="447"/>
      <point x="416" y="458"/>
    </contour>
  </outline>
</glyph>
<glyph name="z" format="1">
  <advance width="418"/>
  <unicode hex="007A"/>
  <outline>
    <contour>
      <point x="323" y="491"/>
      <point x="271" y="502"/>
      <point x="209" y="502" type="curve" smooth="yes"/>
      <point x="110" y="502"/>
      <point x="54" y="489"/>
      <point x="54" y="471" type="curve" smooth="yes"/>
      <point x="54" y="454"/>
      <point x="78" y="431"/>
      <point x="93" y="431" type="curve" smooth="yes"/>
      <point x="128" y="431"/>
      <point x="167" y="442"/>
      <point x="209" y="442" type="curve" smooth="yes"/>
      <point x="288" y="442"/>
      <point x="325" y="435"/>
      <point x="325" y="418" type="curve" smooth="yes"/>
      <point x="325" y="359"/>
      <point x="5" y="172"/>
      <point x="5" y="99" type="curve" smooth="yes"/>
      <point x="5" y="64"/>
      <point x="51" y="17"/>
      <point x="109" y="17" type="curve" smooth="yes"/>
      <point x="184" y="17"/>
      <point x="393" y="45"/>
      <point x="393" y="82" type="curve" smooth="yes"/>
      <point x="393" y="95"/>
      <point x="383" y="96"/>
      <point x="362" y="96" type="curve" smooth="yes"/>
      <point x="325" y="96"/>
      <point x="219" y="76"/>
      <point x="111" y="76" type="curve" smooth="yes"/>
      <point x="85" y="76"/>
      <point x="74" y="86"/>
      <point x="74" y="100" type="curve" smooth="yes"/>
      <point x="74" y="150"/>
      <point x="380" y="312"/>
      <point x="380" y="416" type="curve" smooth="yes"/>
      <point x="380" y="438"/>
      <point x="361" y="467"/>
      <point x="340" y="480" type="curve" smooth="yes"/>
    </contour>
    <contour>
      <point x="215" y="470" type="move" name="top"/>
    </contour>
  </outline>
</glyph>
<glyph name="braceleft" format="1">
  <advance width="399"/>
  <unicode hex="007B"/>
  <outline>
    <contour>
      <point x="289" y="500"/>
      <point x="244" y="553"/>
      <point x="244" y="663" type="curve" smooth="yes"/>
      <point x="244" y="739"/>
      <point x="304" y="791"/>
      <point x="370" y="791" type="curve" smooth="yes"/>
      <point x="439" y="791"/>
      <point x="442" y="750"/>
      <point x="442" y="691" type="curve" smooth="yes"/>
      <point x="442" y="677"/>
      <point x="444" y="667"/>
      <point x="453" y="667" type="curve" smooth="yes"/>
      <point x="471" y="667"/>
      <point x="489" y="700"/>
      <point x="489" y="736" type="curve" smooth="yes"/>
      <point x="489" y="803"/>
      <point x="442" y="853"/>
      <point x="364" y="853" type="curve" smooth="yes"/>
      <point x="277" y="853"/>
      <point x="189" y="781"/>
      <point x="189" y="682" type="curve" smooth="yes"/>
      <point x="189" y="585"/>
      <point x="234" y="509"/>
      <point x="234" y="458" type="curve" smooth="yes"/>
      <point x="234" y="423"/>
      <point x="208" y="398"/>
      <point x="167" y="398" type="curve" smooth="yes"/>
      <point x="129" y="398"/>
      <point x="100" y="432"/>
      <point x="83" y="432" type="curve" smooth="yes"/>
      <point x="77" y="432"/>
      <point x="72" y="423"/>
      <point x="72" y="414" type="curve" smooth="yes"/>
      <point x="72" y="376"/>
      <point x="136" y="349"/>
      <point x="183" y="349" type="curve" smooth="yes"/>
      <point x="249" y="349"/>
      <point x="289" y="396"/>
      <point x="289" y="441" type="curve" smooth="yes"/>
    </contour>
    <contour>
      <point x="285" y="-36"/>
      <point x="275" y="-32"/>
      <point x="239" y="-32" type="curve" smooth="yes"/>
      <point x="152" y="-32"/>
      <point x="113" y="1"/>
      <point x="113" y="72" type="curve" smooth="yes"/>
      <point x="113" y="180"/>
      <point x="169" y="229"/>
      <point x="169" y="297" type="curve" smooth="yes"/>
      <point x="169" y="356"/>
      <point x="144" y="389"/>
      <point x="103" y="410" type="curve"/>
      <point x="98" y="377" type="line"/>
      <point x="104" y="367"/>
      <point x="118" y="348"/>
      <point x="118" y="328" type="curve" smooth="yes"/>
      <point x="118" y="229"/>
      <point x="49" y="172"/>
      <point x="49" y="72" type="curve" smooth="yes"/>
      <point x="49" y="-12"/>
      <point x="111" y="-84"/>
      <point x="201" y="-84" type="curve" smooth="yes"/>
      <point x="244" y="-84"/>
      <point x="285" y="-70"/>
      <point x="285" y="-48" type="curve" smooth="yes"/>
    </contour>
  </outline>
</glyph>
<glyph name="asciitilde" format="1">
  <advance width="598"/>
  <unicode hex="007E"/>
  <outline>
    <contour>
      <point x="244" y="425" type="curve"/>
      <point x="175" y="425"/>
      <point x="85" y="333"/>
      <point x="84" y="274" type="curve"/>
      <point x="84" y="261"/>
      <point x="92" y="253"/>
      <point x="106" y="253" type="curve"/>
      <point x="136" y="253"/>
      <point x="153" y="334"/>
      <point x="244" y="373" type="curve"/>
      <point x="303" y="287"/>
      <point x="347" y="247"/>
      <point x="401" y="247" type="curve"/>
      <point x="479" y="247"/>
      <point x="536" y="325"/>
      <point x="536" y="378" type="curve"/>
      <point x="536" y="397"/>
      <point x="530" y="405"/>
      <point x="521" y="405" type="curve"/>
      <point x="488" y="405"/>
      <point x="478" y="309"/>
      <point x="405" y="307" type="curve"/>
      <point x="334" y="309"/>
      <point x="312" y="425"/>
    </contour>
  </outline>
</glyph>
<glyph name="currency" format="1">
  <advance width="600"/>
  <unicode hex="00A4"/>
  <outline>
    <contour>
      <point x="395" y="126"/>
      <point x="466" y="242"/>
      <point x="466" y="333" type="curve" smooth="yes"/>
      <point x="466" y="420"/>
      <point x="408" y="487"/>
      <point x="328" y="487" type="curve" smooth="yes"/>
      <point x="219" y="487"/>
      <point x="149" y="373"/>
      <point x="149" y="281" type="curve" smooth="yes"/>
      <point x="149" y="193"/>
      <point x="208" y="126"/>
      <point x="287" y="126" type="curve" smooth="yes"/>
    </contour>
    <contour>
      <point x="370" y="437"/>
      <point x="412" y="387"/>
      <point x="412" y="325" type="curve" smooth="yes"/>
      <point x="412" y="259"/>
      <point x="365" y="173"/>
      <point x="293" y="173" type="curve" smooth="yes"/>
      <point x="246" y="173"/>
      <point x="202" y="222"/>
      <point x="202" y="282" type="curve" smooth="yes"/>
      <point x="202" y="348"/>
      <point x="248" y="437"/>
      <point x="321" y="437" type="curve" smooth="yes"/>
    </contour>
    <contour>
      <point x="348" y="164" type="line"/>
      <point x="383" y="114"/>
      <point x="417" y="83"/>
      <point x="434" y="83" type="curve" smooth="yes"/>
      <point x="442" y="83"/>
      <point x="452" y="89"/>
      <point x="452" y="97" type="curve" smooth="yes"/>
      <point x="452" y="110"/>
      <point x="424" y="144"/>
      <point x="388" y="198" type="curve"/>
    </contour>
    <contour>
      <point x="226" y="520"/>
      <point x="193" y="530"/>
      <point x="173" y="530" type="curve" smooth="yes"/>
      <point x="161" y="530"/>
      <point x="159" y="525"/>
      <point x="159" y="513" type="curve" smooth="yes"/>
      <point x="159" y="499"/>
      <point x="182" y="457"/>
      <point x="208" y="405" type="curve"/>
      <point x="250" y="437" type="line"/>
      <point x="238" y="462"/>
      <point x="230" y="486"/>
      <point x="229" y="500" type="curve" smooth="yes"/>
    </contour>
    <contour>
      <point x="111" y="100"/>
      <point x="130" y="83"/>
      <point x="145" y="83" type="curve" smooth="yes"/>
      <point x="157" y="83"/>
      <point x="192" y="120"/>
      <point x="231" y="167" type="curve"/>
      <point x="196" y="206" type="line"/>
      <point x="146" y="153"/>
      <point x="111" y="122"/>
      <point x="111" y="113" type="curve" smooth="yes"/>
    </contour>
    <contour>
      <point x="514" y="515"/>
      <point x="495" y="530"/>
      <point x="480" y="530" type="curve" smooth="yes"/>
      <point x="463" y="530"/>
      <point x="432" y="500"/>
      <point x="392" y="446" type="curve"/>
      <point x="429" y="406" type="line"/>
      <point x="456" y="436"/>
      <point x="514" y="489"/>
      <point x="514" y="503" type="curve" smooth="yes"/>
    </contour>
  </outline>
</glyph>
<glyph name="section" format="1">
  <advance width="429"/>
  <unicode hex="00A7"/>
  <outline>
    <contour>
      <point x="219" y="487" type="line"/>
      <point x="152" y="466"/>
      <point x="49" y="391"/>
      <point x="49" y="304" type="curve" smooth="yes"/>
      <point x="49" y="199"/>
      <point x="218" y="131"/>
      <point x="218" y="47" type="curve" smooth="yes"/>
      <point x="218" y="-11"/>
      <point x="186" y="-35"/>
      <point x="129" y="-35" type="curve" smooth="yes"/>
      <point x="95" y="-35"/>
      <point x="74" y="-15"/>
      <point x="61" y="6" type="curve" smooth="yes"/>
      <point x="49" y="25"/>
      <point x="43" y="45"/>
      <point x="30" y="45" type="curve" smooth="yes"/>
      <point x="21" y="45"/>
      <point x="6" y="21"/>
      <point x="6" y="3" type="curve" smooth="yes"/>
      <point x="6" y="-29"/>
      <point x="66" y="-93"/>
      <point x="134" y="-93" type="curve" smooth="yes"/>
      <point x="225" y="-93"/>
      <point x="283" y="-30"/>
      <point x="283" y="41" type="curve" smooth="yes"/>
      <point x="283" y="163"/>
      <point x="111" y="222"/>
      <point x="111" y="302" type="curve" smooth="yes"/>
      <point x="111" y="385"/>
      <point x="198" y="428"/>
      <point x="250" y="449" type="curve"/>
    </contour>
    <contour>
      <point x="401" y="670"/>
      <point x="368" y="729"/>
      <point x="323" y="729" type="curve" smooth="yes"/>
      <point x="243" y="729"/>
      <point x="157" y="657"/>
      <point x="157" y="590" type="curve" smooth="yes"/>
      <point x="157" y="488"/>
      <point x="319" y="404"/>
      <point x="319" y="304" type="curve" smooth="yes"/>
      <point x="319" y="258"/>
      <point x="260" y="192"/>
      <point x="186" y="192" type="curve"/>
      <point x="190" y="149" type="line"/>
      <point x="298" y="149"/>
      <point x="381" y="238"/>
      <point x="381" y="303" type="curve" smooth="yes"/>
      <point x="381" y="433"/>
      <point x="218" y="508"/>
      <point x="218" y="590" type="curve" smooth="yes"/>
      <point x="218" y="627"/>
      <point x="268" y="670"/>
      <point x="312" y="670" type="curve" smooth="yes"/>
      <point x="360" y="670"/>
      <point x="352" y="589"/>
      <point x="384" y="589" type="curve" smooth="yes"/>
      <point x="394" y="589"/>
      <point x="401" y="598"/>
      <point x="401" y="617" type="curve" smooth="yes"/>
    </contour>
  </outline>
</glyph>
<glyph name="dieresis" format="1">
  <advance width="240"/>
  <unicode hex="00A8"/>
  <outline>
    <contour>
      <point x="94" y="773"/>
      <point x="64" y="834"/>
      <point x="45" y="834" type="curve" smooth="yes"/>
      <point x="28" y="834"/>
      <point x="10" y="812"/>
      <point x="10" y="793" type="curve" smooth="yes"/>
      <point x="10" y="769"/>
      <point x="51" y="728"/>
      <point x="78" y="728" type="curve" smooth="yes"/>
      <point x="86" y="728"/>
      <point x="94" y="737"/>
      <point x="94" y="745" type="curve" smooth="yes"/>
    </contour>
    <contour>
      <point x="230" y="773"/>
      <point x="200" y="834"/>
      <point x="181" y="834" type="curve" smooth="yes"/>
      <point x="164" y="834"/>
      <point x="146" y="812"/>
      <point x="146" y="793" type="curve" smooth="yes"/>
      <point x="146" y="769"/>
      <point x="187" y="728"/>
      <point x="214" y="728" type="curve" smooth="yes"/>
      <point x="222" y="728"/>
      <point x="230" y="737"/>
      <point x="230" y="745" type="curve" smooth="yes"/>
    </contour>
  </outline>
</glyph>
<glyph name="guillemotleft" format="1">
  <advance width="782"/>
  <unicode hex="00AB"/>
  <outline>
    <contour>
      <point x="352" y="495"/>
      <point x="145" y="409"/>
      <point x="86" y="363" type="curve" smooth="yes"/>
      <point x="72" y="352"/>
      <point x="50" y="323"/>
      <point x="50" y="304" type="curve" smooth="yes"/>
      <point x="50" y="259"/>
      <point x="326" y="140"/>
      <point x="373" y="140" type="curve" smooth="yes"/>
      <point x="394" y="140"/>
      <point x="403" y="144"/>
      <point x="403" y="156" type="curve" smooth="yes"/>
      <point x="403" y="183"/>
      <point x="121" y="278"/>
      <point x="121" y="311" type="curve" smooth="yes"/>
      <point x="121" y="345"/>
      <point x="312" y="416"/>
      <point x="411" y="447" type="curve" smooth="yes"/>
      <point x="431" y="453"/>
      <point x="449" y="456"/>
      <point x="449" y="471" type="curve" smooth="yes"/>
      <point x="449" y="480"/>
      <point x="437" y="495"/>
      <point x="409" y="495" type="curve" smooth="yes"/>
    </contour>
    <contour>
      <point x="661" y="474"/>
      <point x="435" y="408"/>
      <point x="376" y="363" type="curve" smooth="yes"/>
      <point x="361" y="352"/>
      <point x="339" y="324"/>
      <point x="339" y="306" type="curve" smooth="yes"/>
      <point x="339" y="259"/>
      <point x="613" y="158"/>
      <point x="676" y="158" type="curve" smooth="yes"/>
      <point x="696" y="158"/>
      <point x="705" y="162"/>
      <point x="705" y="173" type="curve" smooth="yes"/>
      <point x="705" y="201"/>
      <point x="410" y="279"/>
      <point x="410" y="310" type="curve" smooth="yes"/>
      <point x="410" y="341"/>
      <point x="576" y="386"/>
      <point x="691" y="417" type="curve" smooth="yes"/>
      <point x="711" y="423"/>
      <point x="759" y="432"/>
      <point x="759" y="449" type="curve" smooth="yes"/>
      <point x="759" y="458"/>
      <point x="747" y="474"/>
      <point x="719" y="474" type="curve" smooth="yes"/>
    </contour>
  </outline>
</glyph>
<glyph name="logicalnot" format="1">
  <advance width="496"/>
  <unicode hex="00AC"/>
  <outline>
    <contour>
      <point x="-5" y="472" type="curve" smooth="yes"/>
      <point x="-15" y="472"/>
      <point x="-20" y="468"/>
      <point x="-20" y="456" type="curve" smooth="yes"/>
      <point x="-20" y="434"/>
      <point x="25" y="410"/>
      <point x="81" y="410" type="curve"/>
      <point x="399" y="410" type="line"/>
      <point x="427" y="410"/>
      <point x="449" y="401"/>
      <point x="449" y="380" type="curve" smooth="yes"/>
      <point x="449" y="272"/>
      <point x="332" y="127"/>
      <point x="332" y="99" type="curve" smooth="yes"/>
      <point x="332" y="90"/>
      <point x="339" y="86"/>
      <point x="347" y="86" type="curve" smooth="yes"/>
      <point x="390" y="86"/>
      <point x="514" y="290"/>
      <point x="514" y="373" type="curve" smooth="yes"/>
      <point x="514" y="414"/>
      <point x="499" y="446"/>
      <point x="470" y="456" type="curve" smooth="yes"/>
      <point x="440" y="466"/>
      <point x="363" y="466"/>
      <point x="244" y="466" type="curve" smooth="yes"/>
      <point x="97" y="466"/>
      <point x="14" y="472"/>
    </contour>
  </outline>
</glyph>
<glyph name="softhyphen" format="1">
  <advance width="600"/>
  <unicode hex="00AD"/>
  <outline>
    <contour>
      <point x="362" y="304"/>
      <point x="382" y="308"/>
      <point x="382" y="324" type="curve" smooth="yes"/>
      <point x="382" y="337"/>
      <point x="362" y="344"/>
      <point x="330" y="344" type="curve" smooth="yes"/>
      <point x="275" y="344"/>
      <point x="55" y="313"/>
      <point x="55" y="284" type="curve" smooth="yes"/>
      <point x="55" y="272"/>
      <point x="76" y="253"/>
      <point x="91" y="253" type="curve" smooth="yes"/>
      <point x="112" y="253"/>
      <point x="149" y="262"/>
      <point x="226" y="277" type="curve" smooth="yes"/>
    </contour>
  </outline>
</glyph>
<glyph name="registered" format="1">
  <advance width="545"/>
  <unicode hex="00AE"/>
  <outline>
    <contour>
      <point x="305" y="724" type="curve" smooth="yes"/>
      <point x="189" y="724"/>
      <point x="75" y="616"/>
      <point x="75" y="499" type="curve" smooth="yes"/>
      <point x="75" y="409"/>
      <point x="129" y="338"/>
      <point x="235" y="338" type="curve" smooth="yes"/>
      <point x="367" y="338"/>
      <point x="470" y="432"/>
      <point x="470" y="559" type="curve" smooth="yes"/>
      <point x="470" y="653"/>
      <point x="407" y="724"/>
    </contour>
    <contour>
      <point x="111" y="485" type="curve" smooth="yes"/>
      <point x="111" y="620"/>
      <point x="229" y="696"/>
      <point x="322" y="696" type="curve" smooth="yes"/>
      <point x="383" y="696"/>
      <point x="433" y="642"/>
      <point x="433" y="566" type="curve" smooth="yes"/>
      <point x="433" y="436"/>
      <point x="351" y="365"/>
      <point x="226" y="365" type="curve" smooth="yes"/>
      <point x="159" y="365"/>
      <point x="111" y="407"/>
    </contour>
    <contour>
      <point x="260" y="518" type="curve"/>
      <point x="260" y="513"/>
      <point x="289" y="485"/>
      <point x="309" y="469" type="curve"/>
      <point x="327" y="454"/>
      <point x="346" y="441"/>
      <point x="346" y="431" type="curve"/>
      <point x="346" y="427"/>
      <point x="342" y="422"/>
      <point x="335" y="422" type="curve"/>
      <point x="312" y="422"/>
      <point x="229" y="496"/>
      <point x="229" y="522" type="curve" smooth="yes"/>
      <point x="229" y="539"/>
      <point x="326" y="556"/>
      <point x="326" y="599" type="curve"/>
      <point x="326" y="612"/>
      <point x="313" y="617"/>
      <point x="293" y="617" type="curve"/>
      <point x="268" y="617"/>
      <point x="249" y="605"/>
      <point x="239" y="605" type="curve"/>
      <point x="231" y="605"/>
      <point x="224" y="616"/>
      <point x="224" y="622" type="curve"/>
      <point x="224" y="635"/>
      <point x="262" y="645"/>
      <point x="286" y="645" type="curve"/>
      <point x="322" y="645"/>
      <point x="354" y="631"/>
      <point x="354" y="598" type="curve"/>
      <point x="354" y="540"/>
      <point x="260" y="520"/>
    </contour>
    <contour>
      <point x="242" y="632" type="curve"/>
      <point x="249" y="632"/>
      <point x="259" y="619"/>
      <point x="259" y="607" type="curve"/>
      <point x="259" y="594"/>
      <point x="252" y="563"/>
      <point x="237" y="508" type="curve"/>
      <point x="226" y="469"/>
      <point x="216" y="422"/>
      <point x="207" y="422" type="curve"/>
      <point x="201" y="422"/>
      <point x="192" y="432"/>
      <point x="192" y="441" type="curve"/>
      <point x="192" y="463"/>
      <point x="232" y="578"/>
      <point x="232" y="619" type="curve"/>
      <point x="232" y="627"/>
      <point x="233" y="632"/>
    </contour>
  </outline>
</glyph>
<glyph name="macron" format="1">
  <advance width="359"/>
  <unicode hex="00AF"/>
  <outline>
    <contour>
      <point x="349" y="622" type="curve" smooth="yes"/>
      <point x="349" y="642"/>
      <point x="286" y="642"/>
      <point x="130" y="642" type="curve" smooth="yes"/>
      <point x="83" y="642"/>
      <point x="10" y="637"/>
      <point x="10" y="621" type="curve" smooth="yes"/>
      <point x="10" y="607"/>
      <point x="36" y="581"/>
      <point x="63" y="581" type="curve" smooth="yes"/>
      <point x="87" y="581"/>
      <point x="123" y="587"/>
      <point x="196" y="593" type="curve" smooth="yes"/>
      <point x="319" y="602"/>
      <point x="349" y="606"/>
    </contour>
  </outline>
</glyph>
<glyph name="degree" format="1">
  <advance width="295"/>
  <unicode hex="00B0"/>
  <outline>
    <contour>
      <point x="234" y="725" type="curve" smooth="yes"/>
      <point x="142" y="725"/>
      <point x="74" y="622"/>
      <point x="74" y="543" type="curve" smooth="yes"/>
      <point x="74" y="482"/>
      <point x="112" y="434"/>
      <point x="170" y="434" type="curve" smooth="yes"/>
      <point x="262" y="434"/>
      <point x="330" y="536"/>
      <point x="330" y="616" type="curve" smooth="yes"/>
      <point x="330" y="678"/>
      <point x="293" y="725"/>
    </contour>
    <contour>
      <point x="221" y="672" type="curve" smooth="yes"/>
      <point x="250" y="672"/>
      <point x="270" y="644"/>
      <point x="270" y="607" type="curve" smooth="yes"/>
      <point x="270" y="557"/>
      <point x="237" y="484"/>
      <point x="183" y="484" type="curve" smooth="yes"/>
      <point x="153" y="484"/>
      <point x="133" y="511"/>
      <point x="133" y="547" type="curve" smooth="yes"/>
      <point x="133" y="597"/>
      <point x="167" y="672"/>
    </contour>
  </outline>
</glyph>
<glyph name="twosuperior" format="1">
  <advance width="293"/>
  <unicode hex="00B2"/>
  <outline>
    <contour>
      <point x="145" y="640"/>
      <point x="164" y="679"/>
      <point x="203" y="679" type="curve"/>
      <point x="227" y="679"/>
      <point x="240" y="660"/>
      <point x="240" y="632" type="curve"/>
      <point x="240" y="523"/>
      <point x="55" y="441"/>
      <point x="55" y="406" type="curve" smooth="yes"/>
      <point x="55" y="383"/>
      <point x="82" y="367"/>
      <point x="101" y="367" type="curve" smooth="yes"/>
      <point x="137" y="367"/>
      <point x="284" y="391"/>
      <point x="284" y="416" type="curve" smooth="yes"/>
      <point x="284" y="429"/>
      <point x="273" y="431"/>
      <point x="255" y="431" type="curve" smooth="yes"/>
      <point x="236" y="431"/>
      <point x="166" y="418"/>
      <point x="113" y="411" type="curve"/>
      <point x="213" y="480"/>
      <point x="287" y="549"/>
      <point x="287" y="635" type="curve"/>
      <point x="287" y="685"/>
      <point x="250" y="724"/>
      <point x="199" y="724" type="curve"/>
      <point x="150" y="724"/>
      <point x="102" y="683"/>
      <point x="102" y="663" type="curve"/>
      <point x="102" y="651"/>
      <point x="124" y="640"/>
      <point x="132" y="640" type="curve"/>
    </contour>
  </outline>
</glyph>
<glyph name="acute" format="1">
  <advance width="193"/>
  <unicode hex="00B4"/>
  <outline>
    <contour>
      <point x="10" y="682" type="curve" smooth="yes"/>
      <point x="10" y="670"/>
      <point x="20" y="663"/>
      <point x="29" y="663" type="curve" smooth="yes"/>
      <point x="44" y="663"/>
      <point x="59" y="677"/>
      <point x="109" y="716" type="curve" smooth="yes"/>
      <point x="161" y="757"/>
      <point x="183" y="770"/>
      <point x="183" y="791" type="curve" smooth="yes"/>
      <point x="183" y="809"/>
      <point x="169" y="834"/>
      <point x="152" y="834" type="curve" smooth="yes"/>
      <point x="135" y="834"/>
      <point x="107" y="798"/>
      <point x="75" y="764" type="curve" smooth="yes"/>
      <point x="31" y="717"/>
      <point x="10" y="701"/>
    </contour>
  </outline>
</glyph>
<glyph name="mu.math" format="1">
  <advance width="648"/>
  <unicode hex="00B5"/>
  <outline>
    <contour>
      <point x="382" y="17"/>
      <point x="469" y="166"/>
      <point x="506" y="253" type="curve"/>
      <point x="498" y="265" type="line"/>
      <point x="470" y="191"/>
      <point x="439" y="76"/>
      <point x="439" y="55" type="curve" smooth="yes"/>
      <point x="439" y="32"/>
      <point x="446" y="17"/>
      <point x="460" y="17" type="curve" smooth="yes"/>
      <point x="470" y="17"/>
      <point x="480" y="27"/>
      <point x="489" y="59" type="curve" smooth="yes"/>
      <point x="516" y="152"/>
      <point x="598" y="428"/>
      <point x="598" y="445" type="curve" smooth="yes"/>
      <point x="598" y="474"/>
      <point x="576" y="502"/>
      <point x="560" y="502" type="curve" smooth="yes"/>
      <point x="549" y="502"/>
      <point x="547" y="494"/>
      <point x="543" y="472" type="curve" smooth="yes"/>
      <point x="527" y="385"/>
      <point x="397" y="71"/>
      <point x="283" y="71" type="curve" smooth="yes"/>
      <point x="255" y="71"/>
      <point x="233" y="94"/>
      <point x="233" y="125" type="curve" smooth="yes"/>
      <point x="233" y="270"/>
      <point x="321" y="435"/>
      <point x="321" y="480" type="curve" smooth="yes"/>
      <point x="321" y="490"/>
      <point x="297" y="502"/>
      <point x="285" y="502" type="curve" smooth="yes"/>
      <point x="262" y="502"/>
      <point x="223" y="336"/>
      <point x="158" y="165" type="curve" smooth="yes"/>
      <point x="79" y="-43"/>
      <point x="25" y="-159"/>
      <point x="25" y="-176" type="curve" smooth="yes"/>
      <point x="25" y="-188"/>
      <point x="40" y="-200"/>
      <point x="54" y="-200" type="curve" smooth="yes"/>
      <point x="76" y="-200"/>
      <point x="145" y="-16"/>
      <point x="196" y="94" type="curve"/>
      <point x="199" y="51"/>
      <point x="230" y="17"/>
      <point x="279" y="17" type="curve" smooth="yes"/>
    </contour>
  </outline>
</glyph>
<glyph name="cedilla" format="1">
  <advance width="225"/>
  <unicode hex="00B8"/>
  <outline>
    <contour>
      <point x="148" y="19"/>
      <point x="142" y="27"/>
      <point x="126" y="27" type="curve" smooth="yes"/>
      <point x="116" y="27"/>
      <point x="104" y="23"/>
      <point x="99" y="6" type="curve" smooth="yes"/>
      <point x="85" y="-38"/>
      <point x="59" y="-77"/>
      <point x="59" y="-96" type="curve" smooth="yes"/>
      <point x="59" y="-118"/>
      <point x="141" y="-113"/>
      <point x="150" y="-134" type="curve"/>
      <point x="120" y="-185"/>
      <point x="10" y="-169"/>
      <point x="10" y="-198" type="curve" smooth="yes"/>
      <point x="10" y="-210"/>
      <point x="21" y="-215"/>
      <point x="40" y="-215" type="curve" smooth="yes"/>
      <point x="99" y="-215"/>
      <point x="215" y="-192"/>
      <point x="215" y="-125" type="curve" smooth="yes"/>
      <point x="215" y="-97"/>
      <point x="168" y="-72"/>
      <point x="126" y="-72" type="curve" smooth="yes"/>
      <point x="113" y="-72"/>
      <point x="95" y="-73"/>
      <point x="85" y="-76" type="curve"/>
      <point x="110" y="-85" type="line"/>
      <point x="134" y="-46"/>
      <point x="148" y="-12"/>
      <point x="148" y="4" type="curve" smooth="yes"/>
    </contour>
  </outline>
</glyph>
<glyph name="guillemotright" format="1">
  <advance width="833"/>
  <unicode hex="00BB"/>
  <outline>
    <contour>
      <point x="127" y="443" type="curve" smooth="yes"/>
      <point x="127" y="434"/>
      <point x="148" y="427"/>
      <point x="172" y="421" type="curve" smooth="yes"/>
      <point x="238" y="405"/>
      <point x="386" y="357"/>
      <point x="386" y="323" type="curve" smooth="yes"/>
      <point x="386" y="291"/>
      <point x="81" y="189"/>
      <point x="81" y="159" type="curve" smooth="yes"/>
      <point x="81" y="152"/>
      <point x="88" y="148"/>
      <point x="103" y="148" type="curve" smooth="yes"/>
      <point x="167" y="148"/>
      <point x="455" y="268"/>
      <point x="455" y="316" type="curve" smooth="yes"/>
      <point x="455" y="390"/>
      <point x="224" y="473"/>
      <point x="160" y="474" type="curve" smooth="yes"/>
      <point x="146" y="474"/>
      <point x="127" y="452"/>
    </contour>
    <contour>
      <point x="416" y="465" type="curve" smooth="yes"/>
      <point x="416" y="456"/>
      <point x="436" y="449"/>
      <point x="460" y="442" type="curve" smooth="yes"/>
      <point x="526" y="424"/>
      <point x="670" y="353"/>
      <point x="670" y="319" type="curve" smooth="yes"/>
      <point x="670" y="297"/>
      <point x="367" y="177"/>
      <point x="367" y="148" type="curve" smooth="yes"/>
      <point x="367" y="142"/>
      <point x="372" y="138"/>
      <point x="388" y="138" type="curve" smooth="yes"/>
      <point x="451" y="138"/>
      <point x="683" y="246"/>
      <point x="724" y="283" type="curve" smooth="yes"/>
      <point x="731" y="291"/>
      <point x="736" y="302"/>
      <point x="736" y="313" type="curve" smooth="yes"/>
      <point x="736" y="388"/>
      <point x="516" y="494"/>
      <point x="447" y="495" type="curve" smooth="yes"/>
      <point x="433" y="495"/>
      <point x="416" y="474"/>
    </contour>
  </outline>
</glyph>
<glyph name="onequarter" format="1">
  <advance width="761"/>
  <unicode hex="00BC"/>
  <outline>
    <contour>
      <point x="91" y="-17" type="curve" smooth="yes"/>
      <point x="106" y="-17"/>
      <point x="125" y="11"/>
      <point x="324" y="307" type="curve" smooth="yes"/>
      <point x="417" y="445"/>
      <point x="591" y="636"/>
      <point x="591" y="687" type="curve" smooth="yes"/>
      <point x="591" y="708"/>
      <point x="575" y="738"/>
      <point x="566" y="738" type="curve" smooth="yes"/>
      <point x="557" y="738"/>
      <point x="555" y="732"/>
      <point x="541" y="713" type="curve" smooth="yes"/>
      <point x="199" y="234"/>
      <point x="69" y="47"/>
      <point x="69" y="16" type="curve" smooth="yes"/>
      <point x="69" y="5"/>
      <point x="85" y="-17"/>
    </contour>
    <contour>
      <point x="208" y="501" type="curve" smooth="yes"/>
      <point x="220" y="575"/>
      <point x="228" y="643"/>
      <point x="229" y="697" type="curve" smooth="yes"/>
      <point x="229" y="712"/>
      <point x="202" y="735"/>
      <point x="187" y="735" type="curve" smooth="yes"/>
      <point x="182" y="735"/>
      <point x="174" y="730"/>
      <point x="174" y="715" type="curve" smooth="yes"/>
      <point x="174" y="557"/>
      <point x="128" y="375"/>
      <point x="125" y="324" type="curve" smooth="yes"/>
      <point x="125" y="303"/>
      <point x="150" y="287"/>
      <point x="160" y="286" type="curve" smooth="yes"/>
      <point x="177" y="285"/>
      <point x="190" y="390"/>
    </contour>
    <contour>
      <point x="480" y="131" type="curve" smooth="yes"/>
      <point x="544" y="131"/>
      <point x="649" y="177"/>
      <point x="649" y="201" type="curve"/>
      <point x="649" y="215"/>
      <point x="641" y="221"/>
      <point x="630" y="221" type="curve"/>
      <point x="600" y="221"/>
      <point x="535" y="181"/>
      <point x="480" y="181" type="curve" smooth="yes"/>
      <point x="455" y="181"/>
      <point x="444" y="194"/>
      <point x="444" y="221" type="curve" smooth="yes"/>
      <point x="444" y="298"/>
      <point x="597" y="442"/>
      <point x="597" y="465" type="curve"/>
      <point x="597" y="478"/>
      <point x="582" y="492"/>
      <point x="570" y="492" type="curve"/>
      <point x="544" y="492"/>
      <point x="391" y="302"/>
      <point x="391" y="220" type="curve" smooth="yes"/>
      <point x="391" y="166"/>
      <point x="426" y="131"/>
    </contour>
    <contour>
      <point x="666" y="286" type="curve"/>
      <point x="666" y="305"/>
      <point x="640" y="330"/>
      <point x="630" y="330" type="curve"/>
      <point x="620" y="330"/>
      <point x="610" y="323"/>
      <point x="610" y="306" type="curve"/>
      <point x="610" y="143"/>
      <point x="552" y="40"/>
      <point x="552" y="8" type="curve"/>
      <point x="552" y="-5"/>
      <point x="560" y="-19"/>
      <point x="572" y="-19" type="curve"/>
      <point x="604" y="-19"/>
      <point x="666" y="192"/>
    </contour>
  </outline>
</glyph>
<glyph name="onehalf" format="1">
  <advance width="748"/>
  <unicode hex="00BD"/>
  <outline>
    <contour>
      <point x="195" y="575"/>
      <point x="202" y="643"/>
      <point x="204" y="697" type="curve" smooth="yes"/>
      <point x="204" y="712"/>
      <point x="176" y="735"/>
      <point x="162" y="735" type="curve" smooth="yes"/>
      <point x="156" y="735"/>
      <point x="149" y="730"/>
      <point x="149" y="715" type="curve" smooth="yes"/>
      <point x="149" y="552"/>
      <point x="100" y="353"/>
      <point x="100" y="324" type="curve" smooth="yes"/>
      <point x="100" y="303"/>
      <point x="124" y="287"/>
      <point x="135" y="286" type="curve" smooth="yes"/>
      <point x="151" y="285"/>
      <point x="165" y="390"/>
      <point x="182" y="501" type="curve" smooth="yes"/>
    </contour>
    <contour>
      <point x="465" y="336"/>
      <point x="495" y="385"/>
      <point x="541" y="385" type="curve"/>
      <point x="572" y="385"/>
      <point x="590" y="359"/>
      <point x="590" y="322" type="curve"/>
      <point x="590" y="177"/>
      <point x="354" y="74"/>
      <point x="353" y="31" type="curve"/>
      <point x="353" y="4"/>
      <point x="385" y="-16"/>
      <point x="410" y="-16" type="curve"/>
      <point x="457" y="-16"/>
      <point x="643" y="15"/>
      <point x="643" y="44" type="curve" smooth="yes"/>
      <point x="643" y="59"/>
      <point x="625" y="59"/>
      <point x="608" y="59" type="curve" smooth="yes"/>
      <point x="577" y="59"/>
      <point x="441" y="34"/>
      <point x="391" y="28" type="curve"/>
      <point x="395" y="22" type="line"/>
      <point x="536" y="115"/>
      <point x="646" y="208"/>
      <point x="646" y="326" type="curve"/>
      <point x="646" y="386"/>
      <point x="600" y="437"/>
      <point x="535" y="437" type="curve"/>
      <point x="484" y="437"/>
      <point x="414" y="386"/>
      <point x="414" y="360" type="curve"/>
      <point x="414" y="345"/>
      <point x="439" y="336"/>
      <point x="449" y="336" type="curve"/>
    </contour>
    <contour>
      <point x="81" y="-17"/>
      <point x="100" y="11"/>
      <point x="299" y="307" type="curve" smooth="yes"/>
      <point x="392" y="445"/>
      <point x="566" y="636"/>
      <point x="566" y="687" type="curve" smooth="yes"/>
      <point x="566" y="708"/>
      <point x="550" y="738"/>
      <point x="541" y="738" type="curve" smooth="yes"/>
      <point x="532" y="738"/>
      <point x="530" y="732"/>
      <point x="516" y="713" type="curve" smooth="yes"/>
      <point x="174" y="234"/>
      <point x="44" y="47"/>
      <point x="44" y="16" type="curve" smooth="yes"/>
      <point x="44" y="5"/>
      <point x="60" y="-17"/>
      <point x="66" y="-17" type="curve" smooth="yes"/>
    </contour>
  </outline>
</glyph>
<glyph name="questiondown" format="1">
  <advance width="371"/>
  <unicode hex="00BF"/>
  <outline>
    <contour>
      <point x="-1" y="-134"/>
      <point x="71" y="-190"/>
      <point x="153" y="-190" type="curve" smooth="yes"/>
      <point x="234" y="-190"/>
      <point x="305" y="-125"/>
      <point x="305" y="-55" type="curve" smooth="yes"/>
      <point x="305" y="-35"/>
      <point x="281" y="-1"/>
      <point x="269" y="-1" type="curve" smooth="yes"/>
      <point x="257" y="-1"/>
      <point x="238" y="-7"/>
      <point x="238" y="-17" type="curve" smooth="yes"/>
      <point x="238" y="-30"/>
      <point x="246" y="-31"/>
      <point x="246" y="-51" type="curve" smooth="yes"/>
      <point x="246" y="-98"/>
      <point x="200" y="-131"/>
      <point x="153" y="-131" type="curve" smooth="yes"/>
      <point x="106" y="-131"/>
      <point x="62" y="-96"/>
      <point x="62" y="-43" type="curve" smooth="yes"/>
      <point x="62" y="75"/>
      <point x="277" y="189"/>
      <point x="277" y="309" type="curve" smooth="yes"/>
      <point x="277" y="333"/>
      <point x="270" y="356"/>
      <point x="257" y="356" type="curve" smooth="yes"/>
      <point x="245" y="356"/>
      <point x="238" y="342"/>
      <point x="216" y="287" type="curve" smooth="yes"/>
      <point x="174" y="182"/>
      <point x="-1" y="73"/>
      <point x="-1" y="-40" type="curve" smooth="yes"/>
    </contour>
    <contour>
      <point x="342" y="547"/>
      <point x="294" y="596"/>
      <point x="265" y="596" type="curve" smooth="yes"/>
      <point x="256" y="596"/>
      <point x="246" y="587"/>
      <point x="246" y="582" type="curve" smooth="yes"/>
      <point x="246" y="555"/>
      <point x="280" y="469"/>
      <point x="302" y="469" type="curve" smooth="yes"/>
      <point x="321" y="469"/>
      <point x="342" y="499"/>
      <point x="342" y="519" type="curve" smooth="yes"/>
    </contour>
  </outline>
</glyph>
<glyph name="Agrave" format="1">
  <advance width="596"/>
  <unicode hex="00C0"/>
  <outline>
    <contour>
      <point x="332" y="722"/>
      <point x="320" y="699"/>
      <point x="302" y="662" type="curve" smooth="yes"/>
      <point x="282" y="622"/>
      <point x="228" y="500"/>
      <point x="178" y="380" type="curve" smooth="yes"/>
      <point x="116" y="230"/>
      <point x="47" y="73"/>
      <point x="47" y="65" type="curve" smooth="yes"/>
      <point x="47" y="39"/>
      <point x="63" y="17"/>
      <point x="79" y="17" type="curve" smooth="yes"/>
      <point x="102" y="17"/>
      <point x="194" y="299"/>
      <point x="359" y="655" type="curve"/>
      <point x="352" y="655" type="line"/>
      <point x="389" y="503"/>
      <point x="407" y="320"/>
      <point x="419" y="96" type="curve" smooth="yes"/>
      <point x="422" y="43"/>
      <point x="431" y="17"/>
      <point x="452" y="17" type="curve" smooth="yes"/>
      <point x="469" y="17"/>
      <point x="476" y="60"/>
      <point x="476" y="123" type="curve" smooth="yes"/>
      <point x="476" y="244"/>
      <point x="435" y="722"/>
      <point x="367" y="722" type="curve" smooth="yes"/>
    </contour>
    <contour>
      <point x="553" y="385"/>
      <point x="540" y="390"/>
      <point x="524" y="390" type="curve" smooth="yes"/>
      <point x="460" y="390"/>
      <point x="48" y="291"/>
      <point x="48" y="257" type="curve" smooth="yes"/>
      <point x="48" y="236"/>
      <point x="68" y="232"/>
      <point x="88" y="232" type="curve" smooth="yes"/>
      <point x="108" y="232"/>
      <point x="158" y="248"/>
      <point x="298" y="286" type="curve" smooth="yes"/>
      <point x="441" y="324"/>
      <point x="553" y="350"/>
      <point x="553" y="369" type="curve" smooth="yes"/>
    </contour>
    <contour>
      <point x="268" y="884"/>
      <point x="296" y="867"/>
      <point x="343" y="831" type="curve" smooth="yes"/>
      <point x="375" y="807"/>
      <point x="402" y="780"/>
      <point x="417" y="780" type="curve" smooth="yes"/>
      <point x="427" y="780"/>
      <point x="437" y="790"/>
      <point x="437" y="799" type="curve" smooth="yes"/>
      <point x="437" y="816"/>
      <point x="424" y="826"/>
      <point x="372" y="882" type="curve" smooth="yes"/>
      <point x="335" y="921"/>
      <point x="320" y="945"/>
      <point x="305" y="945" type="curve" smooth="yes"/>
      <point x="284" y="945"/>
      <point x="268" y="920"/>
      <point x="268" y="903" type="curve" smooth="yes"/>
    </contour>
    <contour>
      <point x="420" y="0" type="move" name="ogonek"/>
    </contour>
    <contour>
      <point x="365" y="683" type="move" name="top"/>
    </contour>
  </outline>
</glyph>
<glyph name="Atilde" format="1">
  <advance width="596"/>
  <unicode hex="00C3"/>
  <outline>
    <contour>
      <point x="420" y="0" type="move" name="ogonek"/>
    </contour>
    <contour>
      <point x="365" y="683" type="move" name="top"/>
    </contour>
    <contour>
      <point x="302" y="662" type="curve" smooth="yes"/>
      <point x="282" y="622"/>
      <point x="228" y="500"/>
      <point x="178" y="380" type="curve" smooth="yes"/>
      <point x="116" y="230"/>
      <point x="47" y="73"/>
      <point x="47" y="65" type="curve" smooth="yes"/>
      <point x="47" y="39"/>
      <point x="63" y="17"/>
      <point x="79" y="17" type="curve" smooth="yes"/>
      <point x="102" y="17"/>
      <point x="194" y="299"/>
      <point x="359" y="655" type="curve"/>
      <point x="352" y="655" type="line"/>
      <point x="389" y="503"/>
      <point x="407" y="320"/>
      <point x="419" y="96" type="curve" smooth="yes"/>
      <point x="422" y="43"/>
      <point x="431" y="17"/>
      <point x="452" y="17" type="curve" smooth="yes"/>
      <point x="469" y="17"/>
      <point x="476" y="60"/>
      <point x="476" y="123" type="curve" smooth="yes"/>
      <point x="476" y="244"/>
      <point x="435" y="722"/>
      <point x="367" y="722" type="curve" smooth="yes"/>
      <point x="332" y="722"/>
      <point x="320" y="699"/>
    </contour>
    <contour>
      <point x="524" y="390" type="curve" smooth="yes"/>
      <point x="460" y="390"/>
      <point x="48" y="291"/>
      <point x="48" y="257" type="curve" smooth="yes"/>
      <point x="48" y="236"/>
      <point x="68" y="232"/>
      <point x="88" y="232" type="curve" smooth="yes"/>
      <point x="108" y="232"/>
      <point x="158" y="248"/>
      <point x="298" y="286" type="curve" smooth="yes"/>
      <point x="441" y="324"/>
      <point x="553" y="350"/>
      <point x="553" y="369" type="curve" smooth="yes"/>
      <point x="553" y="385"/>
      <point x="540" y="390"/>
    </contour>
    <contour>
      <point x="253" y="804" type="curve" smooth="yes"/>
      <point x="253" y="792"/>
      <point x="260" y="783"/>
      <point x="275" y="783" type="curve" smooth="yes"/>
      <point x="299" y="783"/>
      <point x="310" y="834"/>
      <point x="359" y="858" type="curve"/>
      <point x="396" y="806"/>
      <point x="427" y="779"/>
      <point x="463" y="779" type="curve" smooth="yes"/>
      <point x="517" y="779"/>
      <point x="556" y="833"/>
      <point x="556" y="871" type="curve" smooth="yes"/>
      <point x="556" y="886"/>
      <point x="550" y="895"/>
      <point x="539" y="895" type="curve" smooth="yes"/>
      <point x="510" y="895"/>
      <point x="505" y="834"/>
      <point x="465" y="832" type="curve" smooth="yes"/>
      <point x="428" y="834"/>
      <point x="423" y="908"/>
      <point x="362" y="908" type="curve" smooth="yes"/>
      <point x="313" y="908"/>
      <point x="253" y="846"/>
    </contour>
  </outline>
</glyph>
<glyph name="Aring" format="1">
  <advance width="596"/>
  <unicode hex="00C5"/>
  <outline>
    <contour>
      <point x="420" y="0" type="move" name="ogonek"/>
    </contour>
    <contour>
      <point x="365" y="683" type="move" name="top"/>
    </contour>
    <contour>
      <point x="302" y="662" type="curve" smooth="yes"/>
      <point x="282" y="622"/>
      <point x="228" y="500"/>
      <point x="178" y="380" type="curve" smooth="yes"/>
      <point x="116" y="230"/>
      <point x="47" y="73"/>
      <point x="47" y="65" type="curve" smooth="yes"/>
      <point x="47" y="39"/>
      <point x="63" y="17"/>
      <point x="79" y="17" type="curve" smooth="yes"/>
      <point x="102" y="17"/>
      <point x="194" y="299"/>
      <point x="359" y="655" type="curve"/>
      <point x="352" y="655" type="line"/>
      <point x="389" y="503"/>
      <point x="407" y="320"/>
      <point x="419" y="96" type="curve" smooth="yes"/>
      <point x="422" y="43"/>
      <point x="431" y="17"/>
      <point x="452" y="17" type="curve" smooth="yes"/>
      <point x="469" y="17"/>
      <point x="476" y="60"/>
      <point x="476" y="123" type="curve" smooth="yes"/>
      <point x="476" y="244"/>
      <point x="435" y="722"/>
      <point x="367" y="722" type="curve" smooth="yes"/>
      <point x="332" y="722"/>
      <point x="320" y="699"/>
    </contour>
    <contour>
      <point x="524" y="390" type="curve" smooth="yes"/>
      <point x="460" y="390"/>
      <point x="48" y="291"/>
      <point x="48" y="257" type="curve" smooth="yes"/>
      <point x="48" y="236"/>
      <point x="68" y="232"/>
      <point x="88" y="232" type="curve" smooth="yes"/>
      <point x="108" y="232"/>
      <point x="158" y="248"/>
      <point x="298" y="286" type="curve" smooth="yes"/>
      <point x="441" y="324"/>
      <point x="553" y="350"/>
      <point x="553" y="369" type="curve" smooth="yes"/>
      <point x="553" y="385"/>
      <point x="540" y="390"/>
    </contour>
    <contour>
      <point x="328" y="842" type="curve" smooth="yes"/>
      <point x="328" y="799"/>
      <point x="357" y="764"/>
      <point x="396" y="764" type="curve" smooth="yes"/>
      <point x="448" y="764"/>
      <point x="485" y="822"/>
      <point x="485" y="866" type="curve" smooth="yes"/>
      <point x="485" y="909"/>
      <point x="456" y="944"/>
      <point x="417" y="944" type="curve" smooth="yes"/>
      <point x="365" y="944"/>
      <point x="328" y="886"/>
    </contour>
    <contour>
      <point x="438" y="860" type="curve" smooth="yes"/>
      <point x="438" y="828"/>
      <point x="419" y="807"/>
      <point x="401" y="807" type="curve" smooth="yes"/>
      <point x="385" y="807"/>
      <point x="374" y="824"/>
      <point x="374" y="845" type="curve" smooth="yes"/>
      <point x="374" y="877"/>
      <point x="394" y="899"/>
      <point x="411" y="899" type="curve" smooth="yes"/>
      <point x="427" y="899"/>
      <point x="438" y="882"/>
    </contour>
  </outline>
</glyph>
<glyph name="AE" format="1">
  <advance width="794"/>
  <unicode hex="00C6"/>
  <outline>
    <contour>
      <point x="8" y="0" type="move" name="top"/>
    </contour>
    <contour>
      <point x="509" y="688" type="curve" smooth="yes"/>
      <point x="382" y="688"/>
      <point x="276" y="680"/>
      <point x="253" y="632" type="curve" smooth="yes"/>
      <point x="233" y="589"/>
      <point x="181" y="465"/>
      <point x="134" y="350" type="curve" smooth="yes"/>
      <point x="71" y="192"/>
      <point x="10" y="70"/>
      <point x="10" y="50" type="curve" smooth="yes"/>
      <point x="10" y="28"/>
      <point x="18" y="12"/>
      <point x="37" y="12" type="curve" smooth="yes"/>
      <point x="59" y="12"/>
      <point x="109" y="153"/>
      <point x="173" y="302" type="curve" smooth="yes"/>
      <point x="240" y="457"/>
      <point x="301" y="605"/>
      <point x="315" y="620" type="curve" smooth="yes"/>
      <point x="330" y="637"/>
      <point x="429" y="640"/>
      <point x="573" y="640" type="curve" smooth="yes"/>
      <point x="728" y="640"/>
      <point x="774" y="651"/>
      <point x="774" y="666" type="curve" smooth="yes"/>
      <point x="774" y="681"/>
      <point x="748" y="688"/>
    </contour>
    <contour>
      <point x="704" y="365" type="curve" smooth="yes"/>
      <point x="704" y="379"/>
      <point x="695" y="389"/>
      <point x="670" y="389" type="curve" smooth="yes"/>
      <point x="578" y="389"/>
      <point x="132" y="334"/>
      <point x="132" y="312" type="curve" smooth="yes"/>
      <point x="132" y="298"/>
      <point x="144" y="282"/>
      <point x="168" y="282" type="curve" smooth="yes"/>
      <point x="189" y="282"/>
      <point x="239" y="295"/>
      <point x="360" y="309" type="curve" smooth="yes"/>
      <point x="591" y="336"/>
      <point x="704" y="347"/>
    </contour>
    <contour>
      <point x="449" y="12" type="curve" smooth="yes"/>
      <point x="575" y="12"/>
      <point x="763" y="72"/>
      <point x="763" y="107" type="curve" smooth="yes"/>
      <point x="763" y="116"/>
      <point x="760" y="125"/>
      <point x="751" y="125" type="curve" smooth="yes"/>
      <point x="725" y="125"/>
      <point x="594" y="72"/>
      <point x="432" y="72" type="curve" smooth="yes"/>
      <point x="414" y="72"/>
      <point x="399" y="83"/>
      <point x="399" y="104" type="curve" smooth="yes"/>
      <point x="399" y="169"/>
      <point x="522" y="482"/>
      <point x="522" y="621" type="curve" smooth="yes"/>
      <point x="522" y="666"/>
      <point x="507" y="680"/>
      <point x="492" y="680" type="curve" smooth="yes"/>
      <point x="478" y="680"/>
      <point x="463" y="671"/>
      <point x="463" y="641" type="curve" smooth="yes"/>
      <point x="463" y="460"/>
      <point x="337" y="206"/>
      <point x="337" y="91" type="curve" smooth="yes"/>
      <point x="337" y="48"/>
      <point x="388" y="12"/>
    </contour>
  </outline>
</glyph>
<glyph name="Ccedilla" format="1">
  <advance width="589"/>
  <unicode hex="00C7"/>
  <outline>
    <contour>
      <point x="560" y="660"/>
      <point x="521" y="702"/>
      <point x="487" y="702" type="curve" smooth="yes"/>
      <point x="301" y="702"/>
      <point x="81" y="395"/>
      <point x="81" y="207" type="curve" smooth="yes"/>
      <point x="81" y="103"/>
      <point x="176" y="25"/>
      <point x="271" y="25" type="curve" smooth="yes"/>
      <point x="380" y="25"/>
      <point x="533" y="132"/>
      <point x="533" y="164" type="curve" smooth="yes"/>
      <point x="533" y="171"/>
      <point x="526" y="178"/>
      <point x="521" y="178" type="curve" smooth="yes"/>
      <point x="489" y="178"/>
      <point x="412" y="89"/>
      <point x="273" y="89" type="curve" smooth="yes"/>
      <point x="210" y="89"/>
      <point x="145" y="129"/>
      <point x="145" y="206" type="curve" smooth="yes"/>
      <point x="145" y="406"/>
      <point x="379" y="641"/>
      <point x="485" y="641" type="curve" smooth="yes"/>
      <point x="520" y="641"/>
      <point x="538" y="623"/>
      <point x="555" y="623" type="curve" smooth="yes"/>
      <point x="559" y="623"/>
      <point x="560" y="624"/>
      <point x="560" y="633" type="curve" smooth="yes"/>
    </contour>
    <contour>
      <point x="270" y="55"/>
      <point x="264" y="63"/>
      <point x="248" y="63" type="curve" smooth="yes"/>
      <point x="238" y="63"/>
      <point x="226" y="59"/>
      <point x="221" y="42" type="curve" smooth="yes"/>
      <point x="207" y="-2"/>
      <point x="181" y="-41"/>
      <point x="181" y="-60" type="curve" smooth="yes"/>
      <point x="181" y="-82"/>
      <point x="263" y="-77"/>
      <point x="272" y="-98" type="curve"/>
      <point x="242" y="-149"/>
      <point x="132" y="-133"/>
      <point x="132" y="-162" type="curve" smooth="yes"/>
      <point x="132" y="-174"/>
      <point x="143" y="-179"/>
      <point x="162" y="-179" type="curve" smooth="yes"/>
      <point x="221" y="-179"/>
      <point x="337" y="-156"/>
      <point x="337" y="-89" type="curve" smooth="yes"/>
      <point x="337" y="-61"/>
      <point x="290" y="-36"/>
      <point x="248" y="-36" type="curve" smooth="yes"/>
      <point x="235" y="-36"/>
      <point x="217" y="-37"/>
      <point x="207" y="-40" type="curve"/>
      <point x="232" y="-49" type="line"/>
      <point x="256" y="-10"/>
      <point x="270" y="24"/>
      <point x="270" y="40" type="curve" smooth="yes"/>
    </contour>
    <contour>
      <point x="276" y="0" type="move" name="cedilla"/>
    </contour>
    <contour>
      <point x="504" y="683" type="move" name="top"/>
    </contour>
  </outline>
</glyph>
<glyph name="Egrave" format="1">
  <advance width="604"/>
  <unicode hex="00C8"/>
  <outline>
    <contour>
      <point x="321" y="12"/>
      <point x="509" y="72"/>
      <point x="509" y="107" type="curve" smooth="yes"/>
      <point x="509" y="116"/>
      <point x="506" y="125"/>
      <point x="497" y="125" type="curve" smooth="yes"/>
      <point x="471" y="125"/>
      <point x="340" y="72"/>
      <point x="178" y="72" type="curve" smooth="yes"/>
      <point x="160" y="72"/>
      <point x="145" y="83"/>
      <point x="145" y="104" type="curve" smooth="yes"/>
      <point x="145" y="169"/>
      <point x="268" y="482"/>
      <point x="268" y="621" type="curve"/>
      <point x="268" y="666"/>
      <point x="253" y="680"/>
      <point x="238" y="680" type="curve" smooth="yes"/>
      <point x="224" y="680"/>
      <point x="209" y="671"/>
      <point x="209" y="641" type="curve" smooth="yes"/>
      <point x="209" y="460"/>
      <point x="83" y="206"/>
      <point x="83" y="91" type="curve" smooth="yes"/>
      <point x="83" y="48"/>
      <point x="134" y="12"/>
      <point x="195" y="12" type="curve" smooth="yes"/>
    </contour>
    <contour>
      <point x="352" y="340"/>
      <point x="486" y="352"/>
      <point x="486" y="392" type="curve" smooth="yes"/>
      <point x="486" y="399"/>
      <point x="473" y="401"/>
      <point x="449" y="401" type="curve" smooth="yes"/>
      <point x="382" y="401"/>
      <point x="351" y="391"/>
      <point x="254" y="391" type="curve" smooth="yes"/>
      <point x="224" y="391"/>
      <point x="212" y="394"/>
      <point x="190" y="394" type="curve" smooth="yes"/>
      <point x="175" y="394"/>
      <point x="166" y="389"/>
      <point x="166" y="375" type="curve" smooth="yes"/>
      <point x="166" y="362"/>
      <point x="180" y="340"/>
      <point x="218" y="340" type="curve" smooth="yes"/>
    </contour>
    <contour>
      <point x="213" y="647"/>
      <point x="227" y="630"/>
      <point x="248" y="630" type="curve" smooth="yes"/>
      <point x="276" y="630"/>
      <point x="325" y="641"/>
      <point x="394" y="646" type="curve" smooth="yes"/>
      <point x="535" y="657"/>
      <point x="612" y="659"/>
      <point x="612" y="682" type="curve" smooth="yes"/>
      <point x="612" y="696"/>
      <point x="545" y="701"/>
      <point x="420" y="701" type="curve" smooth="yes"/>
      <point x="249" y="701"/>
      <point x="213" y="677"/>
      <point x="213" y="661" type="curve" smooth="yes"/>
    </contour>
    <contour>
      <point x="320" y="884"/>
      <point x="348" y="867"/>
      <point x="395" y="831" type="curve" smooth="yes"/>
      <point x="427" y="807"/>
      <point x="454" y="780"/>
      <point x="469" y="780" type="curve" smooth="yes"/>
      <point x="479" y="780"/>
      <point x="489" y="790"/>
      <point x="489" y="799" type="curve" smooth="yes"/>
      <point x="489" y="816"/>
      <point x="476" y="826"/>
      <point x="424" y="882" type="curve" smooth="yes"/>
      <point x="387" y="921"/>
      <point x="372" y="945"/>
      <point x="357" y="945" type="curve" smooth="yes"/>
      <point x="336" y="945"/>
      <point x="320" y="920"/>
      <point x="320" y="903" type="curve" smooth="yes"/>
    </contour>
    <contour>
      <point x="471" y="94" type="move" name="ogonek"/>
    </contour>
    <contour>
      <point x="417" y="683" type="move" name="top"/>
    </contour>
  </outline>
</glyph>
<glyph name="Ecircumflex" format="1">
  <advance width="604"/>
  <unicode hex="00CA"/>
  <outline>
    <contour>
      <point x="471" y="94" type="move" name="ogonek"/>
    </contour>
    <contour>
      <point x="417" y="683" type="move" name="top"/>
    </contour>
    <contour>
      <point x="509" y="107" type="curve" smooth="yes"/>
      <point x="509" y="116"/>
      <point x="506" y="125"/>
      <point x="497" y="125" type="curve" smooth="yes"/>
      <point x="471" y="125"/>
      <point x="340" y="72"/>
      <point x="178" y="72" type="curve" smooth="yes"/>
      <point x="160" y="72"/>
      <point x="145" y="83"/>
      <point x="145" y="104" type="curve" smooth="yes"/>
      <point x="145" y="169"/>
      <point x="268" y="482"/>
      <point x="268" y="621" type="curve"/>
      <point x="268" y="666"/>
      <point x="253" y="680"/>
      <point x="238" y="680" type="curve" smooth="yes"/>
      <point x="224" y="680"/>
      <point x="209" y="671"/>
      <point x="209" y="641" type="curve" smooth="yes"/>
      <point x="209" y="460"/>
      <point x="83" y="206"/>
      <point x="83" y="91" type="curve" smooth="yes"/>
      <point x="83" y="48"/>
      <point x="134" y="12"/>
      <point x="195" y="12" type="curve" smooth="yes"/>
      <point x="321" y="12"/>
      <point x="509" y="72"/>
    </contour>
    <contour>
      <point x="486" y="392" type="curve" smooth="yes"/>
      <point x="486" y="399"/>
      <point x="473" y="401"/>
      <point x="449" y="401" type="curve" smooth="yes"/>
      <point x="382" y="401"/>
      <point x="351" y="391"/>
      <point x="254" y="391" type="curve" smooth="yes"/>
      <point x="224" y="391"/>
      <point x="212" y="394"/>
      <point x="190" y="394" type="curve" smooth="yes"/>
      <point x="175" y="394"/>
      <point x="166" y="389"/>
      <point x="166" y="375" type="curve" smooth="yes"/>
      <point x="166" y="362"/>
      <point x="180" y="340"/>
      <point x="218" y="340" type="curve" smooth="yes"/>
      <point x="352" y="340"/>
      <point x="486" y="352"/>
    </contour>
    <contour>
      <point x="248" y="630" type="curve" smooth="yes"/>
      <point x="276" y="630"/>
      <point x="325" y="641"/>
      <point x="394" y="646" type="curve" smooth="yes"/>
      <point x="535" y="657"/>
      <point x="612" y="659"/>
      <point x="612" y="682" type="curve" smooth="yes"/>
      <point x="612" y="696"/>
      <point x="545" y="701"/>
      <point x="420" y="701" type="curve" smooth="yes"/>
      <point x="249" y="701"/>
      <point x="213" y="677"/>
      <point x="213" y="661" type="curve" smooth="yes"/>
      <point x="213" y="647"/>
      <point x="227" y="630"/>
    </contour>
    <contour>
      <point x="457" y="939" type="curve" smooth="yes"/>
      <point x="438" y="939"/>
      <point x="396" y="910"/>
      <point x="349" y="883" type="curve" smooth="yes"/>
      <point x="300" y="855"/>
      <point x="281" y="837"/>
      <point x="281" y="811" type="curve" smooth="yes"/>
      <point x="281" y="795"/>
      <point x="295" y="788"/>
      <point x="306" y="788" type="curve" smooth="yes"/>
      <point x="338" y="788"/>
      <point x="390" y="851"/>
      <point x="460" y="887" type="curve"/>
      <point x="495" y="842"/>
      <point x="529" y="778"/>
      <point x="562" y="778" type="curve" smooth="yes"/>
      <point x="576" y="778"/>
      <point x="585" y="784"/>
      <point x="585" y="795" type="curve" smooth="yes"/>
      <point x="585" y="813"/>
      <point x="553" y="851"/>
      <point x="518" y="893" type="curve" smooth="yes"/>
      <point x="492" y="924"/>
      <point x="483" y="939"/>
    </contour>
  </outline>
</glyph>
<glyph name="Icircumflex" format="1">
  <advance width="311"/>
  <unicode hex="00CE"/>
  <outline>
    <contour>
      <point x="208" y="559"/>
      <point x="77" y="132"/>
      <point x="77" y="66" type="curve" smooth="yes"/>
      <point x="77" y="45"/>
      <point x="99" y="22"/>
      <point x="111" y="22" type="curve" smooth="yes"/>
      <point x="123" y="22"/>
      <point x="158" y="170"/>
      <point x="192" y="296" type="curve" smooth="yes"/>
      <point x="238" y="465"/>
      <point x="266" y="598"/>
      <point x="266" y="635" type="curve"/>
      <point x="266" y="670"/>
      <point x="240" y="704"/>
      <point x="223" y="704" type="curve" smooth="yes"/>
      <point x="210" y="704"/>
      <point x="208" y="698"/>
      <point x="208" y="675" type="curve" smooth="yes"/>
    </contour>
    <contour>
      <point x="322" y="924"/>
      <point x="313" y="939"/>
      <point x="287" y="939" type="curve" smooth="yes"/>
      <point x="268" y="939"/>
      <point x="226" y="910"/>
      <point x="179" y="883" type="curve" smooth="yes"/>
      <point x="130" y="855"/>
      <point x="111" y="837"/>
      <point x="111" y="811" type="curve" smooth="yes"/>
      <point x="111" y="795"/>
      <point x="125" y="788"/>
      <point x="136" y="788" type="curve" smooth="yes"/>
      <point x="168" y="788"/>
      <point x="220" y="851"/>
      <point x="290" y="887" type="curve"/>
      <point x="325" y="842"/>
      <point x="359" y="778"/>
      <point x="392" y="778" type="curve" smooth="yes"/>
      <point x="406" y="778"/>
      <point x="415" y="784"/>
      <point x="415" y="795" type="curve" smooth="yes"/>
      <point x="415" y="813"/>
      <point x="383" y="851"/>
      <point x="348" y="893" type="curve" smooth="yes"/>
    </contour>
    <contour>
      <point x="74" y="29" type="move" name="ogonek"/>
    </contour>
    <contour>
      <point x="247" y="683" type="move" name="top"/>
    </contour>
  </outline>
</glyph>
<glyph name="Idieresis" format="1">
  <advance width="311"/>
  <unicode hex="00CF"/>
  <outline>
    <contour>
      <point x="208" y="559"/>
      <point x="77" y="132"/>
      <point x="77" y="66" type="curve" smooth="yes"/>
      <point x="77" y="45"/>
      <point x="99" y="22"/>
      <point x="111" y="22" type="curve" smooth="yes"/>
      <point x="123" y="22"/>
      <point x="158" y="170"/>
      <point x="192" y="296" type="curve" smooth="yes"/>
      <point x="238" y="465"/>
      <point x="266" y="598"/>
      <point x="266" y="635" type="curve"/>
      <point x="266" y="670"/>
      <point x="240" y="704"/>
      <point x="223" y="704" type="curve" smooth="yes"/>
      <point x="210" y="704"/>
      <point x="208" y="698"/>
      <point x="208" y="675" type="curve" smooth="yes"/>
    </contour>
    <contour>
      <point x="250" y="844"/>
      <point x="220" y="905"/>
      <point x="201" y="905" type="curve" smooth="yes"/>
      <point x="184" y="905"/>
      <point x="166" y="883"/>
      <point x="166" y="864" type="curve" smooth="yes"/>
      <point x="166" y="840"/>
      <point x="207" y="799"/>
      <point x="234" y="799" type="curve" smooth="yes"/>
      <point x="242" y="799"/>
      <point x="250" y="808"/>
      <point x="250" y="816" type="curve" smooth="yes"/>
    </contour>
    <contour>
      <point x="386" y="844"/>
      <point x="356" y="905"/>
      <point x="337" y="905" type="curve" smooth="yes"/>
      <point x="320" y="905"/>
      <point x="302" y="883"/>
      <point x="302" y="864" type="curve" smooth="yes"/>
      <point x="302" y="840"/>
      <point x="343" y="799"/>
      <point x="370" y="799" type="curve" smooth="yes"/>
      <point x="378" y="799"/>
      <point x="386" y="808"/>
      <point x="386" y="816" type="curve" smooth="yes"/>
    </contour>
    <contour>
      <point x="74" y="29" type="move" name="ogonek"/>
    </contour>
    <contour>
      <point x="247" y="683" type="move" name="top"/>
    </contour>
  </outline>
</glyph>
<glyph name="Eth" format="1">
  <advance width="603"/>
  <unicode hex="00D0"/>
  <outline>
    <contour>
      <point x="312" y="620" type="move" name="top"/>
    </contour>
    <contour>
      <point x="267" y="333" type="curve" smooth="yes"/>
      <point x="233" y="333"/>
      <point x="111" y="323"/>
      <point x="49" y="305" type="curve" smooth="yes"/>
      <point x="27" y="299"/>
      <point x="13" y="291"/>
      <point x="13" y="282" type="curve" smooth="yes"/>
      <point x="13" y="265"/>
      <point x="65" y="265"/>
      <point x="71" y="265" type="curve" smooth="yes"/>
      <point x="93" y="265"/>
      <point x="239" y="279"/>
      <point x="295" y="297" type="curve" smooth="yes"/>
      <point x="309" y="301"/>
      <point x="317" y="306"/>
      <point x="317" y="311" type="curve" smooth="yes"/>
      <point x="317" y="326"/>
      <point x="287" y="333"/>
    </contour>
    <component base="D" xOffset="-2" yOffset="-32"/>
  </outline>
</glyph>
<glyph name="Ntilde" format="1">
  <advance width="702"/>
  <unicode hex="00D1"/>
  <outline>
    <contour>
      <point x="656" y="676"/>
      <point x="631" y="708"/>
      <point x="615" y="708" type="curve" smooth="yes"/>
      <point x="599" y="708"/>
      <point x="592" y="680"/>
      <point x="592" y="653" type="curve" smooth="yes"/>
      <point x="592" y="601"/>
      <point x="587" y="331"/>
      <point x="491" y="88" type="curve"/>
      <point x="417" y="247"/>
      <point x="273" y="602"/>
      <point x="261" y="651" type="curve" smooth="yes"/>
      <point x="253" y="683"/>
      <point x="226" y="708"/>
      <point x="216" y="708" type="curve" smooth="yes"/>
      <point x="204" y="708"/>
      <point x="202" y="703"/>
      <point x="202" y="679" type="curve" smooth="yes"/>
      <point x="202" y="563"/>
      <point x="64" y="136"/>
      <point x="64" y="64" type="curve" smooth="yes"/>
      <point x="64" y="42"/>
      <point x="86" y="19"/>
      <point x="96" y="19" type="curve" smooth="yes"/>
      <point x="108" y="19"/>
      <point x="115" y="70"/>
      <point x="241" y="546" type="curve"/>
      <point x="271" y="460"/>
      <point x="419" y="108"/>
      <point x="444" y="59" type="curve" smooth="yes"/>
      <point x="456" y="35"/>
      <point x="475" y="19"/>
      <point x="490" y="19" type="curve" smooth="yes"/>
      <point x="573" y="19"/>
      <point x="656" y="474"/>
      <point x="656" y="652" type="curve" smooth="yes"/>
    </contour>
    <contour>
      <point x="358" y="908"/>
      <point x="298" y="846"/>
      <point x="298" y="804" type="curve" smooth="yes"/>
      <point x="298" y="792"/>
      <point x="305" y="783"/>
      <point x="320" y="783" type="curve" smooth="yes"/>
      <point x="344" y="783"/>
      <point x="355" y="834"/>
      <point x="404" y="858" type="curve"/>
      <point x="441" y="806"/>
      <point x="472" y="779"/>
      <point x="508" y="779" type="curve" smooth="yes"/>
      <point x="562" y="779"/>
      <point x="601" y="833"/>
      <point x="601" y="871" type="curve" smooth="yes"/>
      <point x="601" y="886"/>
      <point x="595" y="895"/>
      <point x="584" y="895" type="curve" smooth="yes"/>
      <point x="555" y="895"/>
      <point x="550" y="834"/>
      <point x="510" y="832" type="curve" smooth="yes"/>
      <point x="473" y="834"/>
      <point x="468" y="908"/>
      <point x="407" y="908" type="curve" smooth="yes"/>
    </contour>
    <contour>
      <point x="410" y="683" type="move" name="top"/>
    </contour>
  </outline>
</glyph>
<glyph name="Ocircumflex" format="1">
  <advance width="610"/>
  <unicode hex="00D4"/>
  <outline>
    <contour>
      <point x="455" y="683" type="move" name="top"/>
    </contour>
    <contour>
      <point x="218" y="19" type="curve" smooth="yes"/>
      <point x="396" y="19"/>
      <point x="584" y="283"/>
      <point x="584" y="469" type="curve" smooth="yes"/>
      <point x="584" y="589"/>
      <point x="507" y="708"/>
      <point x="402" y="708" type="curve" smooth="yes"/>
      <point x="261" y="708"/>
      <point x="66" y="454"/>
      <point x="66" y="206" type="curve" smooth="yes"/>
      <point x="66" y="127"/>
      <point x="130" y="19"/>
    </contour>
    <contour>
      <point x="519" y="457" type="curve" smooth="yes"/>
      <point x="519" y="306"/>
      <point x="338" y="75"/>
      <point x="227" y="75" type="curve" smooth="yes"/>
      <point x="178" y="75"/>
      <point x="126" y="127"/>
      <point x="126" y="215" type="curve" smooth="yes"/>
      <point x="126" y="419"/>
      <point x="316" y="648"/>
      <point x="404" y="648" type="curve" smooth="yes"/>
      <point x="456" y="648"/>
      <point x="519" y="581"/>
    </contour>
    <contour>
      <point x="495" y="939" type="curve" smooth="yes"/>
      <point x="476" y="939"/>
      <point x="434" y="910"/>
      <point x="387" y="883" type="curve" smooth="yes"/>
      <point x="338" y="855"/>
      <point x="319" y="837"/>
      <point x="319" y="811" type="curve" smooth="yes"/>
      <point x="319" y="795"/>
      <point x="333" y="788"/>
      <point x="344" y="788" type="curve" smooth="yes"/>
      <point x="376" y="788"/>
      <point x="428" y="851"/>
      <point x="498" y="887" type="curve"/>
      <point x="533" y="842"/>
      <point x="567" y="778"/>
      <point x="600" y="778" type="curve" smooth="yes"/>
      <point x="614" y="778"/>
      <point x="623" y="784"/>
      <point x="623" y="795" type="curve" smooth="yes"/>
      <point x="623" y="813"/>
      <point x="591" y="851"/>
      <point x="556" y="893" type="curve" smooth="yes"/>
      <point x="530" y="924"/>
      <point x="521" y="939"/>
    </contour>
  </outline>
</glyph>
<glyph name="Otilde" format="1">
  <advance width="610"/>
  <unicode hex="00D5"/>
  <outline>
    <contour>
      <point x="66" y="127"/>
      <point x="130" y="19"/>
      <point x="218" y="19" type="curve" smooth="yes"/>
      <point x="396" y="19"/>
      <point x="584" y="283"/>
      <point x="584" y="469" type="curve" smooth="yes"/>
      <point x="584" y="589"/>
      <point x="507" y="708"/>
      <point x="402" y="708" type="curve" smooth="yes"/>
      <point x="261" y="708"/>
      <point x="66" y="454"/>
      <point x="66" y="206" type="curve" smooth="yes"/>
    </contour>
    <contour>
      <point x="456" y="648"/>
      <point x="519" y="581"/>
      <point x="519" y="457" type="curve" smooth="yes"/>
      <point x="519" y="306"/>
      <point x="338" y="75"/>
      <point x="227" y="75" type="curve" smooth="yes"/>
      <point x="178" y="75"/>
      <point x="126" y="127"/>
      <point x="126" y="215" type="curve" smooth="yes"/>
      <point x="126" y="419"/>
      <point x="316" y="648"/>
      <point x="404" y="648" type="curve" smooth="yes"/>
    </contour>
    <contour>
      <point x="403" y="908"/>
      <point x="343" y="846"/>
      <point x="343" y="804" type="curve" smooth="yes"/>
      <point x="343" y="792"/>
      <point x="350" y="783"/>
      <point x="365" y="783" type="curve" smooth="yes"/>
      <point x="389" y="783"/>
      <point x="400" y="834"/>
      <point x="449" y="858" type="curve"/>
      <point x="486" y="806"/>
      <point x="517" y="779"/>
      <point x="553" y="779" type="curve" smooth="yes"/>
      <point x="607" y="779"/>
      <point x="646" y="833"/>
      <point x="646" y="871" type="curve" smooth="yes"/>
      <point x="646" y="886"/>
      <point x="640" y="895"/>
      <point x="629" y="895" type="curve" smooth="yes"/>
      <point x="600" y="895"/>
      <point x="595" y="834"/>
      <point x="555" y="832" type="curve" smooth="yes"/>
      <point x="518" y="834"/>
      <point x="513" y="908"/>
      <point x="452" y="908" type="curve" smooth="yes"/>
    </contour>
    <contour>
      <point x="455" y="683" type="move" name="top"/>
    </contour>
  </outline>
</glyph>
<glyph name="multiply" format="1">
  <advance width="517"/>
  <unicode hex="00D7"/>
  <outline>
    <contour>
      <point x="436" y="174"/>
      <point x="181" y="451"/>
      <point x="181" y="511" type="curve" smooth="yes"/>
      <point x="181" y="530"/>
      <point x="146" y="541"/>
      <point x="124" y="541" type="curve" smooth="yes"/>
      <point x="110" y="541"/>
      <point x="107" y="535"/>
      <point x="107" y="525" type="curve" smooth="yes"/>
      <point x="107" y="478"/>
      <point x="350" y="139"/>
      <point x="415" y="139" type="curve" smooth="yes"/>
      <point x="425" y="139"/>
      <point x="436" y="144"/>
      <point x="436" y="152" type="curve" smooth="yes"/>
    </contour>
    <contour>
      <point x="378" y="394"/>
      <point x="507" y="502"/>
      <point x="507" y="515" type="curve" smooth="yes"/>
      <point x="507" y="527"/>
      <point x="485" y="541"/>
      <point x="468" y="541" type="curve" smooth="yes"/>
      <point x="436" y="541"/>
      <point x="370" y="467"/>
      <point x="255" y="350" type="curve" smooth="yes"/>
      <point x="148" y="242"/>
      <point x="53" y="187"/>
      <point x="53" y="167" type="curve" smooth="yes"/>
      <point x="53" y="155"/>
      <point x="75" y="139"/>
      <point x="91" y="139" type="curve" smooth="yes"/>
      <point x="115" y="139"/>
      <point x="220" y="245"/>
      <point x="305" y="325" type="curve" smooth="yes"/>
    </contour>
  </outline>
</glyph>
<glyph name="Oslash" format="1">
  <advance width="610"/>
  <unicode hex="00D8"/>
  <outline>
    <contour>
      <point x="66" y="206" type="curve" smooth="yes"/>
      <point x="66" y="127"/>
      <point x="130" y="19"/>
      <point x="218" y="19" type="curve" smooth="yes"/>
      <point x="396" y="19"/>
      <point x="584" y="283"/>
      <point x="584" y="469" type="curve" smooth="yes"/>
      <point x="584" y="589"/>
      <point x="507" y="708"/>
      <point x="402" y="708" type="curve" smooth="yes"/>
      <point x="261" y="708"/>
      <point x="66" y="454"/>
    </contour>
    <contour>
      <point x="404" y="648" type="curve" smooth="yes"/>
      <point x="456" y="648"/>
      <point x="519" y="581"/>
      <point x="519" y="457" type="curve" smooth="yes"/>
      <point x="519" y="306"/>
      <point x="338" y="75"/>
      <point x="227" y="75" type="curve" smooth="yes"/>
      <point x="178" y="75"/>
      <point x="126" y="127"/>
      <point x="126" y="215" type="curve" smooth="yes"/>
      <point x="126" y="419"/>
      <point x="316" y="648"/>
    </contour>
    <contour>
      <point x="607" y="685" type="curve" smooth="yes"/>
      <point x="607" y="696"/>
      <point x="600" y="703"/>
      <point x="590" y="703" type="curve" smooth="yes"/>
      <point x="550" y="703"/>
      <point x="410" y="521"/>
      <point x="276" y="356" type="curve" smooth="yes"/>
      <point x="163" y="217"/>
      <point x="38" y="72"/>
      <point x="38" y="42" type="curve" smooth="yes"/>
      <point x="38" y="27"/>
      <point x="48" y="17"/>
      <point x="64" y="17" type="curve" smooth="yes"/>
      <point x="91" y="17"/>
      <point x="186" y="182"/>
      <point x="564" y="613" type="curve" smooth="yes"/>
      <point x="597" y="650"/>
      <point x="607" y="671"/>
    </contour>
  </outline>
</glyph>
<glyph name="Thorn" format="1">
  <advance width="486"/>
  <unicode hex="00DE"/>
  <outline>
    <contour>
      <point x="89" y="17" type="curve" smooth="yes"/>
      <point x="104" y="17"/>
      <point x="134" y="143"/>
      <point x="166" y="257" type="curve" smooth="yes"/>
      <point x="208" y="408"/>
      <point x="229" y="542"/>
      <point x="229" y="578" type="curve" smooth="yes"/>
      <point x="229" y="614"/>
      <point x="202" y="644"/>
      <point x="186" y="644" type="curve" smooth="yes"/>
      <point x="171" y="644"/>
      <point x="168" y="636"/>
      <point x="168" y="614" type="curve" smooth="yes"/>
      <point x="168" y="447"/>
      <point x="57" y="125"/>
      <point x="57" y="60" type="curve" smooth="yes"/>
      <point x="57" y="39"/>
      <point x="75" y="17"/>
    </contour>
    <contour>
      <point x="171" y="408" type="line"/>
      <point x="215" y="432"/>
      <point x="250" y="446"/>
      <point x="284" y="446" type="curve" smooth="yes"/>
      <point x="334" y="446"/>
      <point x="385" y="411"/>
      <point x="385" y="355" type="curve" smooth="yes"/>
      <point x="385" y="296"/>
      <point x="287" y="234"/>
      <point x="187" y="234" type="curve" smooth="yes"/>
      <point x="168" y="234"/>
      <point x="149" y="236"/>
      <point x="131" y="241" type="curve"/>
      <point x="129" y="183" type="line"/>
      <point x="147" y="180"/>
      <point x="167" y="178"/>
      <point x="186" y="178" type="curve" smooth="yes"/>
      <point x="314" y="178"/>
      <point x="444" y="253"/>
      <point x="444" y="359" type="curve" smooth="yes"/>
      <point x="444" y="445"/>
      <point x="357" y="509"/>
      <point x="286" y="509" type="curve" smooth="yes"/>
      <point x="262" y="509"/>
      <point x="224" y="500"/>
      <point x="190" y="484" type="curve"/>
    </contour>
  </outline>
</glyph>
<glyph name="germandbls" format="1">
  <advance width="577"/>
  <unicode hex="00DF"/>
  <outline>
    <contour>
      <point x="366" y="371" type="curve" smooth="yes"/>
      <point x="366" y="396"/>
      <point x="506" y="410"/>
      <point x="506" y="532" type="curve" smooth="yes"/>
      <point x="506" y="617"/>
      <point x="433" y="703"/>
      <point x="358" y="703" type="curve" smooth="yes"/>
      <point x="255" y="703"/>
      <point x="184" y="634"/>
      <point x="163" y="522" type="curve" smooth="yes"/>
      <point x="104" y="211"/>
      <point x="60" y="112"/>
      <point x="60" y="58" type="curve" smooth="yes"/>
      <point x="60" y="38"/>
      <point x="75" y="17"/>
      <point x="90" y="17" type="curve" smooth="yes"/>
      <point x="115" y="17"/>
      <point x="163" y="198"/>
      <point x="225" y="510" type="curve" smooth="yes"/>
      <point x="242" y="592"/>
      <point x="293" y="644"/>
      <point x="349" y="644" type="curve" smooth="yes"/>
      <point x="390" y="644"/>
      <point x="445" y="595"/>
      <point x="445" y="529" type="curve" smooth="yes"/>
      <point x="445" y="443"/>
      <point x="303" y="423"/>
      <point x="303" y="379" type="curve" smooth="yes"/>
      <point x="303" y="307"/>
      <point x="450" y="265"/>
      <point x="450" y="180" type="curve" smooth="yes"/>
      <point x="450" y="117"/>
      <point x="375" y="73"/>
      <point x="314" y="73" type="curve" smooth="yes"/>
      <point x="294" y="73"/>
      <point x="273" y="75"/>
      <point x="260" y="75" type="curve" smooth="yes"/>
      <point x="246" y="75"/>
      <point x="238" y="73"/>
      <point x="238" y="60" type="curve" smooth="yes"/>
      <point x="238" y="39"/>
      <point x="265" y="19"/>
      <point x="317" y="19" type="curve" smooth="yes"/>
      <point x="404" y="19"/>
      <point x="510" y="68"/>
      <point x="510" y="180" type="curve" smooth="yes"/>
      <point x="510" y="286"/>
      <point x="366" y="349"/>
    </contour>
  </outline>
</glyph>
<glyph name="agrave" format="1">
  <advance width="447"/>
  <unicode hex="00E0"/>
  <outline>
    <contour>
      <point x="302" y="-31" type="move" name="ogonek"/>
    </contour>
    <contour>
      <point x="303" y="470" type="move" name="top"/>
    </contour>
    <contour>
      <point x="280" y="502" type="curve" smooth="yes"/>
      <point x="161" y="502"/>
      <point x="0" y="259"/>
      <point x="0" y="129" type="curve" smooth="yes"/>
      <point x="0" y="72"/>
      <point x="69" y="17"/>
      <point x="131" y="17" type="curve" smooth="yes"/>
      <point x="210" y="17"/>
      <point x="299" y="120"/>
      <point x="326" y="206" type="curve"/>
      <point x="309" y="209" type="line"/>
      <point x="303" y="192"/>
      <point x="301" y="174"/>
      <point x="301" y="156" type="curve" smooth="yes"/>
      <point x="301" y="77"/>
      <point x="302" y="17"/>
      <point x="328" y="17" type="curve" smooth="yes"/>
      <point x="348" y="17"/>
      <point x="343" y="72"/>
      <point x="354" y="134" type="curve" smooth="yes"/>
      <point x="368" y="211"/>
      <point x="371" y="261"/>
      <point x="371" y="291" type="curve" smooth="yes"/>
      <point x="371" y="313"/>
      <point x="355" y="330"/>
      <point x="339" y="330" type="curve" smooth="yes"/>
      <point x="325" y="330"/>
      <point x="317" y="320"/>
      <point x="314" y="308" type="curve" smooth="yes"/>
      <point x="277" y="177"/>
      <point x="195" y="76"/>
      <point x="126" y="76" type="curve" smooth="yes"/>
      <point x="97" y="76"/>
      <point x="62" y="97"/>
      <point x="62" y="128" type="curve" smooth="yes"/>
      <point x="62" y="228"/>
      <point x="206" y="443"/>
      <point x="285" y="443" type="curve" smooth="yes"/>
      <point x="318" y="443"/>
      <point x="331" y="395"/>
      <point x="331" y="354" type="curve" smooth="yes"/>
      <point x="331" y="318"/>
      <point x="334" y="305"/>
      <point x="347" y="305" type="curve" smooth="yes"/>
      <point x="358" y="305"/>
      <point x="384" y="344"/>
      <point x="384" y="378" type="curve" smooth="yes"/>
      <point x="384" y="417"/>
      <point x="350" y="502"/>
    </contour>
    <contour>
      <point x="310" y="618" type="curve" smooth="yes"/>
      <point x="342" y="594"/>
      <point x="369" y="567"/>
      <point x="384" y="567" type="curve" smooth="yes"/>
      <point x="394" y="567"/>
      <point x="404" y="577"/>
      <point x="404" y="586" type="curve" smooth="yes"/>
      <point x="404" y="603"/>
      <point x="391" y="613"/>
      <point x="339" y="669" type="curve" smooth="yes"/>
      <point x="302" y="708"/>
      <point x="287" y="732"/>
      <point x="272" y="732" type="curve" smooth="yes"/>
      <point x="251" y="732"/>
      <point x="235" y="707"/>
      <point x="235" y="690" type="curve" smooth="yes"/>
      <point x="235" y="671"/>
      <point x="263" y="654"/>
    </contour>
  </outline>
</glyph>
<glyph name="ae" format="1">
  <advance width="729"/>
  <unicode hex="00E6"/>
  <outline>
    <contour>
      <point x="165" y="502"/>
      <point x="29" y="262"/>
      <point x="29" y="132" type="curve" smooth="yes"/>
      <point x="29" y="68"/>
      <point x="93" y="17"/>
      <point x="147" y="17" type="curve" smooth="yes"/>
      <point x="218" y="17"/>
      <point x="265" y="76"/>
      <point x="316" y="156" type="curve"/>
      <point x="323" y="70"/>
      <point x="397" y="17"/>
      <point x="481" y="17" type="curve" smooth="yes"/>
      <point x="550" y="17"/>
      <point x="648" y="71"/>
      <point x="648" y="96" type="curve" smooth="yes"/>
      <point x="648" y="106"/>
      <point x="641" y="112"/>
      <point x="630" y="112" type="curve" smooth="yes"/>
      <point x="602" y="112"/>
      <point x="554" y="74"/>
      <point x="470" y="74" type="curve" smooth="yes"/>
      <point x="414" y="74"/>
      <point x="371" y="106"/>
      <point x="371" y="156" type="curve" smooth="yes"/>
      <point x="371" y="185"/>
      <point x="376" y="218"/>
      <point x="387" y="250" type="curve"/>
      <point x="432" y="239"/>
      <point x="476" y="231"/>
      <point x="523" y="231" type="curve" smooth="yes"/>
      <point x="624" y="231"/>
      <point x="707" y="274"/>
      <point x="707" y="341" type="curve" smooth="yes"/>
      <point x="707" y="413"/>
      <point x="637" y="502"/>
      <point x="561" y="502" type="curve" smooth="yes"/>
      <point x="501" y="502"/>
      <point x="448" y="461"/>
      <point x="408" y="411" type="curve"/>
      <point x="395" y="459"/>
      <point x="356" y="502"/>
      <point x="299" y="502" type="curve" smooth="yes"/>
    </contour>
    <contour>
      <point x="441" y="375"/>
      <point x="504" y="446"/>
      <point x="567" y="446" type="curve" smooth="yes"/>
      <point x="607" y="446"/>
      <point x="650" y="390"/>
      <point x="650" y="347" type="curve" smooth="yes"/>
      <point x="650" y="308"/>
      <point x="602" y="278"/>
      <point x="511" y="278" type="curve" smooth="yes"/>
      <point x="481" y="278"/>
      <point x="442" y="283"/>
      <point x="404" y="292" type="curve"/>
    </contour>
    <contour>
      <point x="346" y="443"/>
      <point x="361" y="406"/>
      <point x="362" y="341" type="curve"/>
      <point x="353" y="327"/>
      <point x="347" y="312"/>
      <point x="342" y="299" type="curve" smooth="yes"/>
      <point x="280" y="159"/>
      <point x="221" y="76"/>
      <point x="142" y="76" type="curve" smooth="yes"/>
      <point x="119" y="76"/>
      <point x="88" y="97"/>
      <point x="88" y="128" type="curve" smooth="yes"/>
      <point x="88" y="228"/>
      <point x="207" y="443"/>
      <point x="304" y="443" type="curve" smooth="yes"/>
    </contour>
    <contour>
      <point x="1" y="0" type="move" name="ogonek"/>
    </contour>
    <contour>
      <point x="1" y="0" type="move" name="top"/>
    </contour>
  </outline>
</glyph>
<glyph name="egrave" format="1">
  <advance width="429"/>
  <unicode hex="00E8"/>
  <outline>
    <contour>
      <point x="141" y="502"/>
      <point x="15" y="315"/>
      <point x="15" y="173" type="curve" smooth="yes"/>
      <point x="15" y="78"/>
      <point x="91" y="17"/>
      <point x="181" y="17" type="curve" smooth="yes"/>
      <point x="250" y="17"/>
      <point x="348" y="71"/>
      <point x="348" y="96" type="curve" smooth="yes"/>
      <point x="348" y="106"/>
      <point x="342" y="112"/>
      <point x="330" y="112" type="curve" smooth="yes"/>
      <point x="302" y="112"/>
      <point x="254" y="74"/>
      <point x="170" y="74" type="curve" smooth="yes"/>
      <point x="114" y="74"/>
      <point x="71" y="106"/>
      <point x="71" y="156" type="curve" smooth="yes"/>
      <point x="71" y="277"/>
      <point x="171" y="446"/>
      <point x="267" y="446" type="curve" smooth="yes"/>
      <point x="307" y="446"/>
      <point x="350" y="390"/>
      <point x="350" y="347" type="curve" smooth="yes"/>
      <point x="350" y="308"/>
      <point x="302" y="278"/>
      <point x="211" y="278" type="curve" smooth="yes"/>
      <point x="173" y="278"/>
      <point x="118" y="286"/>
      <point x="73" y="301" type="curve"/>
      <point x="62" y="257" type="line"/>
      <point x="114" y="242"/>
      <point x="167" y="231"/>
      <point x="223" y="231" type="curve" smooth="yes"/>
      <point x="324" y="231"/>
      <point x="407" y="274"/>
      <point x="407" y="341" type="curve" smooth="yes"/>
      <point x="407" y="413"/>
      <point x="337" y="502"/>
      <point x="261" y="502" type="curve" smooth="yes"/>
    </contour>
    <contour>
      <point x="187" y="671"/>
      <point x="215" y="654"/>
      <point x="262" y="618" type="curve" smooth="yes"/>
      <point x="294" y="594"/>
      <point x="321" y="567"/>
      <point x="336" y="567" type="curve" smooth="yes"/>
      <point x="346" y="567"/>
      <point x="356" y="577"/>
      <point x="356" y="586" type="curve" smooth="yes"/>
      <point x="356" y="603"/>
      <point x="343" y="613"/>
      <point x="291" y="669" type="curve" smooth="yes"/>
      <point x="254" y="708"/>
      <point x="239" y="732"/>
      <point x="224" y="732" type="curve" smooth="yes"/>
      <point x="203" y="732"/>
      <point x="187" y="707"/>
      <point x="187" y="690" type="curve" smooth="yes"/>
    </contour>
    <contour>
      <point x="244" y="-8" type="move" name="ogonek"/>
    </contour>
    <contour>
      <point x="259" y="470" type="move" name="top"/>
    </contour>
  </outline>
</glyph>
<glyph name="eacute" format="1">
  <advance width="429"/>
  <unicode hex="00E9"/>
  <outline>
    <contour>
      <point x="313" y="621"/>
      <point x="292" y="605"/>
      <point x="292" y="586" type="curve" smooth="yes"/>
      <point x="292" y="574"/>
      <point x="302" y="567"/>
      <point x="311" y="567" type="curve" smooth="yes"/>
      <point x="326" y="567"/>
      <point x="341" y="581"/>
      <point x="391" y="620" type="curve" smooth="yes"/>
      <point x="443" y="661"/>
      <point x="465" y="674"/>
      <point x="465" y="695" type="curve" smooth="yes"/>
      <point x="465" y="713"/>
      <point x="451" y="738"/>
      <point x="434" y="738" type="curve" smooth="yes"/>
      <point x="417" y="738"/>
      <point x="389" y="702"/>
      <point x="357" y="668" type="curve" smooth="yes"/>
    </contour>
    <contour>
      <point x="141" y="502"/>
      <point x="15" y="315"/>
      <point x="15" y="173" type="curve" smooth="yes"/>
      <point x="15" y="78"/>
      <point x="91" y="17"/>
      <point x="181" y="17" type="curve" smooth="yes"/>
      <point x="250" y="17"/>
      <point x="348" y="71"/>
      <point x="348" y="96" type="curve" smooth="yes"/>
      <point x="348" y="106"/>
      <point x="342" y="112"/>
      <point x="330" y="112" type="curve" smooth="yes"/>
      <point x="302" y="112"/>
      <point x="254" y="74"/>
      <point x="170" y="74" type="curve" smooth="yes"/>
      <point x="114" y="74"/>
      <point x="71" y="106"/>
      <point x="71" y="156" type="curve" smooth="yes"/>
      <point x="71" y="277"/>
      <point x="171" y="446"/>
      <point x="267" y="446" type="curve" smooth="yes"/>
      <point x="307" y="446"/>
      <point x="350" y="390"/>
      <point x="350" y="347" type="curve" smooth="yes"/>
      <point x="350" y="308"/>
      <point x="302" y="278"/>
      <point x="211" y="278" type="curve" smooth="yes"/>
      <point x="173" y="278"/>
      <point x="118" y="286"/>
      <point x="73" y="301" type="curve"/>
      <point x="62" y="257" type="line"/>
      <point x="114" y="242"/>
      <point x="167" y="231"/>
      <point x="223" y="231" type="curve" smooth="yes"/>
      <point x="324" y="231"/>
      <point x="407" y="274"/>
      <point x="407" y="341" type="curve" smooth="yes"/>
      <point x="407" y="413"/>
      <point x="337" y="502"/>
      <point x="261" y="502" type="curve" smooth="yes"/>
    </contour>
    <contour>
      <point x="244" y="-8" type="move" name="ogonek"/>
    </contour>
    <contour>
      <point x="259" y="470" type="move" name="top"/>
    </contour>
  </outline>
</glyph>
<glyph name="ecircumflex" format="1">
  <advance width="429"/>
  <unicode hex="00EA"/>
  <outline>
    <contour>
      <point x="359" y="711"/>
      <point x="350" y="726"/>
      <point x="324" y="726" type="curve" smooth="yes"/>
      <point x="305" y="726"/>
      <point x="263" y="697"/>
      <point x="216" y="670" type="curve" smooth="yes"/>
      <point x="167" y="642"/>
      <point x="148" y="624"/>
      <point x="148" y="598" type="curve" smooth="yes"/>
      <point x="148" y="582"/>
      <point x="162" y="575"/>
      <point x="173" y="575" type="curve" smooth="yes"/>
      <point x="205" y="575"/>
      <point x="257" y="638"/>
      <point x="327" y="674" type="curve"/>
      <point x="362" y="629"/>
      <point x="396" y="565"/>
      <point x="429" y="565" type="curve" smooth="yes"/>
      <point x="443" y="565"/>
      <point x="452" y="571"/>
      <point x="452" y="582" type="curve" smooth="yes"/>
      <point x="452" y="600"/>
      <point x="420" y="638"/>
      <point x="385" y="680" type="curve" smooth="yes"/>
    </contour>
    <contour>
      <point x="141" y="502"/>
      <point x="15" y="315"/>
      <point x="15" y="173" type="curve" smooth="yes"/>
      <point x="15" y="78"/>
      <point x="91" y="17"/>
      <point x="181" y="17" type="curve" smooth="yes"/>
      <point x="250" y="17"/>
      <point x="348" y="71"/>
      <point x="348" y="96" type="curve" smooth="yes"/>
      <point x="348" y="106"/>
      <point x="342" y="112"/>
      <point x="330" y="112" type="curve" smooth="yes"/>
      <point x="302" y="112"/>
      <point x="254" y="74"/>
      <point x="170" y="74" type="curve" smooth="yes"/>
      <point x="114" y="74"/>
      <point x="71" y="106"/>
      <point x="71" y="156" type="curve" smooth="yes"/>
      <point x="71" y="277"/>
      <point x="171" y="446"/>
      <point x="267" y="446" type="curve" smooth="yes"/>
      <point x="307" y="446"/>
      <point x="350" y="390"/>
      <point x="350" y="347" type="curve" smooth="yes"/>
      <point x="350" y="308"/>
      <point x="302" y="278"/>
      <point x="211" y="278" type="curve" smooth="yes"/>
      <point x="173" y="278"/>
      <point x="118" y="286"/>
      <point x="73" y="301" type="curve"/>
      <point x="62" y="257" type="line"/>
      <point x="114" y="242"/>
      <point x="167" y="231"/>
      <point x="223" y="231" type="curve" smooth="yes"/>
      <point x="324" y="231"/>
      <point x="407" y="274"/>
      <point x="407" y="341" type="curve" smooth="yes"/>
      <point x="407" y="413"/>
      <point x="337" y="502"/>
      <point x="261" y="502" type="curve" smooth="yes"/>
    </contour>
    <contour>
      <point x="244" y="-8" type="move" name="ogonek"/>
    </contour>
    <contour>
      <point x="259" y="470" type="move" name="top"/>
    </contour>
  </outline>
</glyph>
<glyph name="edieresis" format="1">
  <advance width="429"/>
  <unicode hex="00EB"/>
  <outline>
    <contour>
      <point x="244" y="-8" type="move" name="ogonek"/>
    </contour>
    <contour>
      <point x="259" y="470" type="move" name="top"/>
    </contour>
    <contour>
      <point x="238" y="693" type="curve" smooth="yes"/>
      <point x="221" y="693"/>
      <point x="203" y="671"/>
      <point x="203" y="652" type="curve" smooth="yes"/>
      <point x="203" y="628"/>
      <point x="244" y="587"/>
      <point x="271" y="587" type="curve" smooth="yes"/>
      <point x="279" y="587"/>
      <point x="287" y="596"/>
      <point x="287" y="604" type="curve" smooth="yes"/>
      <point x="287" y="632"/>
      <point x="257" y="693"/>
    </contour>
    <contour>
      <point x="374" y="693" type="curve" smooth="yes"/>
      <point x="357" y="693"/>
      <point x="339" y="671"/>
      <point x="339" y="652" type="curve" smooth="yes"/>
      <point x="339" y="628"/>
      <point x="380" y="587"/>
      <point x="407" y="587" type="curve" smooth="yes"/>
      <point x="415" y="587"/>
      <point x="423" y="596"/>
      <point x="423" y="604" type="curve" smooth="yes"/>
      <point x="423" y="632"/>
      <point x="393" y="693"/>
    </contour>
    <contour>
      <point x="15" y="173" type="curve" smooth="yes"/>
      <point x="15" y="78"/>
      <point x="91" y="17"/>
      <point x="181" y="17" type="curve" smooth="yes"/>
      <point x="250" y="17"/>
      <point x="348" y="71"/>
      <point x="348" y="96" type="curve" smooth="yes"/>
      <point x="348" y="106"/>
      <point x="342" y="112"/>
      <point x="330" y="112" type="curve" smooth="yes"/>
      <point x="302" y="112"/>
      <point x="254" y="74"/>
      <point x="170" y="74" type="curve" smooth="yes"/>
      <point x="114" y="74"/>
      <point x="71" y="106"/>
      <point x="71" y="156" type="curve" smooth="yes"/>
      <point x="71" y="277"/>
      <point x="171" y="446"/>
      <point x="267" y="446" type="curve" smooth="yes"/>
      <point x="307" y="446"/>
      <point x="350" y="390"/>
      <point x="350" y="347" type="curve" smooth="yes"/>
      <point x="350" y="308"/>
      <point x="302" y="278"/>
      <point x="211" y="278" type="curve" smooth="yes"/>
      <point x="173" y="278"/>
      <point x="118" y="286"/>
      <point x="73" y="301" type="curve"/>
      <point x="62" y="257" type="line"/>
      <point x="114" y="242"/>
      <point x="167" y="231"/>
      <point x="223" y="231" type="curve" smooth="yes"/>
      <point x="324" y="231"/>
      <point x="407" y="274"/>
      <point x="407" y="341" type="curve" smooth="yes"/>
      <point x="407" y="413"/>
      <point x="337" y="502"/>
      <point x="261" y="502" type="curve" smooth="yes"/>
      <point x="141" y="502"/>
      <point x="15" y="315"/>
    </contour>
  </outline>
</glyph>
<glyph name="iacute" format="1">
  <advance width="226"/>
  <unicode hex="00ED"/>
  <outline>
    <contour>
      <point x="198" y="621"/>
      <point x="177" y="605"/>
      <point x="177" y="586" type="curve" smooth="yes"/>
      <point x="177" y="574"/>
      <point x="187" y="567"/>
      <point x="196" y="567" type="curve" smooth="yes"/>
      <point x="211" y="567"/>
      <point x="226" y="581"/>
      <point x="276" y="620" type="curve" smooth="yes"/>
      <point x="328" y="661"/>
      <point x="350" y="674"/>
      <point x="350" y="695" type="curve" smooth="yes"/>
      <point x="350" y="713"/>
      <point x="336" y="738"/>
      <point x="319" y="738" type="curve" smooth="yes"/>
      <point x="302" y="738"/>
      <point x="274" y="702"/>
      <point x="242" y="668" type="curve" smooth="yes"/>
    </contour>
    <contour>
      <point x="196" y="480"/>
      <point x="177" y="502"/>
      <point x="163" y="502" type="curve" smooth="yes"/>
      <point x="146" y="502"/>
      <point x="139" y="476"/>
      <point x="100" y="308" type="curve" smooth="yes"/>
      <point x="81" y="227"/>
      <point x="31" y="71"/>
      <point x="31" y="49" type="curve" smooth="yes"/>
      <point x="31" y="31"/>
      <point x="42" y="17"/>
      <point x="55" y="17" type="curve" smooth="yes"/>
      <point x="65" y="17"/>
      <point x="80" y="31"/>
      <point x="94" y="73" type="curve" smooth="yes"/>
      <point x="166" y="300"/>
      <point x="196" y="432"/>
      <point x="196" y="462" type="curve" smooth="yes"/>
    </contour>
    <contour>
      <point x="30" y="-30" type="move" name="ogonek"/>
    </contour>
    <contour>
      <point x="170" y="470" type="move" name="top"/>
    </contour>
  </outline>
</glyph>
<glyph name="icircumflex" format="1">
  <advance width="226"/>
  <unicode hex="00EE"/>
  <outline>
    <contour>
      <point x="244" y="711"/>
      <point x="235" y="726"/>
      <point x="209" y="726" type="curve" smooth="yes"/>
      <point x="190" y="726"/>
      <point x="148" y="697"/>
      <point x="101" y="670" type="curve" smooth="yes"/>
      <point x="52" y="642"/>
      <point x="33" y="624"/>
      <point x="33" y="598" type="curve" smooth="yes"/>
      <point x="33" y="582"/>
      <point x="47" y="575"/>
      <point x="58" y="575" type="curve" smooth="yes"/>
      <point x="90" y="575"/>
      <point x="142" y="638"/>
      <point x="212" y="674" type="curve"/>
      <point x="247" y="629"/>
      <point x="281" y="565"/>
      <point x="314" y="565" type="curve" smooth="yes"/>
      <point x="328" y="565"/>
      <point x="337" y="571"/>
      <point x="337" y="582" type="curve" smooth="yes"/>
      <point x="337" y="600"/>
      <point x="305" y="638"/>
      <point x="270" y="680" type="curve" smooth="yes"/>
    </contour>
    <contour>
      <point x="196" y="480"/>
      <point x="177" y="502"/>
      <point x="163" y="502" type="curve" smooth="yes"/>
      <point x="146" y="502"/>
      <point x="139" y="476"/>
      <point x="100" y="308" type="curve" smooth="yes"/>
      <point x="81" y="227"/>
      <point x="31" y="71"/>
      <point x="31" y="49" type="curve" smooth="yes"/>
      <point x="31" y="31"/>
      <point x="42" y="17"/>
      <point x="55" y="17" type="curve" smooth="yes"/>
      <point x="65" y="17"/>
      <point x="80" y="31"/>
      <point x="94" y="73" type="curve" smooth="yes"/>
      <point x="166" y="300"/>
      <point x="196" y="432"/>
      <point x="196" y="462" type="curve" smooth="yes"/>
    </contour>
    <contour>
      <point x="30" y="-30" type="move" name="ogonek"/>
    </contour>
    <contour>
      <point x="170" y="470" type="move" name="top"/>
    </contour>
  </outline>
</glyph>
